<svg width="100" height="106" viewBox="0 0 100 106" fill="none" xmlns="http://www.w3.org/2000/svg">
<circle cx="50" cy="56" r="50" fill="#E4E8F3"/>
<path d="M66.7188 68V69H67.7188V68H66.7188ZM34.7812 68H33.7812V69H34.7812V68ZM34.7812 61.2812L34.0703 60.578L33.7812 60.8702V61.2812H34.7812ZM46.25 49.6875L46.9609 50.3908L46.9656 50.386L46.25 49.6875ZM52.9062 42.4688L53.6943 43.0844L53.6989 43.0785L52.9062 42.4688ZM54.3125 31.0625L53.6452 31.8074L53.6529 31.8141L54.3125 31.0625ZM39.9062 34.4062L39.1421 35.0513L39.7809 35.808L40.5438 35.1766L39.9062 34.4062ZM34.6562 28.1875L34.0078 27.4263L33.2499 28.0719L33.8921 28.8326L34.6562 28.1875ZM45.0938 22.3125L45.3254 23.2854L45.3363 23.2826L45.0938 22.3125ZM63.625 27.5938L62.7844 28.1355L63.625 27.5938ZM64.3125 39.9688L63.3855 39.5938L63.3833 39.5992L64.3125 39.9688ZM60.875 45.625L60.0966 44.9972L60.0925 45.0024L60.875 45.625ZM52.6875 53.9062L52.0125 53.1684L52.0072 53.1733L52.002 53.1782L52.6875 53.9062ZM46.8125 59.4375L46.127 58.7094L45.8125 59.0055V59.4375H46.8125ZM46.8125 59.875H45.8125V60.875H46.8125V59.875ZM66.7188 59.875H67.7188V58.875H66.7188V59.875ZM66.7188 67H34.7812V69H66.7188V67ZM35.7812 68V61.2812H33.7812V68H35.7812ZM35.4922 61.9845L46.9609 50.3908L45.5391 48.9842L34.0703 60.578L35.4922 61.9845ZM46.9656 50.386C50.3562 46.9122 52.6134 44.4679 53.6943 43.0844L52.1182 41.8531C51.1158 43.1363 48.9354 45.5045 45.5344 48.989L46.9656 50.386ZM53.6989 43.0785C54.7768 41.6772 55.582 40.3469 56.0847 39.0901L54.2278 38.3474C53.8138 39.3822 53.1191 40.552 52.1136 41.859L53.6989 43.0785ZM56.0847 39.0901C56.5901 37.8267 56.8438 36.5132 56.8438 35.1562H54.8438C54.8438 36.2577 54.6391 37.3192 54.2278 38.3474L56.0847 39.0901ZM56.8438 35.1562C56.8438 33.1409 56.2778 31.4567 54.9721 30.3109L53.6529 31.8141C54.3889 32.46 54.8438 33.505 54.8438 35.1562H56.8438ZM54.9797 30.3177C53.7527 29.2185 52.1494 28.7188 50.2812 28.7188V30.7188C51.7881 30.7188 52.8723 31.1149 53.6453 31.8073L54.9797 30.3177ZM50.2812 28.7188C48.3514 28.7188 46.4834 29.1628 44.6868 30.0386L45.5632 31.8364C47.1 31.0872 48.6694 30.7188 50.2812 30.7188V28.7188ZM44.6868 30.0386C42.9327 30.8937 41.1268 32.0981 39.2687 33.6359L40.5438 35.1766C42.3107 33.7144 43.9839 32.6063 45.5632 31.8364L44.6868 30.0386ZM40.6704 33.7612L35.4204 27.5424L33.8921 28.8326L39.1421 35.0513L40.6704 33.7612ZM35.3047 28.9487C37.5347 27.0491 39.3359 25.7484 40.7219 25.0067L39.7781 23.2433C38.2058 24.0849 36.2778 25.4926 34.0078 27.4263L35.3047 28.9487ZM40.7219 25.0067C42.1199 24.2584 43.653 23.6835 45.3254 23.2853L44.8621 21.3397C43.0345 21.7749 41.3384 22.4083 39.7781 23.2433L40.7219 25.0067ZM45.3363 23.2826C46.993 22.8685 48.868 22.6562 50.9688 22.6562V20.6562C48.7361 20.6562 46.6945 20.8815 44.8512 21.3424L45.3363 23.2826ZM50.9688 22.6562C53.7004 22.6562 56.07 23.1543 58.1013 24.1216L58.9612 22.3159C56.6175 21.1999 53.9454 20.6562 50.9688 20.6562V22.6562ZM58.1013 24.1216C60.136 25.0905 61.6854 26.4301 62.7844 28.1355L64.4656 27.052C63.1479 25.0074 61.3015 23.4303 58.9612 22.3159L58.1013 24.1216ZM62.7844 28.1355C63.88 29.8355 64.4375 31.79 64.4375 34.0312H66.4375C66.4375 31.4392 65.7867 29.102 64.4656 27.052L62.7844 28.1355ZM64.4375 34.0312C64.4375 36.0137 64.0848 37.8649 63.3855 39.5938L65.2395 40.3437C66.0402 38.3643 66.4375 36.2572 66.4375 34.0312H64.4375ZM63.3833 39.5992C62.6994 41.3187 61.6118 43.1184 60.0966 44.9972L61.6534 46.2528C63.2632 44.2566 64.4673 42.2854 65.2417 40.3383L63.3833 39.5992ZM60.0925 45.0024C58.6032 46.8741 55.9239 49.5899 52.0125 53.1684L53.3625 54.6441C57.2845 51.0559 60.0635 48.2509 61.6575 46.2476L60.0925 45.0024ZM52.002 53.1782L46.127 58.7094L47.498 60.1656L53.373 54.6343L52.002 53.1782ZM45.8125 59.4375V59.875H47.8125V59.4375H45.8125ZM46.8125 60.875H66.7188V58.875H46.8125V60.875ZM65.7188 59.875V68H67.7188V59.875H65.7188Z" fill="#D268CC"/>
</svg>
