<svg width="100" height="106" viewBox="0 0 100 106" fill="none" xmlns="http://www.w3.org/2000/svg">
<circle cx="50" cy="56" r="50" fill="#E4E8F3"/>
<path d="M58.6562 68V69H59.6562V68H58.6562ZM49 68H48V69H49V68ZM49 41.5625L48.0002 41.5409L48 41.5517V41.5625H49ZM49.0938 37.2188L48.0942 37.1859L48.094 37.1972L49.0938 37.2188ZM49.25 32.4688L50.2495 32.5016L50.3327 29.9719L48.5429 31.7616L49.25 32.4688ZM45.9062 35.625L45.2816 34.8441L45.2799 34.8455L45.9062 35.625ZM40.6562 39.8438L39.8758 40.469L40.5019 41.2506L41.2826 40.6233L40.6562 39.8438ZM36 34.0312L35.3771 33.2489L34.5925 33.8737L35.2195 34.6565L36 34.0312ZM50.7188 22.3125V21.3125H50.3693L50.0959 21.5302L50.7188 22.3125ZM58.6562 22.3125H59.6562V21.3125H58.6562V22.3125ZM58.6562 67H49V69H58.6562V67ZM50 68V41.5625H48V68H50ZM49.9998 41.5841L50.0935 37.2403L48.094 37.1972L48.0002 41.5409L49.9998 41.5841ZM50.0932 37.2516L50.2495 32.5016L48.2505 32.4359L48.0943 37.1859L50.0932 37.2516ZM48.5429 31.7616C46.9338 33.3707 45.8567 34.384 45.2816 34.8441L46.5309 36.4059C47.2058 35.866 48.3578 34.7751 49.9571 33.1759L48.5429 31.7616ZM45.2799 34.8455L40.0299 39.0642L41.2826 40.6233L46.5326 36.4045L45.2799 34.8455ZM41.4367 39.2185L36.7805 33.406L35.2195 34.6565L39.8758 40.469L41.4367 39.2185ZM36.6229 34.8136L51.3416 23.0948L50.0959 21.5302L35.3771 33.2489L36.6229 34.8136ZM50.7188 23.3125H58.6562V21.3125H50.7188V23.3125ZM57.6562 22.3125V68H59.6562V22.3125H57.6562Z" fill="#D268CC"/>
</svg>
