<svg width="385" height="362" viewBox="0 0 385 362" fill="none" xmlns="http://www.w3.org/2000/svg">
<path d="M328.272 172.472C403.369 215.829 403.369 286.125 328.272 329.482C253.174 372.839 131.418 372.839 56.3221 329.483C-18.7742 286.126 -18.7742 215.829 56.3229 172.473C131.42 129.115 253.176 129.115 328.272 172.472Z" fill="#E4E4E4"/>
<path d="M273.506 192.847L111.082 286.605C108.366 288.174 105.019 288.174 102.303 286.605L93.7311 281.656C91.6226 280.439 91.6234 277.395 93.7311 276.179L256.155 182.42C258.871 180.853 262.217 180.853 264.933 182.421L273.506 187.371C275.615 188.588 275.615 191.631 273.506 192.847Z" fill="#E1E1E1"/>
<path d="M273.308 263.606C286.945 271.479 286.945 284.244 273.308 292.118C259.67 299.992 237.56 299.992 223.923 292.118C210.286 284.245 210.286 271.479 223.923 263.606C237.56 255.733 259.67 255.733 273.308 263.606Z" fill="#E1E1E1"/>
<path d="M335.565 194.788C346.241 200.951 346.241 210.945 335.565 217.11C324.888 223.273 307.579 223.273 296.903 217.11C286.226 210.945 286.226 200.952 296.903 194.788C307.579 188.625 324.888 188.625 335.565 194.788Z" fill="#E1E1E1"/>
<path d="M87.9196 293.37C98.5954 299.534 98.5954 309.527 87.9196 315.692C77.2429 321.855 59.9337 321.855 49.2579 315.692C38.5812 309.527 38.5812 299.534 49.2579 293.37C59.9337 287.206 77.2429 287.206 87.9196 293.37Z" fill="#E1E1E1"/>
<path d="M100.392 95.906L265.139 0.788635C267.028 -0.302032 268.729 -0.220139 269.934 0.780472L275.638 4.72392L271.748 9.5329V142.389C271.748 147.255 268.789 152.909 265.139 155.016L102.03 249.187L101.727 254.369L95.7185 250.25C94.5222 249.347 93.7828 247.571 93.7828 245.137V108.533C93.7828 103.667 96.7412 98.0137 100.392 95.906Z" fill="#D268CC"/>
<g opacity="0.399994">
<g opacity="0.399994">
<path opacity="0.399994" d="M100.392 95.906L265.139 0.788635C267.028 -0.302032 268.729 -0.220139 269.934 0.780472L275.638 4.72392L271.748 9.5329V142.389C271.748 147.255 268.789 152.909 265.139 155.016L102.03 249.187L101.727 254.369L95.7185 250.25C94.5222 249.347 93.7828 247.571 93.7828 245.137V108.533C93.7828 103.667 96.7412 98.0137 100.392 95.906Z" fill="white"/>
</g>
</g>
<path d="M99.3944 248.999V112.395C99.3944 109.779 100.255 106.939 101.613 104.541L95.7268 101.169C94.5264 103.458 93.7821 106.094 93.7821 108.534V245.137C93.7821 247.57 94.5224 249.347 95.7187 250.25L101.253 254.044C100.104 253.121 99.3944 251.377 99.3944 248.999Z" fill="#D268CC"/>
<g opacity="0.199997">
<g opacity="0.199997">
<path opacity="0.199997" d="M99.3944 248.999V112.395C99.3944 109.779 100.255 106.939 101.613 104.541L95.7268 101.169C94.5264 103.458 93.7821 106.094 93.7821 108.534V245.137C93.7821 247.57 94.5224 249.347 95.7187 250.25L101.253 254.044C100.104 253.121 99.3944 251.377 99.3944 248.999Z" fill="white"/>
</g>
</g>
<g opacity="0.300003">
<g opacity="0.300003">
<path opacity="0.300003" d="M101.639 254.308L101.729 254.369V254.365C101.699 254.348 101.67 254.325 101.639 254.308Z" fill="#D268CC"/>
</g>
</g>
<path d="M106.003 253.995L270.75 158.878C274.401 156.771 277.359 151.117 277.359 146.251V9.64691C277.359 4.78062 274.401 2.5444 270.75 4.65125L106.003 99.7678C102.353 101.875 99.3946 107.529 99.3946 112.396V248.999C99.3946 253.866 102.353 256.102 106.003 253.995Z" fill="#D268CC"/>
<path d="M106.003 253.995L270.75 158.878C274.401 156.771 277.359 151.117 277.359 146.251V9.64691C277.359 4.78062 274.401 2.5444 270.75 4.65125L106.003 99.7678C102.353 101.875 99.3946 107.529 99.3946 112.396V248.999C99.3946 253.866 102.353 256.102 106.003 253.995Z" fill="#D268CC"/>
<g opacity="0.699997">
<g opacity="0.699997">
<path opacity="0.699997" d="M106.003 253.995L270.75 158.878C274.401 156.771 277.359 151.117 277.359 146.251V9.64691C277.359 4.78062 274.401 2.5444 270.75 4.65125L106.003 99.7678C102.353 101.875 99.3946 107.529 99.3946 112.396V248.999C99.3946 253.866 102.353 256.102 106.003 253.995Z" fill="white"/>
</g>
</g>
<path d="M106.003 99.7682L270.75 4.65085C274.401 2.54401 277.359 4.78105 277.359 9.64733V16.3257L99.3946 119.074V112.395C99.3946 107.529 102.353 101.876 106.003 99.7682Z" fill="#D268CC"/>
<g opacity="0.5">
<g opacity="0.5">
<path opacity="0.5" d="M106.003 99.7682L270.75 4.65085C274.401 2.54401 277.359 4.78105 277.359 9.64733V16.3257L99.3946 119.074V112.395C99.3946 107.529 102.353 101.876 106.003 99.7682Z" fill="white"/>
</g>
</g>
<path d="M273.374 3.85831C272.57 3.85831 271.683 4.11295 270.751 4.65092L106.004 99.7683C102.353 101.876 99.394 107.529 99.394 112.395V248.999C99.394 252.623 101.035 254.789 103.379 254.789C104.184 254.789 105.071 254.534 106.004 253.995L270.751 158.879C274.4 156.772 277.359 151.118 277.359 146.251V9.64742C277.359 6.02411 275.719 3.85831 273.374 3.85831ZM273.374 4.50272C275.404 4.50272 276.715 6.52196 276.715 9.64742V146.251C276.715 150.905 273.895 156.319 270.428 158.321L105.681 253.437C104.869 253.907 104.094 254.144 103.379 254.144C101.35 254.144 100.038 252.125 100.038 248.999V112.395C100.038 107.742 102.859 102.327 106.325 100.326L271.072 5.20937C271.885 4.74017 272.659 4.50272 273.374 4.50272Z" fill="#D268CC"/>
<path d="M114.223 217.223C113.63 217.223 113.052 216.915 112.734 216.363C112.26 215.542 112.541 214.491 113.363 214.016L162.822 185.46C163.643 184.987 164.695 185.267 165.169 186.09C165.643 186.911 165.362 187.962 164.54 188.437L115.081 216.993C114.81 217.148 114.515 217.223 114.223 217.223Z" fill="#FAFAFA"/>
<path d="M114.223 228.005C113.63 228.005 113.052 227.697 112.734 227.145C112.26 226.324 112.541 225.273 113.363 224.798L183.814 184.123C184.634 183.649 185.685 183.932 186.16 184.753C186.635 185.574 186.354 186.625 185.532 187.1L115.081 227.775C114.81 227.93 114.515 228.005 114.223 228.005Z" fill="#FAFAFA"/>
<path d="M192.45 193.622C191.856 193.622 191.279 193.313 190.96 192.762C190.486 191.941 190.767 190.891 191.589 190.416L240.323 162.28C241.145 161.806 242.195 162.087 242.67 162.909C243.144 163.731 242.863 164.781 242.041 165.256L193.307 193.392C193.037 193.548 192.741 193.622 192.45 193.622Z" fill="#FAFAFA"/>
<path d="M114.223 238.786C113.63 238.786 113.052 238.478 112.734 237.927C112.26 237.105 112.541 236.055 113.363 235.58L176.223 199.288C177.044 198.815 178.094 199.095 178.569 199.917C179.044 200.738 178.762 201.789 177.94 202.264L115.081 238.556C114.81 238.712 114.515 238.786 114.223 238.786Z" fill="#FAFAFA"/>
<path d="M114.223 127.711C113.63 127.711 113.052 127.403 112.734 126.851C112.26 126.03 112.541 124.979 113.363 124.505L162.822 95.9488C163.643 95.4747 164.695 95.7564 165.169 96.5785C165.643 97.3997 165.362 98.4503 164.54 98.9244L115.081 127.48C114.81 127.637 114.515 127.711 114.223 127.711Z" fill="#FAFAFA"/>
<path d="M114.223 138.493C113.63 138.493 113.052 138.185 112.734 137.633C112.26 136.812 112.541 135.761 113.363 135.286L183.814 94.612C184.634 94.1379 185.685 94.4179 186.16 95.2409C186.635 96.0621 186.354 97.1127 185.532 97.5868L115.081 138.262C114.81 138.418 114.515 138.493 114.223 138.493Z" fill="#FAFAFA"/>
<path d="M192.45 104.111C191.856 104.111 191.279 103.803 190.96 103.251C190.486 102.43 190.767 101.379 191.589 100.904L240.323 72.7684C241.145 72.2935 242.195 72.5752 242.67 73.3973C243.144 74.2186 242.863 75.2691 242.041 75.7432L193.307 103.88C193.037 104.036 192.741 104.111 192.45 104.111Z" fill="#FAFAFA"/>
<path d="M114.223 149.275C113.63 149.275 113.052 148.967 112.734 148.415C112.26 147.594 112.541 146.543 113.363 146.068L176.223 109.776C177.044 109.301 178.094 109.583 178.569 110.405C179.044 111.227 178.762 112.278 177.94 112.752L115.081 149.044C114.81 149.2 114.515 149.275 114.223 149.275Z" fill="#FAFAFA"/>
<path d="M113.418 103.925C113.418 105.503 112.311 107.421 110.945 108.209C109.579 108.998 108.472 108.359 108.472 106.782C108.472 105.205 109.579 103.286 110.945 102.497C112.311 101.709 113.418 102.348 113.418 103.925Z" fill="white"/>
<path d="M122.141 98.8898C122.141 100.467 121.033 102.385 119.667 103.173C118.302 103.962 117.194 103.323 117.194 101.745C117.194 100.168 118.302 98.2503 119.667 97.4618C121.033 96.6732 122.141 97.3127 122.141 98.8898Z" fill="white"/>
<path d="M130.863 93.8537C130.863 95.4308 129.756 97.3493 128.39 98.137C127.025 98.9255 125.917 98.2868 125.917 96.7098C125.917 95.1327 127.025 93.2142 128.39 92.4257C129.756 91.6371 130.863 92.2767 130.863 93.8537Z" fill="white"/>
<path d="M148.205 137.583L144.688 136.064V99.6508L148.205 101.169V137.583Z" fill="#D268CC"/>
<g opacity="0.600006">
<g opacity="0.600006">
<path opacity="0.600006" d="M148.205 137.583L144.688 136.064V99.6508L148.205 101.169V137.583Z" fill="black"/>
</g>
</g>
<path d="M291.08 18.5044L148.204 101.169L144.688 99.651L287.563 16.9863L291.08 18.5044Z" fill="#D268CC"/>
<g opacity="0.399994">
<g opacity="0.399994">
<path opacity="0.399994" d="M291.08 18.5044L148.204 101.169L144.688 99.651L287.563 16.9863L291.08 18.5044Z" fill="black"/>
</g>
</g>
<path d="M291.08 54.9183L148.204 137.583V101.169L291.08 18.5042V54.9183Z" fill="#D268CC"/>
<g opacity="0.300003">
<g opacity="0.300003">
<path opacity="0.300003" d="M291.08 54.9182L148.204 137.583V101.169L291.08 18.5042V54.9182Z" fill="black"/>
</g>
</g>
<path d="M210.54 79.897L203.158 87.2824L210.54 86.1177V89.3176L199.987 90.7767V87.4488L210.54 76.7227V79.897ZM218.469 65.8477L221.55 64.0685L214.234 92.407L211.153 94.1862L218.469 65.8477ZM232.493 68.6815V72.0095L221.94 82.7356V79.5357L229.323 72.1759L221.94 73.315V70.1407L232.493 68.6815Z" fill="white"/>
<path d="M328.9 111.74L331.737 115.117C331.737 115.117 332.057 119.034 333.736 124.309C335.414 129.585 335.094 131.824 335.094 131.824L341.106 131.359L338.701 112.541C338.536 111.282 338.104 110.072 337.433 108.993L335.974 106.644L328.9 111.74Z" fill="#A65A58"/>
<path d="M332.197 207.123C332.197 207.123 328.42 210.06 328.78 211.8C329.14 213.538 335.026 214.356 337.885 210.964C339.152 209.461 340.05 206.406 340.171 202.685C340.231 200.828 342.569 198.07 340.171 196.153C337.772 194.233 336.814 193.754 336.213 193.993C335.614 194.233 332.197 207.123 332.197 207.123Z" fill="#2B454E"/>
<path d="M329.379 192.915L331.597 197.651C331.597 197.651 332.317 204.485 332.197 207.124C332.197 207.124 335.614 209.221 336.633 205.244C337.235 202.897 337.173 199.509 337.173 199.509C337.173 199.509 336.496 197.093 336.705 195.427C336.759 195 336.735 194.569 336.632 194.152L335.614 189.977L329.379 192.915Z" fill="#A65A58"/>
<path d="M298.612 200.729C298.612 200.729 297.245 201.647 296.286 202.327C295.326 203.007 291.318 206.338 296.925 207.364C298.339 207.621 301.921 207.563 304.679 204.845C307.437 202.127 309.435 202.966 310.435 201.887C311.434 200.809 310.701 194.775 309.328 195.053L298.612 200.729Z" fill="#2B454E"/>
<path d="M303.28 190.097L303.714 194.003C303.751 194.338 303.7 194.671 303.559 194.977C303.161 195.841 301.994 197.715 298.611 200.728C298.611 200.728 298.557 203.746 302.801 202.287C303.645 201.997 305.15 200.975 306.076 200.315C306.569 199.963 306.973 199.503 307.268 198.975C307.681 198.232 308.392 197.107 309.236 196.391L309.675 190.097H303.28Z" fill="#A65A58"/>
<path d="M299.583 123.97C299.583 123.97 298.404 129.825 298.644 140.936C298.805 148.401 298.954 153.99 299.035 156.854C299.075 158.276 299.191 159.693 299.38 161.105L303.28 190.097C303.28 190.097 306.478 191.935 309.675 190.097C309.675 190.097 310.234 183.702 310.874 180.345C311.44 177.37 312.195 168.684 310.692 164.13C310.259 162.817 310.174 161.416 310.38 160.048L314.791 130.865L299.583 123.97Z" fill="#375A64"/>
<path d="M302.594 130.682C302.594 130.682 303.839 134.701 308.316 136.54L311.549 152.313L314.791 130.865L302.594 130.682Z" fill="#2B454E"/>
<path d="M300.882 123.67C300.882 123.67 300.083 130.784 305.998 133.562C308.621 134.794 309.715 134.941 309.715 134.941C309.715 134.941 314.571 163.897 315.47 166.056C316.37 168.214 329.379 192.914 329.379 192.914C329.379 192.914 334.535 193.993 335.614 189.977C335.614 189.977 334.475 184.701 333.037 178.946C331.824 174.097 330.399 168.611 327.902 165.926C326.956 164.911 326.407 163.595 326.437 162.208C326.541 157.498 326.756 147.618 326.801 144.953C326.861 141.416 328.179 130.14 325.902 125.589L318.877 119.174L300.882 123.67Z" fill="#375A64"/>
<path d="M296.006 83.9435L290.718 80.8017C290.718 80.8017 287.354 76.5478 284.626 72.7706C281.898 68.9942 280.758 67.0159 280.758 67.0159C280.758 67.0159 282.197 64.9172 282.197 62.6393C282.197 60.3613 282.077 59.2821 282.497 58.442C282.917 57.6035 282.497 56.7036 281.358 57.0631C280.219 57.4233 279.38 59.8733 279.739 61.4659L273.384 65.1572C273.384 65.1572 274.445 67.9747 275.902 69.2939C275.902 69.2939 281.717 83.3228 283.996 85.6008C286.274 87.8788 290.25 90.9641 290.25 90.9641L296.006 83.9435Z" fill="#A65A58"/>
<path d="M306.878 90.397L296.006 83.9438C296.006 83.9438 290.979 84.3017 290.251 90.9636L299.763 98.0907L306.878 90.397Z" fill="#D268CC"/>
<g opacity="0.199997">
<g opacity="0.199997">
<path opacity="0.199997" d="M306.878 90.397L296.006 83.9438C296.006 83.9438 290.979 84.3017 290.251 90.9636L299.763 98.0907L306.878 90.397Z" fill="black"/>
</g>
</g>
<path d="M308.977 90.3969L316.234 90.7605L320.976 90.9963L321.766 102.207C321.766 102.207 320.506 108.682 319.547 110.96C318.588 113.239 324.883 122.591 325.902 125.588C325.902 125.588 321.885 126.128 319.846 121.512C319.846 121.512 317.209 128.826 308.576 128.826C302.802 128.826 299.583 123.97 299.583 123.97L300.902 115.757C300.902 115.757 299.583 111.859 299.583 108.022C299.583 108.022 296.317 106.818 297.051 101.965C297.785 97.1113 306.878 90.3969 306.878 90.3969H308.977Z" fill="#D268CC"/>
<path d="M323.804 72.2911C323.804 72.2911 327.949 68.8602 331.537 72.771C336.694 78.3914 325.542 89.4374 335.434 89.6773C335.434 89.6773 334.295 90.9964 330.458 90.9964C326.621 90.9964 323.325 87.0267 323.984 79.7187L323.804 72.2911Z" fill="#1A2E35"/>
<path d="M322.485 72.1113C322.485 72.1113 323.812 71.3014 324.317 71.8869C324.822 72.4707 325.499 77.0545 323.984 79.719C323.264 80.9841 321.825 79.2457 321.825 79.2457L322.485 72.1113Z" fill="#D268CC"/>
<path d="M300.243 72.771C300.243 72.771 300.302 77.5112 297.245 76.1904C297.245 76.1904 297.905 78.2162 300.431 78.2162C302.11 78.2162 303.078 76.54 303.078 75.2905L300.243 72.771Z" fill="#1A2E35"/>
<path d="M320.808 70.9558C320.808 76.0653 316.665 80.2077 311.556 80.2077C306.446 80.2077 302.303 76.0653 302.303 70.9558C302.303 65.8463 306.446 61.7039 311.556 61.7039C316.665 61.7039 320.808 65.8463 320.808 70.9558Z" fill="#1A2E35"/>
<path d="M323.444 75.2902C323.444 80.3996 318.881 86.897 313.771 86.897C308.662 86.897 304.519 82.7554 304.519 77.6451C304.519 72.5356 308.662 66.7154 313.771 66.7154C318.881 66.7154 323.444 68.4546 323.444 75.2902Z" fill="#1A2E35"/>
<path d="M309.297 69.8647C309.297 72.8608 306.869 75.2902 303.872 75.2902C300.875 75.2902 298.446 72.8608 298.446 69.8647C298.446 66.8678 300.875 64.4391 303.872 64.4391C306.869 64.4391 309.297 66.8678 309.297 69.8647Z" fill="#1A2E35"/>
<path d="M308.977 85.4172V90.3973C308.977 90.3973 304.333 95.0744 308.859 95.483C313.387 95.8916 316.234 90.7608 316.234 90.7608V81.2714L308.977 85.4172Z" fill="#A65959"/>
<path d="M316.153 79.7706L316.154 80.0318C314.537 86.4096 310.334 87.8 308.977 88.1243L308.928 78.25L315.946 78.2165L316.153 79.7706Z" fill="#803535"/>
<path d="M310.287 65.5659C307.609 65.7861 302.035 67.7464 301.953 74.8088C301.871 81.872 302.951 87.259 306.612 87.4834C310.272 87.7078 318.455 84.3997 318.836 75.2346C319.217 66.0678 312.9 65.3513 310.287 65.5659Z" fill="#A65959"/>
<path d="M306.898 77.6455L306.963 81.792L304.523 81.0845L306.898 77.6455Z" fill="#803535"/>
<path d="M310.543 77.5344C310.55 78.0011 310.177 78.3852 309.71 78.3909C309.244 78.3975 308.86 78.0249 308.854 77.5582C308.847 77.0914 309.22 76.7082 309.687 76.7017C310.153 76.6951 310.537 77.0677 310.543 77.5344Z" fill="#1A2E35"/>
<path d="M304.978 77.0234C304.984 77.4902 304.611 77.8734 304.144 77.8799C303.678 77.8865 303.294 77.5139 303.288 77.0472C303.281 76.5804 303.655 76.1972 304.121 76.1899C304.587 76.1841 304.971 76.5567 304.978 77.0234Z" fill="#1A2E35"/>
<path d="M303.079 75.2902L304.717 74.2855C304.717 74.2855 304.074 73.6353 303.448 74.0406C302.822 74.4451 303.079 75.2902 303.079 75.2902Z" fill="#D268CC"/>
<path d="M306.42 83.239C306.42 83.239 307.212 82.891 308.912 81.865C308.912 81.865 309.442 83.2251 308.331 83.7851C307.22 84.3452 306.42 83.239 306.42 83.239Z" fill="#803535"/>
<path d="M303.079 75.2902L304.717 74.2855C304.717 74.2855 304.074 73.6353 303.448 74.0406C302.822 74.4451 303.079 75.2902 303.079 75.2902Z" fill="#1A2E35"/>
<path d="M314.705 77.1518C314.705 77.1518 314.538 80.1249 316.251 80.1249H319.605V74.457C319.605 68.1005 314.783 61.4606 304.522 66.7109C304.522 66.7109 304.026 75.1956 314.705 77.1518Z" fill="#1A2E35"/>
<path d="M315.994 80.2547C315.982 79.6079 316.093 78.9593 316.364 78.3722C316.667 77.7131 317.198 77.0515 318.108 77.0359C320.105 77.0015 320.355 78.9266 320.321 79.6103C320.231 81.4068 318.757 83.3343 316.047 83.3802L315.994 80.2547Z" fill="#A65959"/>
<path d="M320.324 90.9639C320.324 90.9639 315.603 95.6631 321.621 102.922C327.641 110.181 328.9 111.74 328.9 111.74C328.9 111.74 335.075 112.339 335.974 106.644C335.974 106.644 328.72 96.4516 326.742 93.874C324.762 91.2963 322.96 91.0949 320.324 90.9639Z" fill="#D268CC"/>
<g opacity="0.199997">
<g opacity="0.199997">
<path opacity="0.199997" d="M320.324 90.9639C320.324 90.9639 315.603 95.6631 321.621 102.922C327.641 110.181 328.9 111.74 328.9 111.74C328.9 111.74 335.075 112.339 335.974 106.644C335.974 106.644 328.72 96.4516 326.742 93.874C324.762 91.2963 322.96 91.0949 320.324 90.9639Z" fill="black"/>
</g>
</g>
<g opacity="0.300003">
<g opacity="0.300003">
<path opacity="0.300003" d="M306.597 108.622C306.597 108.622 313.819 110.641 316.233 103.766C316.233 103.766 314.99 112.34 306.597 108.622Z" fill="black"/>
</g>
</g>
<path d="M335.095 131.824C335.095 131.824 333.943 132.497 333.675 134.893C333.597 135.583 332.331 137.111 332.518 137.5C332.706 137.89 333.974 138.404 335.333 136.157C335.333 136.157 335.745 137.848 335.379 139.624C335.011 141.4 334.368 143.68 336.692 143.177C339.017 142.673 342.389 140.844 341.877 137.39C341.383 134.059 341.106 131.358 341.106 131.358L335.095 131.824Z" fill="#A65A58"/>
<path d="M198.69 176.543L195.173 175.024V138.61L198.69 140.129V176.543Z" fill="#D268CC"/>
<g opacity="0.600006">
<g opacity="0.600006">
<path opacity="0.600006" d="M198.69 176.543L195.173 175.024V138.61L198.69 140.129V176.543Z" fill="black"/>
</g>
</g>
<path d="M280.834 92.6035L198.69 140.129L195.173 138.61L277.317 91.0845L280.834 92.6035Z" fill="#D268CC"/>
<g opacity="0.399994">
<g opacity="0.399994">
<path opacity="0.399994" d="M280.834 92.6035L198.69 140.129L195.173 138.61L277.317 91.0845L280.834 92.6035Z" fill="black"/>
</g>
</g>
<path d="M280.834 129.017L198.69 176.543V140.129L280.834 92.6033V129.017Z" fill="#D268CC"/>
<g opacity="0.300003">
<g opacity="0.300003">
<path opacity="0.300003" d="M280.834 129.017L198.69 176.543V140.129L280.834 92.6033V129.017Z" fill="black"/>
</g>
</g>
<path d="M228.564 147.934C227.088 148.787 225.75 149.193 224.55 149.153C223.364 149.089 222.426 148.603 221.736 147.696C221.06 146.764 220.722 145.47 220.722 143.813C220.722 142.157 221.06 140.48 221.736 138.784C222.426 137.064 223.364 135.495 224.55 134.077C225.75 132.636 227.095 131.485 228.585 130.625C229.84 129.9 230.971 129.502 231.978 129.43C232.999 129.351 233.854 129.59 234.544 130.147L232.392 133.683C231.413 132.942 230.199 132.99 228.751 133.826C227.854 134.344 227.054 135.037 226.35 135.905C225.647 136.757 225.095 137.705 224.695 138.748C224.309 139.783 224.116 140.819 224.116 141.854C224.116 142.889 224.309 143.702 224.695 144.291C225.095 144.872 225.647 145.191 226.35 145.247C227.054 145.286 227.854 145.048 228.751 144.53C230.199 143.694 231.413 142.332 232.392 140.444L234.544 141.496C233.854 142.865 232.999 144.1 231.978 145.199C230.958 146.298 229.82 147.21 228.564 147.934Z" fill="white"/>
<path d="M244.779 126.268L242.68 127.48V129.848L241.124 130.746V128.378L239.037 129.583V127.884L241.124 126.679V124.311L242.68 123.413V125.781L244.779 124.569V126.268ZM252.071 122.058L249.972 123.27V125.638L248.416 126.536V124.168L246.329 125.373V123.674L248.416 122.469V120.101L249.972 119.203V121.571L252.071 120.359V122.058Z" fill="white"/>
<path d="M270.19 276.663C270.19 276.663 273.532 274.798 273.953 272.72C274.373 270.642 270.707 265.845 270.707 265.845C270.707 265.845 267.962 267.398 270.19 276.663Z" fill="#D268CC"/>
<g opacity="0.199997">
<g opacity="0.199997">
<path opacity="0.199997" d="M270.19 276.663C270.19 276.663 273.532 274.798 273.953 272.72C274.373 270.642 270.707 265.845 270.707 265.845C270.707 265.845 267.962 267.398 270.19 276.663Z" fill="black"/>
</g>
</g>
<path d="M229.29 283.112L234.166 280.234L234.806 275.357L233.127 274.958L229.29 283.112Z" fill="#D268CC"/>
<g opacity="0.300003">
<g opacity="0.300003">
<path opacity="0.300003" d="M229.29 283.112L234.166 280.234L234.806 275.357L233.127 274.958L229.29 283.112Z" fill="black"/>
</g>
</g>
<path d="M258.147 255.054L262.703 262.329L265.741 272.4C265.741 272.4 271.345 271.705 267.82 258.772L265.181 250.977L258.147 255.054Z" fill="#FFAAA8"/>
<path d="M228.331 257.776L229.29 269.363L225.932 278.235C225.932 278.235 227.611 282.392 232.887 273.599C235.684 268.938 235.78 268.006 235.78 268.006L236.884 257.776H228.331Z" fill="#FFAAA8"/>
<path d="M232.675 144.884L230.963 148.273C230.857 148.482 230.962 148.736 231.185 148.81L233.216 149.487L232.675 144.884Z" fill="#FF9090"/>
<path d="M235.046 139.201C235.046 139.201 232.45 140.6 232.45 148.627C232.45 153.04 232.753 155.853 235.046 155.68C237.34 155.507 243.939 154.642 243.939 154.642V139.201H235.046Z" fill="#FFAAA8"/>
<path d="M235.046 155.68C235.852 155.619 237.191 155.473 238.587 155.308V154.49C237.302 155.149 235.012 155.61 234.663 155.678C234.785 155.688 234.911 155.691 235.046 155.68Z" fill="#FF9090"/>
<path d="M238.194 154.147V159.186H245.085V152.106L238.194 154.147Z" fill="#FFAAA8"/>
<path d="M249.993 171.841L254.47 181.034L251.113 185.43L253.434 193.286L260.631 184.791C261.903 183.288 262.254 181.217 261.54 179.382C259.559 174.284 255.614 164.263 254.549 162.488C253.111 160.09 251.392 158.812 248.814 158.892C246.236 158.971 249.993 171.841 249.993 171.841Z" fill="#FFAAA8"/>
<path d="M252.152 186.948C253.191 190.067 255.456 194.452 255.363 209.206C255.297 219.514 255.395 225.313 255.46 227.872C255.483 228.786 255.827 229.664 256.462 230.324C257.556 231.461 259.426 233.893 261.184 238.508C263.889 245.608 265.182 250.977 265.182 250.977C265.182 250.977 263.903 255.134 258.147 255.054L243.754 231.92C243.177 230.993 242.805 229.954 242.663 228.872L238.882 200.138V188.388L252.152 186.948Z" fill="#D268CC"/>
<g opacity="0.600006">
<g opacity="0.600006">
<path opacity="0.600006" d="M252.152 186.948C253.191 190.067 255.456 194.452 255.363 209.206C255.297 219.514 255.395 225.313 255.46 227.872C255.483 228.786 255.827 229.664 256.462 230.324C257.556 231.461 259.426 233.893 261.184 238.508C263.889 245.608 265.182 250.977 265.182 250.977C265.182 250.977 263.903 255.134 258.147 255.054L243.754 231.92C243.177 230.993 242.805 229.954 242.663 228.872L238.882 200.138V188.388L252.152 186.948Z" fill="black"/>
</g>
</g>
<path d="M241.914 223.182L245.917 208.851C245.917 208.851 251.532 203.141 249.533 193.286L241.04 203.975L241.471 220.29L241.914 223.182Z" fill="#D268CC"/>
<g opacity="0.699997">
<g opacity="0.699997">
<path opacity="0.699997" d="M241.914 223.182L245.917 208.851C245.917 208.851 251.532 203.141 249.533 193.286L241.04 203.975L241.471 220.29L241.914 223.182Z" fill="black"/>
</g>
</g>
<path d="M228.731 187.748C228.491 192.384 225.973 221.241 226.332 229.634C226.693 238.027 228.331 257.776 228.331 257.776C228.331 257.776 233.766 260.019 236.884 257.776C236.884 257.776 238.199 249.995 239.064 243.836C239.709 239.239 239.198 236.014 238.738 234.27C238.435 233.119 238.443 231.915 238.743 230.763L244.868 207.253C244.868 207.253 250.154 203.541 250.154 193.287V185.59L228.731 187.748Z" fill="#D268CC"/>
<g opacity="0.600006">
<g opacity="0.600006">
<path opacity="0.600006" d="M228.731 187.748C228.491 192.384 225.973 221.241 226.332 229.634C226.693 238.027 228.331 257.776 228.331 257.776C228.331 257.776 233.766 260.019 236.884 257.776C236.884 257.776 238.199 249.995 239.064 243.836C239.709 239.239 239.198 236.014 238.738 234.27C238.435 233.119 238.443 231.915 238.743 230.763L244.868 207.253C244.868 207.253 250.154 203.541 250.154 193.287V185.59L228.731 187.748Z" fill="black"/>
</g>
</g>
<path d="M243.439 155.646L232.45 159.691C232.45 159.691 227.291 164.167 227.291 172.721C227.291 175.12 229.609 177.277 229.609 177.277C229.609 177.277 228.81 184.79 228.731 187.748C228.731 187.748 234.363 191.707 244.867 190.146C248.634 189.586 252.152 186.949 252.152 186.949C252.152 186.949 250.553 180.314 250.313 179.675C250.074 179.035 252.551 171.281 252.551 165.126L243.439 155.646Z" fill="#375A64"/>
<path d="M233.708 140.99C233.708 140.99 234.148 144.869 236.625 145.925C236.625 145.925 234.663 148.62 237.58 149.799L237.582 147.717L238.801 150.098C238.801 150.098 235.365 164.007 241.32 164.007C242.559 164.007 243.599 163.527 244.158 163.008C244.158 163.008 245.077 166.645 250.593 166.645C256.108 166.645 257.147 161.249 257.147 161.249C257.147 161.249 253.471 162.369 253.471 158.532C253.471 154.695 253.191 142.385 252.991 140.506C252.791 138.628 250.673 133.732 244.798 133.032C240.505 132.522 234.925 132.553 231.728 136.989C228.531 141.425 233.109 142.67 233.109 142.67C233.109 142.67 233.17 142.513 233.708 140.99Z" fill="#1A2E35"/>
<path d="M237.582 147.717C237.582 147.717 237.395 144.325 240.022 144.585C243.039 144.884 242.08 150.339 238.403 150.339L237.582 147.717Z" fill="#FFAAA8"/>
<path d="M254.372 137.382C253.338 135.946 252.435 135.15 251.616 134.735C250.116 133.975 248.339 134.726 247.602 136.238C247.152 137.162 246.987 138.249 247.221 139.388C247.581 141.141 248.946 142.577 250.673 143.048C250.955 143.125 251.234 143.176 251.508 143.203C253.102 143.36 254.495 142.321 254.908 140.773C255.009 140.392 255.068 139.993 255.077 139.582C255.096 138.796 254.832 138.021 254.372 137.382Z" fill="#D268CC"/>
<path d="M256.628 138.174C256.628 140.563 254.691 142.5 252.301 142.5C249.912 142.5 247.975 140.563 247.975 138.174C247.975 135.784 249.912 133.847 252.301 133.847C254.691 133.847 256.628 135.784 256.628 138.174Z" fill="#1A2E35"/>
<path d="M232.45 159.691C232.45 159.691 236.165 160.25 236.165 165.206C236.165 170.163 227.052 172.401 222.735 173.999C220.241 174.923 216.946 176.22 214.608 177.151C212.777 177.88 210.698 177.522 209.218 176.22C206.253 173.609 201.166 168.777 196.931 162.968C196.931 162.968 191.72 161.129 191.88 156.013C192.04 150.897 195.173 149.487 195.173 149.487V151.189C195.173 152.316 195.696 153.379 196.588 154.067L197.629 154.87C198.124 155.251 198.847 155.046 199.062 154.459C199.421 153.478 200.053 152.2 200.993 151.777C202.591 151.058 202.032 154.159 201.632 155.646C201.232 157.133 201.312 158.252 201.312 158.252L212.983 168.563C212.983 168.563 225.739 161.816 232.45 159.691Z" fill="#FFAAA8"/>
<path d="M235.78 268.006C235.78 268.006 233.127 268.324 231.848 270.882C230.569 273.44 228.171 280.634 225.933 278.235L226.692 276.229C226.692 276.229 217.748 278.186 219.881 280.529C222.015 282.872 228.73 283.911 229.29 283.112C229.85 282.312 232.887 276.557 232.887 276.557L234.565 284.23C234.565 284.23 235.285 284.95 236.324 284.23C236.324 284.23 238.513 269.526 235.78 268.006Z" fill="#D268CC"/>
<path d="M265.741 272.4C265.741 272.4 267.82 271.521 267.499 268.803C267.179 266.085 265.107 260.674 267.82 258.772C269.018 257.932 271.693 261.609 273.953 266.005C276.212 270.402 276.852 271.681 276.852 271.681C276.852 271.681 276.601 272.855 275.573 272.799L270.617 267.684C270.617 267.684 270.057 270.002 270.776 272.4C271.496 274.798 271.593 276.191 268.984 277.356C266.375 278.522 259.221 280.107 263.043 275.278C264.941 272.88 265.741 272.4 265.741 272.4Z" fill="#D268CC"/>
<path d="M73.7844 285.644L74.4239 292.255C74.4239 292.255 75.1388 293.613 78.4206 293.613C81.7025 293.613 80.9786 290.815 80.9786 290.815L81.2996 285.644H73.7844Z" fill="#FFAAA8"/>
<path d="M83.6364 218.754C83.6364 222.191 83.3195 255.676 83.2974 257.923C83.2966 258.005 83.2941 258.081 83.2884 258.162C83.1565 260.025 81.532 282.983 81.2994 285.644C81.2994 285.644 77.3814 288.626 73.7843 285.644C73.7843 285.644 72.8254 277.547 72.5053 275.148C72.1859 272.75 70.9839 262.023 72.5053 258.521L68.5888 238.218V221.92L83.6364 218.754Z" fill="#2B454E"/>
<path d="M79.2013 223.897C79.2013 223.897 78.3407 229.025 72.5057 231.823L69.9215 245.129L68.5884 238.937V224.389L79.2013 223.897Z" fill="#1A2E35"/>
<path d="M48.6847 290.815L48.0452 295.692C48.0452 295.692 49.759 300.159 54.9774 298.006L55.9387 292.894L48.6847 290.815Z" fill="#FFAAA8"/>
<path d="M55.9386 219.353C55.5792 223.191 54.5204 232.943 54.12 245.572C53.7204 258.202 53.7204 258.123 53.7204 258.123C53.7204 258.123 51.3106 263.144 50.8103 267.874C50.31 272.604 48.6846 290.815 48.6846 290.815C48.6846 290.815 51.2025 293.933 55.9386 292.894L65.5819 262.605C65.8448 261.78 66.0446 260.936 66.1805 260.08L70.9068 230.305C70.9068 230.305 79.1401 229.185 80.9791 218.554L55.9386 219.353Z" fill="#2B454E"/>
<path d="M86.2744 195.792L95.5574 203.226V192.434L92.2698 189.078L86.2744 195.792Z" fill="#FF9090"/>
<path d="M77.2217 178.946C77.2217 178.946 80.4798 178.526 83.3465 180.804C86.2141 183.082 92.2693 189.078 92.2693 189.078C92.2693 189.078 91.9098 194.053 86.2747 195.792L80.339 191.536L77.2217 178.946Z" fill="#D268CC"/>
<g opacity="0.199997">
<g opacity="0.199997">
<path opacity="0.199997" d="M77.2217 178.946C77.2217 178.946 80.4798 178.526 83.3465 180.804C86.2141 183.082 92.2693 189.078 92.2693 189.078C92.2693 189.078 91.9098 194.053 86.2747 195.792L80.339 191.536L77.2217 178.946Z" fill="white"/>
</g>
</g>
<path d="M65.1637 179.006C65.1637 179.006 59.0568 179.615 56.2982 180.215L55.2796 191.236C55.2796 191.236 57.4315 203.485 57.4315 205.244C57.4315 207.003 55.9388 219.353 55.9388 219.353C55.9388 219.353 60.1565 222.111 72.4258 222.111C78.5408 222.111 83.6364 218.754 83.6364 218.754V194.269C83.6364 189.497 81.7785 182.003 77.2217 178.946H73.4715L65.1637 179.006Z" fill="#D268CC"/>
<g opacity="0.199997">
<g opacity="0.199997">
<path opacity="0.199997" d="M65.1637 179.006C65.1637 179.006 59.0568 179.615 56.2982 180.215L55.2796 191.236C55.2796 191.236 57.4315 203.485 57.4315 205.244C57.4315 207.003 55.9388 219.353 55.9388 219.353C55.9388 219.353 60.1565 222.111 72.4258 222.111C78.5408 222.111 83.6364 218.754 83.6364 218.754V194.269C83.6364 189.497 81.7785 182.003 77.2217 178.946H73.4715L65.1637 179.006Z" fill="black"/>
</g>
</g>
<path d="M99.0745 212.642L95.5577 211.124V174.71L99.0745 176.228V212.642Z" fill="#D268CC"/>
<g opacity="0.600006">
<g opacity="0.600006">
<path opacity="0.600006" d="M99.0745 212.642L95.5577 211.124V174.71L99.0745 176.228V212.642Z" fill="black"/>
</g>
</g>
<path d="M181.218 128.703L99.0744 176.229L95.5575 174.71L177.701 127.185L181.218 128.703Z" fill="#D268CC"/>
<g opacity="0.399994">
<g opacity="0.399994">
<path opacity="0.399994" d="M181.218 128.703L99.0744 176.229L95.5575 174.71L177.701 127.185L181.218 128.703Z" fill="black"/>
</g>
</g>
<path d="M181.218 165.117L99.0744 212.643V176.229L181.218 128.703V165.117Z" fill="#D268CC"/>
<g opacity="0.300003">
<g opacity="0.300003">
<path opacity="0.300003" d="M181.218 165.117L99.0744 212.643V176.229L181.218 128.703V165.117Z" fill="black"/>
</g>
</g>
<path d="M121.434 188.671C119.958 189.523 118.62 189.929 117.42 189.889C116.233 189.826 115.295 189.34 114.606 188.432C113.93 187.5 113.592 186.206 113.592 184.55C113.592 182.893 113.93 181.217 114.606 179.52C115.295 177.8 116.233 176.231 117.42 174.814C118.62 173.372 119.965 172.221 121.454 171.361C122.71 170.637 123.841 170.238 124.848 170.167C125.868 170.087 126.724 170.326 127.413 170.883L125.262 174.419C124.282 173.679 123.068 173.727 121.62 174.563C120.723 175.08 119.923 175.773 119.22 176.641C118.516 177.493 117.965 178.441 117.565 179.484C117.178 180.52 116.985 181.555 116.985 182.59C116.985 183.626 117.178 184.438 117.565 185.027C117.965 185.609 118.516 185.927 119.22 185.983C119.923 186.023 120.723 185.784 121.62 185.266C123.068 184.43 124.282 183.068 125.262 181.181L127.413 182.232C126.724 183.602 125.868 184.836 124.848 185.935C123.827 187.034 122.689 187.946 121.434 188.671ZM134.315 181.234C133.17 181.895 132.059 182.361 130.983 182.632C129.921 182.879 129.066 182.903 128.418 182.703L129.556 179.132C130.176 179.299 130.914 179.295 131.77 179.12C132.625 178.944 133.48 178.61 134.335 178.116C135.287 177.567 135.991 177.001 136.446 176.42C136.901 175.823 137.129 175.253 137.129 174.712C137.129 174.313 136.991 174.067 136.715 173.971C136.453 173.852 136.108 173.836 135.68 173.923C135.266 174.003 134.701 174.154 133.984 174.377C132.88 174.712 131.977 174.931 131.273 175.034C130.57 175.138 129.963 175.002 129.452 174.628C128.956 174.246 128.707 173.497 128.707 172.382C128.707 171.411 128.935 170.403 129.39 169.36C129.845 168.301 130.528 167.277 131.439 166.29C132.363 165.294 133.487 164.414 134.811 163.65C135.735 163.116 136.639 162.722 137.522 162.467C138.405 162.212 139.177 162.133 139.839 162.228L138.805 165.764C137.467 165.661 136.129 165.995 134.791 166.768C133.853 167.309 133.156 167.887 132.701 168.5C132.259 169.105 132.039 169.694 132.039 170.268C132.039 170.841 132.294 171.124 132.804 171.116C133.328 171.084 134.122 170.897 135.184 170.554C136.287 170.22 137.191 170.001 137.894 169.897C138.598 169.794 139.198 169.925 139.694 170.292C140.205 170.65 140.46 171.387 140.46 172.502C140.46 173.457 140.225 174.469 139.756 175.536C139.301 176.579 138.611 177.599 137.687 178.594C136.763 179.59 135.639 180.47 134.315 181.234ZM147.509 173.616C146.364 174.277 145.254 174.743 144.178 175.014C143.116 175.261 142.26 175.285 141.612 175.086L142.75 171.514C143.371 171.681 144.109 171.677 144.964 171.502C145.819 171.327 146.675 170.992 147.53 170.498C148.482 169.949 149.185 169.383 149.64 168.802C150.095 168.205 150.323 167.635 150.323 167.094C150.323 166.696 150.185 166.449 149.909 166.353C149.647 166.234 149.302 166.218 148.875 166.305C148.461 166.385 147.895 166.536 147.178 166.759C146.075 167.094 145.171 167.313 144.468 167.416C143.764 167.52 143.157 167.385 142.647 167.01C142.15 166.628 141.902 165.879 141.902 164.764C141.902 163.793 142.129 162.785 142.585 161.742C143.04 160.683 143.723 159.66 144.633 158.672C145.557 157.676 146.681 156.796 148.006 156.032C148.93 155.498 149.833 155.104 150.716 154.849C151.599 154.594 152.371 154.515 153.034 154.61L151.999 158.146C150.661 158.043 149.323 158.377 147.985 159.15C147.047 159.691 146.35 160.269 145.895 160.882C145.454 161.487 145.233 162.077 145.233 162.65C145.233 163.223 145.488 163.506 145.999 163.498C146.523 163.466 147.316 163.279 148.378 162.937C149.482 162.602 150.385 162.383 151.089 162.28C151.792 162.176 152.392 162.308 152.889 162.674C153.399 163.032 153.654 163.769 153.654 164.884C153.654 165.84 153.42 166.851 152.951 167.918C152.496 168.961 151.806 169.981 150.882 170.976C149.957 171.972 148.833 172.852 147.509 173.616Z" fill="white"/>
<path d="M80.9188 155.774C80.9188 155.774 85.6934 159.965 81.5444 169.305L76.6895 156.678L80.9188 155.774Z" fill="#1A2E35"/>
<path d="M65.1636 179.006C65.1636 179.006 66.8111 183.382 71.3678 183.382C75.9238 183.382 73.4714 178.946 73.4714 178.946L65.1636 179.006Z" fill="#FFAAA8"/>
<path d="M65.1636 179.006L73.4714 178.946V166.246H65.1636V179.006Z" fill="#FFAAA8"/>
<path d="M73.4718 178.434C70.407 177.252 66.5151 175.286 66.5151 173.41L65.5063 167.098H73.4718V178.434Z" fill="#FF9090"/>
<path d="M71.5607 153.186C74.4912 153.186 80.72 154.819 81.4382 162.484C82.1571 170.149 81.0361 176.667 77.507 176.667C70.5781 176.667 63.9267 175.787 63.8719 164.45C63.8236 154.451 68.703 153.186 71.5607 153.186Z" fill="#FFAAA8"/>
<path d="M65.1711 171.165L66.3003 167.702C66.6778 168.022 67.2575 167.753 67.2575 167.258V161.082C67.2575 161.082 70.1365 160.266 69.8319 157.843C69.8319 157.843 71.3042 159.16 76.9581 159.16C82.6113 159.16 83.9845 154.37 83.4187 151.705C83.4187 151.705 82.369 152.786 79.3811 152.786C76.3923 152.786 63.9552 149.032 63.6317 156.547C63.6317 156.547 62.582 155.008 60.8862 156.547L63.0668 157.843C63.0668 157.843 60.4817 157.762 60.8862 161.558C61.2039 164.548 62.451 170.223 62.9669 172.497C63.1085 173.126 63.486 173.675 64.0215 174.035L65.1711 174.807V171.165Z" fill="#1A2E35"/>
<path d="M75.9642 164.785V169.305L78.6107 168.492L75.9642 164.785Z" fill="#FF9090"/>
<path d="M71.2635 165.566C71.2635 166.075 71.6754 166.487 72.1847 166.487C72.6932 166.487 73.1059 166.075 73.1059 165.566C73.1059 165.058 72.6932 164.645 72.1847 164.645C71.6754 164.645 71.2635 165.058 71.2635 165.566Z" fill="#1A2E35"/>
<path d="M78.1556 164.924C78.1556 165.433 78.5675 165.845 79.0768 165.845C79.5853 165.845 79.998 165.433 79.998 164.924C79.998 164.416 79.5853 164.003 79.0768 164.003C78.5675 164.003 78.1556 164.416 78.1556 164.924Z" fill="#1A2E35"/>
<path d="M80.1987 163.006L78.3981 161.937C78.3981 161.937 79.0892 161.219 79.777 161.65C80.4648 162.082 80.1987 163.006 80.1987 163.006Z" fill="#1A2E35"/>
<path d="M70.3129 163.671L72.1135 162.602C72.1135 162.602 71.4216 161.883 70.7346 162.315C70.0459 162.746 70.3129 163.671 70.3129 163.671Z" fill="#1A2E35"/>
<path d="M77.2093 171.137C77.2093 171.137 75.7469 171.271 74.7291 170.472C74.7291 170.472 74.5596 171.779 75.6535 172.029C76.7483 172.279 77.2093 171.137 77.2093 171.137Z" fill="#FF9090"/>
<path d="M65.8516 166.41C66.8948 168.217 66.6271 170.413 65.1712 171.165C64.2353 171.649 61.4742 170.607 60.431 168.8C59.387 166.992 59.9741 165.441 61.3931 164.621C62.8121 163.802 64.8084 164.603 65.8516 166.41Z" fill="#FFAAA8"/>
<path d="M66.3786 167.756L63.1909 164.3L65.4812 162.924L66.3786 167.756Z" fill="#182E36"/>
<path d="M71.1064 193.394L75.483 198.251C75.483 198.251 79.0646 197.748 83.2168 197.531C86.7493 197.346 92.9887 195.822 92.9887 195.822C92.9887 195.822 93.8092 192.315 95.5574 190.936V193.677C95.5574 193.677 97.9123 194.479 99.0742 193.335C101.082 191.356 102.869 189.539 102.87 193.677C102.872 199.45 100.452 201.787 93.7822 201.668C93.7822 201.668 77.0421 208.682 73.0249 207.902C70.6118 207.434 63.8229 201.068 63.8229 201.068L71.1064 193.394Z" fill="#FFAAA8"/>
<path d="M53.1194 181.811C55.9387 178.946 59.1591 180.284 61.9767 183.101C64.7951 185.92 71.1066 193.394 71.1066 193.394C71.1066 193.394 70.4671 199.224 63.8231 201.068C63.8231 201.068 54.8668 191.746 53.7205 190.475C51.648 188.178 50.4271 184.546 53.1194 181.811Z" fill="#D268CC"/>
<g opacity="0.199997">
<g opacity="0.199997">
<path opacity="0.199997" d="M53.1194 181.811C55.9387 178.946 59.1591 180.284 61.9767 183.101C64.7951 185.92 71.1066 193.394 71.1066 193.394C71.1066 193.394 70.4671 199.224 63.8231 201.068C63.8231 201.068 54.8668 191.746 53.7205 190.475C51.648 188.178 50.4271 184.546 53.1194 181.811Z" fill="white"/>
</g>
</g>
<path d="M112.513 204.885C112.513 204.885 112.62 201.931 115.03 200.093C118.808 197.217 118.651 200.068 118.744 201.281C118.837 202.492 115.244 206.686 111.315 205.579L112.513 204.885Z" fill="#FFAAA8"/>
<path d="M48.045 295.692C48.045 295.692 48.3816 296.448 48.8794 296.903C49.2241 297.22 49.7867 296.985 49.844 296.52C49.916 295.943 50.1543 295.421 50.6432 295.213C51.2024 294.973 55.7191 294.892 55.7584 295.811C55.7985 296.732 55.5651 297.864 55.5651 297.864C55.5651 297.864 56.2857 304.069 57.6777 306.524C59.0689 308.978 61.3149 312.958 56.5584 314.117C51.8018 315.276 48.2047 312.758 48.045 309.4C47.8853 306.044 47.9648 303.686 47.6454 303.086C47.3261 302.486 45.6467 302.206 46.287 299.129C46.9257 296.051 47.0174 294.194 48.2505 294.124L48.045 295.692Z" fill="#375A64"/>
<path d="M51.2835 301.396C51.1476 301.396 51.0141 301.333 50.9314 301.214C50.7955 301.02 50.8413 300.753 51.0346 300.617C51.1263 300.553 53.3044 299.051 56.1121 300.295C56.3291 300.391 56.4274 300.645 56.3316 300.862C56.2358 301.079 55.9844 301.177 55.7649 301.08C53.4149 300.04 51.6053 301.267 51.5283 301.319C51.4538 301.372 51.3687 301.396 51.2835 301.396Z" fill="#ECECEC"/>
<path d="M51.9932 304.405C51.8573 304.405 51.7246 304.342 51.6411 304.223C51.5052 304.029 51.551 303.762 51.7443 303.626C51.8352 303.562 54.0141 302.06 56.8218 303.304C57.0388 303.4 57.1371 303.654 57.0413 303.871C56.9455 304.088 56.6908 304.183 56.4746 304.089C54.123 303.048 52.3142 304.275 52.2389 304.328C52.1635 304.381 52.0784 304.405 51.9932 304.405Z" fill="#ECECEC"/>
<path d="M53.0979 307.414C52.9628 307.414 52.8301 307.351 52.7466 307.232C52.6099 307.038 52.6557 306.771 52.8498 306.634C52.9415 306.569 55.1196 305.067 57.9282 306.312C58.1451 306.408 58.2426 306.662 58.1468 306.879C58.0518 307.096 57.7996 307.193 57.5802 307.097C55.2129 306.05 53.3632 307.323 53.3452 307.336C53.2698 307.389 53.1831 307.414 53.0979 307.414Z" fill="#ECECEC"/>
<path d="M74.4238 292.255C74.4238 292.255 75.9828 293.318 77.3019 293.106C77.3019 293.106 76.8221 291.215 78.2207 290.576C79.62 289.937 81.8579 289.097 82.2976 289.856C82.7373 290.616 82.8167 292.575 82.8167 292.575C82.8167 292.575 86.1543 295.599 88.6222 296.445C91.0902 297.291 94.3139 298.17 94.0478 300.448C93.7825 302.726 90.0511 306.044 85.0554 303.766C80.0589 301.487 79.1418 301.408 77.5427 301.168C75.9427 300.928 72.945 301.047 73.0645 298.37C73.1849 295.691 72.963 291.266 74.2927 290.901L74.4238 292.255Z" fill="#375A64"/>
<path d="M80.1643 296.346C80.1144 296.346 80.0644 296.337 80.0153 296.319C79.7934 296.237 79.6804 295.991 79.7615 295.769C79.7983 295.668 80.6998 293.296 83.5862 292.957C83.822 292.926 84.0357 293.098 84.0628 293.333C84.0906 293.569 83.9219 293.783 83.6869 293.81C81.3377 294.086 80.5975 295.986 80.5672 296.066C80.5025 296.238 80.3387 296.346 80.1643 296.346Z" fill="#ECECEC"/>
<path d="M82.7236 298.035C82.6777 298.035 82.631 298.028 82.5852 298.012C82.3608 297.936 82.2405 297.691 82.3166 297.468C82.351 297.367 83.1911 294.997 86.0382 294.646C86.2724 294.616 86.4877 294.785 86.5172 295.02C86.5459 295.255 86.3788 295.47 86.143 295.499C83.8241 295.785 83.1363 297.725 83.1305 297.745C83.0691 297.923 82.9021 298.035 82.7236 298.035Z" fill="#ECECEC"/>
<path d="M85.9449 299.368C85.9187 299.368 85.8917 299.365 85.8655 299.36C85.6329 299.317 85.479 299.094 85.5224 298.862C85.7009 297.888 86.6843 296.054 89.036 296.136C89.2726 296.143 89.4593 296.342 89.4527 296.579C89.4454 296.815 89.2562 297.017 89.0106 296.995C86.7883 296.952 86.383 298.933 86.3666 299.018C86.3273 299.223 86.1471 299.368 85.9449 299.368Z" fill="#ECECEC"/>
<path d="M142.768 31.1295L135.807 35.0901V32.6271C135.817 32.4511 135.829 32.2758 135.829 32.1031C135.829 31.9311 135.817 31.7682 135.807 31.606V31.5479L135.804 31.5487C135.553 28.2832 133.081 27.0313 130.062 28.7745C128.777 29.5164 127.594 30.6914 126.634 32.067C125.954 27.6315 122.335 26.0306 117.962 28.5559C113.103 31.3612 109.164 38.1828 109.164 43.7934L109.16 49.0724C109.159 49.9224 108.708 50.7084 107.975 51.1391L103.88 53.5416C102.073 54.602 100.963 56.5401 100.963 58.6347C100.963 60.5065 102.99 61.6766 104.611 60.7407L142.663 38.7585C144.719 37.5704 145.986 35.3759 145.986 33.0013C145.986 31.3497 144.204 30.3123 142.768 31.1295Z" fill="#E7E7E7"/>
<path d="M79.571 39.3178L74.4205 42.2475V40.4256C74.4287 40.2954 74.4369 40.1652 74.4369 40.0375C74.4369 39.9106 74.4287 39.7902 74.4205 39.6699V39.6265L74.4189 39.6273C74.233 37.2117 72.4046 36.2856 70.1716 37.5753C69.2202 38.1239 68.3457 38.9935 67.6357 40.0105C67.1322 36.7294 64.4562 35.5454 61.2202 37.414C57.6264 39.4889 54.7122 44.5353 54.7122 48.6851L54.7089 52.5901C54.7089 53.2198 54.3748 53.8012 53.8328 54.1197L50.8031 55.8965C49.4668 56.681 48.6455 58.1147 48.6455 59.6648C48.6455 61.0494 50.1448 61.9149 51.3444 61.2222L79.4932 44.9611C81.0145 44.0825 81.9513 42.4588 81.9513 40.7016C81.9513 39.4799 80.633 38.7135 79.571 39.3178Z" fill="#E7E7E7"/>
</svg>
