<svg width="100" height="100" viewBox="0 0 100 100" fill="none" xmlns="http://www.w3.org/2000/svg">
<circle cx="50" cy="50" r="50" fill="#E4E8F3"/>
<path d="M60.7591 30.1606C60.8353 30.2862 60.9359 30.3952 61.0551 30.4811C61.1742 30.567 61.3095 30.6281 61.4527 30.6607C61.5959 30.6932 61.7443 30.6966 61.8889 30.6707C62.0335 30.6447 62.1713 30.59 62.2943 30.5096C62.4173 30.4293 62.5229 30.325 62.6047 30.203C62.6865 30.081 62.743 29.9438 62.7707 29.7995C62.7984 29.6552 62.7968 29.5069 62.766 29.3633C62.7351 29.2196 62.6757 29.0837 62.5912 28.9635C61.1373 26.7672 59.1565 24.9699 56.8296 23.7357C54.5028 22.5015 51.9039 21.8697 49.2701 21.8978C48.9797 21.8978 48.7012 22.0131 48.4959 22.2185C48.2905 22.4238 48.1752 22.7023 48.1752 22.9927C48.1752 23.2831 48.2905 23.5615 48.4959 23.7669C48.7012 23.9722 48.9797 24.0876 49.2701 24.0876C51.5399 24.0598 53.7806 24.6011 55.7875 25.6619C57.7944 26.7228 59.5036 28.2694 60.7591 30.1606Z" fill="#D268CC"/>
<path d="M70.8029 37.4598C70.8029 26.0511 61.1533 16.7883 49.2701 16.7883C37.3869 16.7883 27.7372 26.0511 27.7372 37.4598C27.7818 41.3093 28.8981 45.0702 30.961 48.3206C33.0239 51.571 35.9518 54.1822 39.4161 55.8613V64.9635H37.5912C37.3009 64.9635 37.0224 65.0788 36.817 65.2842C36.6117 65.4895 36.4964 65.768 36.4964 66.0584V76.2774C36.4964 76.5677 36.6117 76.8462 36.817 77.0516C37.0224 77.2569 37.3009 77.3722 37.5912 77.3722H40.5547C40.9562 81.6569 44.8759 85.0365 49.635 85.0365C54.3942 85.0365 58.3139 81.6569 58.7153 77.3722H61.6788C61.9692 77.3722 62.2477 77.2569 62.453 77.0516C62.6584 76.8462 62.7737 76.5677 62.7737 76.2774V66.0584C62.7737 65.768 62.6584 65.4895 62.453 65.2842C62.2477 65.0788 61.9692 64.9635 61.6788 64.9635H59.1241V55.8613C62.5884 54.1822 65.5162 51.571 67.5791 48.3206C69.642 45.0702 70.7584 41.3093 70.8029 37.4598ZM49.635 82.8467C46.0876 82.8467 43.1606 80.4525 42.7591 77.3722H56.5182C56.1095 80.4525 53.1825 82.8467 49.635 82.8467ZM60.5839 75.1825H38.6861V67.1533H60.5839V75.1825ZM47.635 64.854L45.0292 39.1898C46.2805 40.0283 47.7528 40.476 49.2591 40.476C50.7654 40.476 52.2377 40.0283 53.489 39.1898L50.781 64.8467C50.7789 64.8856 50.7789 64.9246 50.781 64.9635H47.635C47.6369 64.927 47.6369 64.8905 47.635 64.854ZM52.9708 64.9635L56.0949 35.4087C56.1682 35.0459 56.2048 34.6767 56.2044 34.3065C56.2048 34.026 56.0975 33.756 55.9046 33.5523C55.7117 33.3485 55.448 33.2266 55.1679 33.2117C54.8859 33.1914 54.6072 33.2824 54.3916 33.4653C54.1759 33.6481 54.0406 33.9082 54.0146 34.1898L53.927 35.0365C53.5037 36.8759 51.5766 38.2628 49.2701 38.2628C46.9635 38.2628 45.0146 36.8905 44.6058 35.0365L44.5255 34.1971C44.511 33.9067 44.3817 33.634 44.1662 33.4389C43.9506 33.2438 43.6663 33.1424 43.3759 33.1569C43.0855 33.1714 42.8128 33.3007 42.6177 33.5163C42.4227 33.7319 42.3212 34.0162 42.3358 34.3065C42.3359 34.6618 42.3701 35.0162 42.438 35.3649L45.4453 64.9635H41.6058V55.1679C41.6064 54.957 41.5461 54.7505 41.4322 54.5731C41.3182 54.3957 41.1555 54.255 40.9635 54.1679C37.7186 52.7301 34.9541 50.3918 32.9979 47.4304C31.0418 44.469 29.976 41.0087 29.927 37.4598C29.927 27.2628 38.5985 18.9781 49.2701 18.9781C59.9416 18.9781 68.6131 27.2628 68.6131 37.4598C68.5655 41.0099 67.5004 44.4718 65.5442 47.4347C63.5879 50.3975 60.8227 52.7369 57.5766 54.1752C57.3858 54.2618 57.2238 54.4014 57.11 54.5773C56.9961 54.7533 56.9351 54.9583 56.9343 55.1679V64.9635H52.9708Z" fill="#D268CC"/>
</svg>
