<svg width="100" height="106" viewBox="0 0 100 106" fill="none" xmlns="http://www.w3.org/2000/svg">
<circle cx="50" cy="56" r="50" fill="#E4E8F3"/>
<path d="M67.75 58.5312V59.5312H68.75V58.5312H67.75ZM62.25 58.5312V57.5312H61.25V58.5312H62.25ZM62.25 68V69H63.25V68H62.25ZM52.8125 68H51.8125V69H52.8125V68ZM52.8125 58.5312H53.8125V57.5312H52.8125V58.5312ZM33.3125 58.5312H32.3125V59.5312H33.3125V58.5312ZM33.3125 51.8125L32.4852 51.2507L32.3125 51.5051V51.8125H33.3125ZM53.3438 22.3125V21.3125H52.814L52.5164 21.7507L53.3438 22.3125ZM62.25 22.3125H63.25V21.3125H62.25V22.3125ZM62.25 51.0312H61.25V52.0312H62.25V51.0312ZM67.75 51.0312H68.75V50.0312H67.75V51.0312ZM52.8125 51.0312V52.0312H53.8125V51.0312H52.8125ZM53.2188 33.375L54.2065 33.531L54.389 32.375H53.2188V33.375ZM52.9688 33.375V32.375H52.3229L52.0572 32.9637L52.9688 33.375ZM50.1875 38.375L49.3554 37.8203L49.3536 37.8232L50.1875 38.375ZM41.8125 51.0312L40.9786 50.4794L39.9517 52.0312H41.8125V51.0312ZM67.75 57.5312H62.25V59.5312H67.75V57.5312ZM61.25 58.5312V68H63.25V58.5312H61.25ZM62.25 67H52.8125V69H62.25V67ZM53.8125 68V58.5312H51.8125V68H53.8125ZM52.8125 57.5312H33.3125V59.5312H52.8125V57.5312ZM34.3125 58.5312V51.8125H32.3125V58.5312H34.3125ZM34.1398 52.3743L54.1711 22.8743L52.5164 21.7507L32.4852 51.2507L34.1398 52.3743ZM53.3438 23.3125H62.25V21.3125H53.3438V23.3125ZM61.25 22.3125V51.0312H63.25V22.3125H61.25ZM62.25 52.0312H67.75V50.0312H62.25V52.0312ZM66.75 51.0312V58.5312H68.75V51.0312H66.75ZM53.8125 51.0312V43.2812H51.8125V51.0312H53.8125ZM53.8125 43.2812C53.8125 42.0111 53.8639 40.153 53.9679 37.6986L51.9696 37.6139C51.8653 40.0762 51.8125 41.968 51.8125 43.2812H53.8125ZM53.9679 37.6986C54.0736 35.2037 54.1554 33.8544 54.2065 33.531L52.231 33.219C52.1571 33.6872 52.0723 35.1922 51.9696 37.6139L53.9679 37.6986ZM53.2188 32.375H52.9688V34.375H53.2188V32.375ZM52.0572 32.9637C51.3098 34.6201 50.4097 36.2389 49.3554 37.8203L51.0196 38.9297C52.132 37.2611 53.086 35.5466 53.8803 33.7863L52.0572 32.9637ZM49.3536 37.8232L40.9786 50.4794L42.6464 51.5831L51.0214 38.9268L49.3536 37.8232ZM41.8125 52.0312H52.8125V50.0312H41.8125V52.0312Z" fill="#D268CC"/>
</svg>
