<svg width="100" height="106" viewBox="0 0 100 106" fill="none" xmlns="http://www.w3.org/2000/svg">
<circle cx="50" cy="56" r="50" fill="#E4E8F3"/>
<path d="M55.0625 43.9375L54.8291 42.9651L54.0625 43.1491V43.9375H55.0625ZM55.0625 44.125H54.0625V45.0084L54.9392 45.1174L55.0625 44.125ZM63.4375 47.5L62.7506 48.2268L62.7549 48.2308L63.4375 47.5ZM61.5 64.9688L62.1075 65.7631L62.1107 65.7606L61.5 64.9688ZM34.6562 66.1562H33.6562V66.8152L34.2617 67.0751L34.6562 66.1562ZM34.6562 57.9375L35.1077 57.0452L33.6562 56.3109V57.9375H34.6562ZM41.6875 48.2188H40.6875V49.2188H41.6875V48.2188ZM41.6875 40.8125V39.8125H40.6875V40.8125H41.6875ZM52.9688 39.4375L53.4601 40.3085L53.4637 40.3064L52.9688 39.4375ZM44.3438 30.2188L44.039 29.2663L44.0352 29.2675L44.3438 30.2188ZM39.1875 32.8125L38.3573 33.3699L38.9058 34.1869L39.7315 33.6516L39.1875 32.8125ZM34.7188 26.1562L34.1344 25.3447L33.3491 25.9102L33.8885 26.7136L34.7188 26.1562ZM60.8125 24.5312L60.2378 25.3496L60.2407 25.3516L60.8125 24.5312ZM63.9375 32.5312C63.9375 35.1659 63.1464 37.3552 61.5873 39.1585L63.1002 40.4665C64.9995 38.2698 65.9375 35.6049 65.9375 32.5312H63.9375ZM61.5873 39.1585C60.0222 40.9687 57.7954 42.2532 54.8291 42.9651L55.2959 44.9099C58.5796 44.1218 61.207 42.6563 63.1002 40.4665L61.5873 39.1585ZM54.0625 43.9375V44.125H56.0625V43.9375H54.0625ZM54.9392 45.1174C58.5021 45.5602 61.0629 46.6318 62.7506 48.2268L64.1244 46.7732C62.0204 44.7849 58.9979 43.6065 55.1858 43.1326L54.9392 45.1174ZM62.7549 48.2308C64.4146 49.781 65.2812 51.894 65.2812 54.6875H67.2812C67.2812 51.4394 66.2521 48.7606 64.1201 46.7692L62.7549 48.2308ZM65.2812 54.6875C65.2812 58.8061 63.8064 61.9271 60.8893 64.1769L62.1107 65.7606C65.5686 63.0937 67.2812 59.3605 67.2812 54.6875H65.2812ZM60.8925 64.1744C57.945 66.4284 53.6408 67.625 47.8438 67.625V69.625C53.8801 69.625 58.68 68.3841 62.1075 65.7631L60.8925 64.1744ZM47.8438 67.625C42.9959 67.625 38.7383 66.8206 35.0508 65.2374L34.2617 67.0751C38.2409 68.7836 42.7749 69.625 47.8438 69.625V67.625ZM35.6562 66.1562V57.9375H33.6562V66.1562H35.6562ZM34.2048 58.8298C36.0443 59.7604 38.0587 60.5132 40.2441 61.0917L40.7559 59.1583C38.6913 58.6118 36.8098 57.9063 35.1077 57.0452L34.2048 58.8298ZM40.2441 61.0917C42.448 61.6751 44.6382 61.9688 46.8125 61.9688V59.9688C44.8202 59.9688 42.802 59.6999 40.7559 59.1583L40.2441 61.0917ZM46.8125 61.9688C50.0763 61.9688 52.6824 61.421 54.4552 60.1582L53.2948 58.5293C52.0259 59.4331 49.9237 59.9688 46.8125 59.9688V61.9688ZM54.4552 60.1582C56.3125 58.8352 57.1562 56.7426 57.1562 54.125H55.1562C55.1562 56.299 54.4791 57.6856 53.2948 58.5293L54.4552 60.1582ZM57.1562 54.125C57.1562 52.9159 56.9091 51.8189 56.3668 50.8763C55.8216 49.9287 55.0125 49.1973 53.9869 48.6724L53.0756 50.4526C53.8 50.8235 54.3034 51.3004 54.6332 51.8737C54.9659 52.452 55.1562 53.1883 55.1562 54.125H57.1562ZM53.9869 48.6724C52.0166 47.6637 49.0248 47.2188 45.1562 47.2188V49.2188C48.9543 49.2188 51.5459 49.6696 53.0756 50.4526L53.9869 48.6724ZM45.1562 47.2188H41.6875V49.2188H45.1562V47.2188ZM42.6875 48.2188V40.8125H40.6875V48.2188H42.6875ZM41.6875 41.8125H45.2188V39.8125H41.6875V41.8125ZM45.2188 41.8125C48.8034 41.8125 51.6028 41.3562 53.4601 40.3085L52.4774 38.5665C51.0847 39.3522 48.7174 39.8125 45.2188 39.8125V41.8125ZM53.4637 40.3064C55.4857 39.1546 56.4375 37.1854 56.4375 34.6562H54.4375C54.4375 36.6271 53.7435 37.8454 52.4738 38.5686L53.4637 40.3064ZM56.4375 34.6562C56.4375 32.7055 55.8152 31.0845 54.4363 29.984C53.1004 28.9179 51.2106 28.4688 48.9375 28.4688V30.4688C50.9977 30.4688 52.358 30.8842 53.1887 31.5472C53.9764 32.1759 54.4375 33.1486 54.4375 34.6562H56.4375ZM48.9375 28.4688C47.3248 28.4688 45.6908 28.7377 44.039 29.2663L44.6485 31.1712C46.1217 30.6998 47.5502 30.4688 48.9375 30.4688V28.4688ZM44.0352 29.2675C42.3851 29.8027 40.5861 30.7139 38.6435 31.9734L39.7315 33.6516C41.5805 32.4528 43.2191 31.6348 44.6523 31.17L44.0352 29.2675ZM40.0177 32.2551L35.549 25.5989L33.8885 26.7136L38.3573 33.3699L40.0177 32.2551ZM35.3031 26.9678C39.2788 24.1053 44.0367 22.6562 49.625 22.6562V20.6562C43.6716 20.6562 38.4921 22.2072 34.1344 25.3447L35.3031 26.9678ZM49.625 22.6562C54.2314 22.6562 57.734 23.5912 60.2378 25.3496L61.3872 23.7129C58.4327 21.638 54.477 20.6562 49.625 20.6562V22.6562ZM60.2407 25.3516C62.7163 27.0771 63.9375 29.4341 63.9375 32.5312H65.9375C65.9375 28.7951 64.4087 25.8188 61.3843 23.7109L60.2407 25.3516Z" fill="#D268CC"/>
</svg>
