<svg width="345" height="400" viewBox="0 0 345 400" fill="none" xmlns="http://www.w3.org/2000/svg">
<path d="M344.231 302.228C344.231 356.226 267.172 400 172.115 400C77.0589 400 0 356.226 0 302.228C0 248.23 77.0589 204.456 172.115 204.456C267.172 204.456 344.231 248.23 344.231 302.228Z" fill="#E4E4E4"/>
<path d="M243.743 363.876L115.259 289.696C110.306 286.836 110.309 279.686 115.264 276.831L127.939 268.841C132.391 266.276 137.872 266.278 142.321 268.847L270.806 343.027C275.758 345.887 275.755 353.037 270.8 355.892L258.126 363.882C253.674 366.447 248.194 366.445 243.743 363.876Z" fill="#E0E0E0"/>
<path d="M76.275 280.24C76.275 289.082 63.7907 296.248 48.3899 296.248C32.99 296.248 20.5057 289.082 20.5057 280.24C20.5057 271.399 32.99 264.231 48.3899 264.231C63.7907 264.231 76.275 271.399 76.275 280.24Z" fill="#E6E6E6"/>
<path d="M289.294 299.917L301.53 306.95C301.53 306.95 295.282 287.322 298.61 267.533C299.867 260.063 302.563 256.344 303.512 254.348C304.462 252.352 311.763 239.984 305.26 234.329C298.757 228.673 283.613 240.052 284.434 270.502C284.854 286.129 289.294 299.917 289.294 299.917Z" fill="#BA68C8"/>
<g opacity="0.5">
<g opacity="0.5">
<path opacity="0.5" d="M289.294 299.917L301.53 306.95C301.53 306.95 295.282 287.322 298.61 267.533C299.867 260.063 302.563 256.344 303.512 254.348C304.462 252.352 311.763 239.984 305.26 234.329C298.757 228.673 283.613 240.052 284.434 270.502C284.854 286.129 289.294 299.917 289.294 299.917Z" fill="black"/>
</g>
</g>
<path d="M294.983 303.623C294.806 303.623 294.639 303.515 294.573 303.338C294.527 303.212 289.861 290.44 290.01 269.909C290.16 249.281 300.94 238.241 301.049 238.132C301.22 237.961 301.495 237.962 301.666 238.131C301.838 238.301 301.838 238.578 301.667 238.749C301.561 238.855 291.03 249.664 290.884 269.915C290.736 290.272 295.345 302.908 295.393 303.034C295.476 303.26 295.362 303.511 295.136 303.596C295.085 303.614 295.034 303.623 294.983 303.623Z" fill="white"/>
<path d="M294.397 302.92L311.117 312.49C314.739 314.563 319.476 313.669 321.79 310.197C322.748 308.761 323.337 306.869 323.108 304.389C322.306 295.709 318.533 293.706 323.157 289.833C327.782 285.96 328.984 285.693 328.717 281.954C328.449 278.215 325.912 276.612 324.71 275.143C323.508 273.675 320.17 270.603 322.44 266.063C324.71 261.523 327.806 257.126 323.108 255.113C320.304 253.91 315.63 255.513 312.559 258.852C309.487 262.191 306.949 264.595 304.012 265.395C301.074 266.196 294.931 266.33 295.198 271.404C295.465 276.479 296.804 278.217 295.599 280.485C293.328 284.758 283.446 287.162 294.397 302.92Z" fill="#BA68C8"/>
<path d="M302.662 308.088C302.44 308.088 302.249 307.918 302.228 307.691C302.2 307.392 299.657 277.416 320.267 257.469C320.441 257.303 320.717 257.307 320.884 257.48C321.053 257.653 321.048 257.93 320.875 258.097C300.562 277.755 303.07 307.314 303.098 307.611C303.12 307.851 302.944 308.063 302.704 308.086C302.689 308.088 302.676 308.088 302.662 308.088Z" fill="white"/>
<path d="M305.972 282.287C305.748 282.287 305.557 282.115 305.538 281.888C304.854 273.932 299.277 269.932 299.221 269.893C299.023 269.754 298.975 269.482 299.114 269.285C299.253 269.086 299.527 269.039 299.722 269.178C299.965 269.348 305.689 273.456 306.408 281.813C306.428 282.053 306.251 282.265 306.01 282.285C305.997 282.287 305.985 282.287 305.972 282.287Z" fill="white"/>
<path d="M304.546 287.433C304.444 287.433 304.34 287.398 304.257 287.324C304.077 287.165 304.058 286.89 304.217 286.709C304.43 286.466 309.586 280.769 321.693 282.283C321.932 282.314 322.102 282.532 322.072 282.772C322.042 283.011 321.815 283.175 321.584 283.151C309.966 281.693 304.924 287.23 304.873 287.286C304.787 287.384 304.667 287.433 304.546 287.433Z" fill="white"/>
<path d="M239.829 355.012L126.832 289.773C118.86 285.17 112.396 272.821 112.396 262.191V20.2266C112.396 9.59659 118.86 4.71048 126.832 9.3136L239.829 74.5529C247.802 79.156 254.264 91.505 254.264 102.135V344.099C254.264 354.729 247.802 359.615 239.829 355.012Z" fill="#455A64"/>
<path d="M252.84 66.9684L139.844 1.72906C136.434 -0.238831 133.304 -0.467682 130.834 0.742035V0.74118L130.832 0.74292C130.528 0.891418 130.235 1.06259 129.953 1.25388L117.292 8.61365C119.837 7.09296 123.174 7.20215 126.832 9.31418L239.829 74.5526C247.801 79.1557 254.265 91.5047 254.265 102.135V344.099C254.265 349.718 252.458 353.732 249.576 355.587L262.069 348.31L262.067 348.308C265.25 346.614 267.276 342.465 267.276 336.514V94.5504C267.276 83.9204 260.813 71.5715 252.84 66.9684Z" fill="#37474F"/>
<path d="M254.265 102.135V344.099C254.265 349.719 252.458 353.731 249.576 355.587L262.07 348.309L262.068 348.307C265.25 346.614 267.276 342.465 267.276 336.514V94.5505V94.5313L254.264 102.086C254.264 102.102 254.265 102.119 254.265 102.135Z" fill="#263238"/>
<path d="M267.276 113.334L254.265 120.847V126.713L267.276 119.201V113.334Z" fill="#37474F"/>
<path d="M261.576 152.372C260.411 153.044 259.468 152.331 259.468 150.779V138.16C259.468 136.608 260.411 134.805 261.576 134.134C262.739 133.461 263.682 134.175 263.682 135.726V148.346C263.682 149.898 262.739 151.7 261.576 152.372Z" fill="#37474F"/>
<path d="M259.468 150.779V138.16C259.468 136.608 260.411 134.805 261.576 134.133C262.082 133.84 262.542 133.824 262.905 134.012L262.908 133.997L261.335 133.18L261.332 133.193C260.962 132.985 260.49 132.993 259.965 133.296C258.802 133.968 257.858 135.771 257.858 137.323V149.942C257.858 150.78 258.139 151.361 258.575 151.624L258.572 151.637L260.224 152.499L260.228 152.484C259.768 152.235 259.468 151.643 259.468 150.779Z" fill="#455A64"/>
<path d="M261.576 182.92C260.411 183.593 259.468 182.879 259.468 181.327V168.708C259.468 167.156 260.411 165.353 261.576 164.682C262.739 164.009 263.682 164.723 263.682 166.275V178.894C263.682 180.446 262.739 182.248 261.576 182.92Z" fill="#37474F"/>
<path d="M259.468 181.327V168.708C259.468 167.156 260.411 165.353 261.576 164.681C262.082 164.388 262.542 164.372 262.905 164.56L262.908 164.545L261.335 163.729L261.332 163.742C260.962 163.532 260.49 163.542 259.965 163.844C258.802 164.517 257.858 166.319 257.858 167.871V180.49C257.858 181.327 258.139 181.91 258.575 182.173L258.572 182.185L260.224 183.047L260.228 183.032C259.768 182.783 259.468 182.192 259.468 181.327Z" fill="#455A64"/>
<path d="M235.9 81.3574L124.847 17.2291C122.806 16.0499 120.254 17.5234 120.254 19.8809V262.191C120.254 270.282 125.987 280.213 132.995 284.258L241.348 346.816C243.597 348.115 246.407 346.492 246.407 343.896V99.5558C246.407 92.8835 241.679 84.6939 235.9 81.3574Z" fill="#BA68C8"/>
<g opacity="0.899994">
<g opacity="0.899994">
<path opacity="0.899994" d="M235.9 81.3574L124.847 17.2291C122.806 16.0499 120.254 17.5234 120.254 19.8809V262.191C120.254 270.282 125.987 280.213 132.995 284.258L241.348 346.816C243.597 348.115 246.407 346.492 246.407 343.896V99.5558C246.407 92.8835 241.679 84.6939 235.9 81.3574Z" fill="white"/>
</g>
</g>
<path d="M158.054 33.9703L159.774 41.2165L196.582 62.4388L202.938 59.0516L158.054 33.9703Z" fill="#455A64"/>
<path d="M168.871 40.9716C168.871 42.1726 168.027 42.66 166.987 42.059C165.946 41.459 165.104 39.9977 165.104 38.7958C165.104 37.5948 165.946 37.1083 166.987 37.7083C168.027 38.3093 168.871 39.7706 168.871 40.9716Z" fill="#263238"/>
<path d="M193.67 56.2988C193.475 56.2988 193.278 56.2499 193.097 56.1486L174.295 45.6427C173.728 45.3256 173.524 44.6076 173.842 44.039C174.159 43.4704 174.878 43.2686 175.446 43.5857L194.245 54.0907C194.815 54.4087 195.017 55.1266 194.7 55.6944C194.485 56.0805 194.083 56.2988 193.67 56.2988Z" fill="#263238"/>
<path d="M127.647 121.941C130.8 118.075 132.693 113.141 132.693 107.763C132.693 95.3653 122.643 85.3153 110.245 85.3153C97.8473 85.3153 87.7973 95.3653 87.7973 107.763C87.7973 120.161 97.8473 130.211 110.245 130.211C114.456 130.211 118.394 129.049 121.762 127.032L132.693 131.78L127.647 121.941Z" fill="#BA68C8"/>
<g opacity="0.399994">
<g opacity="0.399994">
<path opacity="0.399994" d="M127.647 121.941C130.8 118.075 132.693 113.141 132.693 107.763C132.693 95.3653 122.643 85.3153 110.245 85.3153C97.8473 85.3153 87.7973 95.3653 87.7973 107.763C87.7973 120.161 97.8473 130.211 110.245 130.211C114.456 130.211 118.394 129.049 121.762 127.032L132.693 131.78L127.647 121.941Z" fill="black"/>
</g>
</g>
<path d="M101.935 106.57C101.935 106.224 101.69 106.036 101.242 106.036C100.477 106.036 99.467 106.541 98.4852 107.335L97.2441 104.924C98.687 103.929 100.174 103.336 101.762 103.336C103.854 103.336 105.443 104.433 105.443 106.079C105.443 107.249 104.591 108.374 103.45 109.5L101.892 111.045H105.587V113.613H97.6485L97.6336 111.507L101.17 107.855C101.589 107.421 101.935 106.917 101.935 106.57Z" fill="white"/>
<path d="M112.049 103.481L109.639 109.269H110.62V107.321H113.666V109.269H114.821V111.651H113.666V113.614H110.62V111.651H106.305V109.486L108.902 103.481H112.049Z" fill="white"/>
<path d="M124.198 108.577V113.614H120.951V109.515C120.951 108.851 120.576 108.432 120.013 108.432C119.378 108.432 118.974 108.937 118.974 109.702V113.614H115.726V102.903H118.974V106.844C119.508 106.036 120.33 105.574 121.37 105.574C123.03 105.574 124.198 106.757 124.198 108.577Z" fill="white"/>
<path d="M230.146 189.741V298.264C230.146 303.655 224.309 307.028 219.641 304.328L161.186 270.576L150.833 264.604C148.645 263.343 146.712 261.753 145.079 259.92C141.287 255.681 139.1 250.138 139.1 244.276V135.744C139.1 130.353 144.929 126.988 149.604 129.68L218.405 169.412C225.671 173.6 230.146 181.355 230.146 189.741Z" fill="#BA68C8"/>
<g opacity="0.5">
<g opacity="0.5">
<path opacity="0.5" d="M230.146 189.741V298.264C230.146 303.655 224.309 307.028 219.641 304.328L161.186 270.576L150.833 264.604C148.645 263.343 146.712 261.753 145.079 259.92C141.287 255.681 139.1 250.138 139.1 244.276V135.744C139.1 130.353 144.929 126.988 149.604 129.68L218.405 169.412C225.671 173.6 230.146 181.355 230.146 189.741Z" fill="white"/>
</g>
</g>
<path d="M196.479 253.952C196.479 253.952 207.424 272.102 199.514 292.571L161.187 270.576L196.479 253.952Z" fill="#263238"/>
<path d="M214.014 170.896C214.014 177.674 208.519 183.168 201.741 183.168C194.964 183.168 189.469 177.674 189.469 170.896C189.469 164.118 194.964 158.624 201.741 158.624C208.519 158.624 214.014 164.118 214.014 170.896Z" fill="#263238"/>
<path d="M201.8 136.479C201.8 136.479 205.568 130.336 206.725 130.81C207.881 131.284 205.971 137.085 205.971 137.085C205.971 137.085 211.67 138.27 210.605 139.69C209.538 141.111 202.586 140.784 202.586 140.784L201.8 136.479Z" fill="#263238"/>
<path d="M204.451 152.237C201.801 171.927 185.233 171.927 185.233 171.927L150.454 156.627C150.454 156.627 147.83 154.332 147.031 149.05C146.753 147.241 146.686 145.072 147.022 142.532C147.022 142.515 147.031 142.49 147.031 142.473C148.141 134.196 154.332 125.29 167.822 122.557C170.513 122.001 173.499 121.699 176.797 121.699C178.302 121.699 179.749 121.765 181.137 121.917C191.658 122.943 198.967 127.838 202.466 135.442C203.231 137.107 203.812 138.898 204.199 140.816C204.913 144.265 205.006 148.091 204.451 152.237Z" fill="#263238"/>
<path d="M120.977 190.32C120.977 190.32 108.632 189.899 103.879 201.926C103.879 201.926 109.131 205.463 115.999 201.942C122.866 198.42 120.977 190.32 120.977 190.32Z" fill="#BA68C8"/>
<g opacity="0.5">
<g opacity="0.5">
<path opacity="0.5" d="M120.977 190.32C120.977 190.32 108.632 189.899 103.879 201.926C103.879 201.926 109.131 205.463 115.999 201.942C122.866 198.42 120.977 190.32 120.977 190.32Z" fill="black"/>
</g>
</g>
<path d="M120.622 196.112C120.622 196.112 117.14 180.935 115.292 180.747C113.351 180.549 113.089 185.379 113.239 188.094L108.841 178.7C108.261 177.461 106.758 176.983 105.558 177.641C101.184 180.044 93.5289 187.346 109.685 205.402L120.622 196.112Z" fill="#945A59"/>
<path d="M165.346 185.618L162.743 185.273C157.363 184.562 152.017 186.805 148.759 191.145L133.171 211.9L120.977 190.32C120.977 190.32 119.506 204.998 103.879 201.926L120.664 230.163C125.25 237.879 136.116 238.676 141.78 231.712L156.137 214.055L165.346 185.618Z" fill="#BA68C8"/>
<path d="M198.622 234.048C195.132 242.905 194.746 244.637 196.915 249.061C199.077 253.478 200.43 259.23 200.43 259.23C200.43 259.23 184.24 277.381 161.187 270.576L150.833 264.605C148.646 263.343 146.711 261.754 145.079 259.92L148.175 236.454C148.335 235.217 148.209 233.947 147.804 232.77L144.499 223.073C141.203 213.392 143.752 202.685 151.069 195.544L162.196 184.669L191.423 188.354L195.763 189.606C201.667 191.305 205.435 197.092 204.594 203.181C203.155 213.534 200.818 228.48 198.622 234.048Z" fill="#BA68C8"/>
<g opacity="0.5">
<g opacity="0.5">
<path opacity="0.5" d="M198.622 234.048C195.132 242.905 194.746 244.637 196.915 249.061C199.077 253.478 200.43 259.23 200.43 259.23C200.43 259.23 184.24 277.381 161.187 270.576L150.833 264.605C148.646 263.343 146.711 261.754 145.079 259.92L148.175 236.454C148.335 235.217 148.209 233.947 147.804 232.77L144.499 223.073C141.203 213.392 143.752 202.685 151.069 195.544L162.196 184.669L191.423 188.354L195.763 189.606C201.667 191.305 205.435 197.092 204.594 203.181C203.155 213.534 200.818 228.48 198.622 234.048Z" fill="black"/>
</g>
</g>
<path d="M181.002 207.619L175.15 202.633C173.885 201.556 172.146 201.227 170.576 201.766L163.5 204.198L162.548 200.237C161.924 197.633 159.254 196.079 156.681 196.819L153.614 197.702L158.808 187.762C160.499 184.525 163.108 181.858 166.307 180.094L168.339 178.974L185.154 179.839C185.154 179.839 191.423 182.435 191.423 188.355L181.002 207.619Z" fill="#BA68C8"/>
<path d="M185.229 187.253L168.366 200.39V158.564H185.229V187.253Z" fill="#945A59"/>
<path d="M168.628 183.81L163.5 204.198L185.154 187.252L168.628 183.81Z" fill="#945A59"/>
<path d="M168.366 180.778C174.853 178.274 181.632 173.248 185.229 164.742V158.564H168.366V180.778Z" fill="#703838"/>
<path d="M172.006 127.567C165.61 127.567 152.013 131.132 150.444 147.863C148.876 164.596 150.39 177.58 159.027 178.823C167.663 180.066 187.71 173.816 190.395 152.155C193.08 130.494 178.245 127.567 172.006 127.567Z" fill="#945A59"/>
<path d="M161.937 154.945V164.813L156.159 163.039L161.937 154.945Z" fill="#703838"/>
<path d="M170.376 156.652C170.376 157.762 169.477 158.662 168.366 158.662C167.256 158.662 166.355 157.762 166.355 156.652C166.355 155.541 167.256 154.642 168.366 154.642C169.477 154.642 170.376 155.541 170.376 156.652Z" fill="#263238"/>
<path d="M157.153 155.25C157.153 156.36 156.253 157.26 155.143 157.26C154.033 157.26 153.132 156.36 153.132 155.25C153.132 154.14 154.033 153.239 155.143 153.239C156.253 153.239 157.153 154.14 157.153 155.25Z" fill="#263238"/>
<path d="M152.693 151.064L156.625 148.729C156.625 148.729 155.114 147.161 153.614 148.103C152.112 149.044 152.693 151.064 152.693 151.064Z" fill="#263238"/>
<path d="M159.219 168.812C159.219 168.812 162.411 169.103 164.634 167.362C164.634 167.362 165.003 170.213 162.614 170.759C160.226 171.305 159.219 168.812 159.219 168.812Z" fill="#703838"/>
<path d="M155.791 133.257C155.791 133.257 158.196 156.364 189.611 157.085C189.611 157.085 199.101 134.125 180.342 126.666C161.585 119.207 155.791 133.257 155.791 133.257Z" fill="#263238"/>
<path d="M198.857 153.626L198.858 153.626L198.841 153.615C198.837 153.612 198.832 153.61 198.828 153.607L194.965 151.377L194.964 151.38C193.501 150.517 191.473 150.629 189.229 151.924C184.772 154.497 181.16 160.754 181.16 165.899C181.16 168.475 182.065 170.284 183.529 171.126V171.127L187.322 173.305C187.393 173.349 187.467 173.391 187.542 173.431L187.67 173.505L187.676 173.495C189.113 174.189 191.023 174.025 193.129 172.809C197.585 170.237 201.198 163.98 201.198 158.834C201.198 156.276 200.303 154.475 198.857 153.626Z" fill="#BA68C8"/>
<path d="M201.197 158.834C201.197 163.98 197.585 170.237 193.129 172.81C188.673 175.383 185.06 173.297 185.06 168.151C185.06 163.006 188.673 156.749 193.129 154.176C197.585 151.603 201.197 153.689 201.197 158.834Z" fill="#BA68C8"/>
<g opacity="0.5">
<g opacity="0.5">
<path opacity="0.5" d="M201.197 158.834C201.197 163.98 197.585 170.237 193.129 172.81C188.673 175.383 185.06 173.297 185.06 168.151C185.06 163.006 188.673 156.749 193.129 154.176C197.585 151.603 201.197 153.689 201.197 158.834Z" fill="black"/>
</g>
</g>
<path d="M200.409 158.472L200.41 158.471L200.399 158.464C200.395 158.463 200.392 158.461 200.389 158.459L197.747 156.933L197.745 156.935C196.745 156.344 195.357 156.42 193.822 157.308C190.772 159.068 188.3 163.349 188.3 166.87C188.3 168.633 188.921 169.871 189.922 170.446L192.516 171.937C192.565 171.967 192.616 171.996 192.668 172.024L192.755 172.074L192.759 172.067C193.742 172.543 195.05 172.43 196.49 171.598C199.539 169.838 202.011 165.557 202.011 162.036C202.011 160.285 201.399 159.053 200.409 158.472Z" fill="#BA68C8"/>
<path d="M202.011 162.036C202.011 165.556 199.539 169.838 196.49 171.598C193.441 173.359 190.969 171.932 190.969 168.411C190.969 164.89 193.441 160.608 196.49 158.848C199.539 157.087 202.011 158.515 202.011 162.036Z" fill="#BA68C8"/>
<g opacity="0.300003">
<g opacity="0.300003">
<path opacity="0.300003" d="M202.011 162.036C202.011 165.556 199.539 169.838 196.49 171.598C193.441 173.359 190.969 171.932 190.969 168.411C190.969 164.89 193.441 160.608 196.49 158.848C199.539 157.087 202.011 158.515 202.011 162.036Z" fill="black"/>
</g>
</g>
<path d="M186.865 123.054C184.372 121.104 181.291 120.076 178.126 120.029C177.874 120.026 177.621 120.024 177.366 120.024C173.859 120.024 170.685 120.345 167.822 120.936C168.396 120.913 168.972 120.916 169.547 120.936H167.822V122.556H169.444C172.917 122.678 176.372 123.634 179.479 125.424C186.149 129.276 190.296 136.459 190.296 144.163V151.035C190.296 152.179 191.276 153.087 192.435 152.967C192.504 152.96 192.566 152.94 192.632 152.926L194.355 152.39L194.354 152.387C194.239 152.423 194.12 152.45 193.995 152.462C195.069 152.352 195.843 151.368 195.843 150.288V143.913C195.843 132.378 190.856 126.175 186.865 123.054Z" fill="#BA68C8"/>
<path d="M175.874 178.342C175.165 178.342 174.453 178.192 173.782 177.881L168.321 175.357C167.994 175.206 167.852 174.819 168.003 174.493C168.155 174.165 168.542 174.027 168.867 174.175L174.328 176.7C175.754 177.36 177.445 177.042 178.535 175.909L183.745 170.492C183.995 170.232 184.407 170.224 184.665 170.473C184.924 170.722 184.932 171.134 184.684 171.393L179.473 176.811C178.512 177.812 177.202 178.342 175.874 178.342Z" fill="#BA68C8"/>
<g opacity="0.5">
<g opacity="0.5">
<path opacity="0.5" d="M175.874 178.342C175.165 178.342 174.453 178.192 173.782 177.881L168.321 175.357C167.994 175.206 167.852 174.819 168.003 174.493C168.155 174.165 168.542 174.027 168.867 174.175L174.328 176.7C175.754 177.36 177.445 177.042 178.535 175.909L183.745 170.492C183.995 170.232 184.407 170.224 184.665 170.473C184.924 170.722 184.932 171.134 184.684 171.393L179.473 176.811C178.512 177.812 177.202 178.342 175.874 178.342Z" fill="black"/>
</g>
</g>
<path d="M169.759 173.505C169.759 174.914 168.616 176.055 167.208 176.055C165.799 176.055 164.658 174.914 164.658 173.505C164.658 172.096 165.799 170.954 167.208 170.954C168.616 170.954 169.759 172.096 169.759 173.505Z" fill="#BA68C8"/>
<g opacity="0.5">
<g opacity="0.5">
<path opacity="0.5" d="M169.759 173.505C169.759 174.914 168.616 176.055 167.208 176.055C165.799 176.055 164.658 174.914 164.658 173.505C164.658 172.096 165.799 170.954 167.208 170.954C168.616 170.954 169.759 172.096 169.759 173.505Z" fill="black"/>
</g>
</g>
<path d="M195.843 143.913V150.288C195.843 151.368 195.068 152.352 193.996 152.463C192.762 152.59 191.719 151.625 191.719 150.408V143.913C191.719 135.721 187.31 128.082 180.218 123.986C176.399 121.785 172.089 120.766 167.823 120.936C170.684 120.346 173.859 120.024 177.366 120.024C177.621 120.024 177.874 120.025 178.127 120.029C181.291 120.076 184.371 121.104 186.865 123.054C190.856 126.175 195.843 132.378 195.843 143.913Z" fill="#BA68C8"/>
<g opacity="0.5">
<g opacity="0.5">
<path opacity="0.5" d="M195.843 143.913V150.288C195.843 151.368 195.068 152.352 193.996 152.463C192.762 152.59 191.719 151.625 191.719 150.408V143.913C191.719 135.721 187.31 128.082 180.218 123.986C176.399 121.785 172.089 120.766 167.823 120.936C170.684 120.346 173.859 120.024 177.366 120.024C177.621 120.024 177.874 120.025 178.127 120.029C181.291 120.076 184.371 121.104 186.865 123.054C190.856 126.175 195.843 132.378 195.843 143.913Z" fill="black"/>
</g>
</g>
<path d="M186.028 264.08C186.028 264.08 181.798 275.739 196.912 280.948C196.912 280.948 201.848 273.706 196.912 267.775C191.976 261.846 186.028 264.08 186.028 264.08Z" fill="#BA68C8"/>
<g opacity="0.699997">
<g opacity="0.699997">
<path opacity="0.699997" d="M186.028 264.08C186.028 264.08 181.798 275.739 196.912 280.948C196.912 280.948 201.848 273.706 196.912 267.775C191.976 261.846 186.028 264.08 186.028 264.08Z" fill="black"/>
</g>
</g>
<path d="M191.304 264.607C191.304 264.607 176.547 270.02 176.621 272.11C176.697 274.2 182.897 272.779 182.897 272.779L180.631 274.261C178.251 275.816 176.407 278.068 175.35 280.709C174.868 281.913 175.372 283.288 176.518 283.896L182.126 286.867C183.462 287.573 185.116 287.038 185.783 285.683C186.404 284.423 187.519 283.489 188.852 283.044C191.9 282.028 197.561 279.109 199.864 271.13L191.304 264.607Z" fill="#945A59"/>
<path d="M195.76 189.606C195.76 189.606 187.907 193.986 192.073 207.235C196.238 220.483 204.087 241.065 204.087 241.065L186.027 264.08C186.027 264.08 192.072 264.485 195.734 269.876C199.396 275.265 196.912 280.948 196.912 280.948L219.324 252.157C223.537 246.746 224.733 239.574 222.505 233.088L212.864 205.029C210.478 198.084 204.982 192.652 198.007 190.348L195.76 189.606Z" fill="#BA68C8"/>
<path d="M63.0658 111.283L28.3293 91.2287C27.2812 90.6234 26.3195 90.5536 25.5605 90.9248H25.5596C25.4661 90.9711 25.3762 91.0235 25.2888 91.082L17.7352 95.5095C17.7491 95.5017 17.7666 95.4956 17.7806 95.4868C16.832 96.024 16.2293 97.2835 16.2293 99.0802V137.705C16.2293 140.973 18.2156 144.769 20.6674 146.184L55.4038 166.239C56.5891 166.923 57.6635 166.92 58.4601 166.369C58.4391 166.384 58.4216 166.402 58.3998 166.416L65.9028 162.013C66.8811 161.491 67.5038 160.216 67.5038 158.387V119.763C67.5038 116.494 65.5176 112.698 63.0658 111.283Z" fill="#BA68C8"/>
<path d="M66.2611 114.945C65.454 113.36 64.322 112.008 63.066 111.283L28.3295 91.2288C27.2814 90.6235 26.3188 90.5536 25.5598 90.9248H25.5589C25.4663 90.9711 25.3755 91.0235 25.289 91.082L17.7345 95.5105C18.5171 95.0423 19.5434 95.0763 20.6675 95.7253L55.4031 115.781C56.7037 116.531 57.8698 117.954 58.6804 119.61L66.2611 114.945Z" fill="#BA68C8"/>
<path d="M59.8415 162.884C59.8415 164.612 59.2851 165.845 58.4003 166.416L65.9024 162.013C66.8816 161.492 67.5035 160.217 67.5035 158.387V119.763C67.5035 118.169 67.0292 116.452 66.2614 114.945L58.6807 119.61C59.3996 121.076 59.8415 122.724 59.8415 124.259V162.884Z" fill="#BA68C8"/>
<g opacity="0.300003">
<g opacity="0.300003">
<path opacity="0.300003" d="M66.2611 114.945C65.454 113.36 64.322 112.008 63.066 111.283L28.3295 91.2288C27.2814 90.6235 26.3188 90.5536 25.5598 90.9248H25.5589C25.4663 90.9711 25.3755 91.0235 25.289 91.082L17.7345 95.5105C18.5171 95.0423 19.5434 95.0763 20.6675 95.7253L55.4031 115.781C56.7037 116.531 57.8698 117.954 58.6804 119.61L66.2611 114.945Z" fill="black"/>
</g>
</g>
<g opacity="0.600006">
<g opacity="0.600006">
<path opacity="0.600006" d="M59.8415 162.884C59.8415 164.612 59.2851 165.845 58.4003 166.416L65.9024 162.013C66.8816 161.492 67.5035 160.217 67.5035 158.387V119.763C67.5035 118.169 67.0292 116.452 66.2614 114.945L58.6807 119.61C59.3996 121.076 59.8415 122.724 59.8415 124.259V162.884Z" fill="black"/>
</g>
</g>
<path d="M41.0238 131.128C41.0238 128.697 39.7416 126.589 37.9999 125.583C36.2338 124.563 35.0004 125.276 35.0004 127.65C35.0004 130.053 36.2338 132.217 37.9999 133.238C39.7416 134.242 41.0238 133.586 41.0238 131.128ZM49.6605 135.332C49.6605 140.333 47.676 142.036 44.701 140.318C43.0554 139.368 41.8946 137.86 41.3871 135.974C40.5399 137.05 39.1607 137.12 37.2505 136.016C34.1296 134.215 31.6612 129.941 31.6612 125.723C31.6612 121.533 34.1051 120.095 37.2505 121.91C38.8463 122.831 40.1049 124.201 40.9749 125.905V124.257L44.2652 126.156V135.206C44.2652 136.547 44.7744 137.288 45.4269 137.664C46.5397 138.307 47.2175 137.218 47.2175 133.977C47.2175 128.307 43.5883 122.301 38.2182 119.2C32.8229 116.085 29.2182 118.251 29.2182 124.089C29.2182 130.038 32.7504 136.295 38.1222 139.396C39.6446 140.277 41.3627 140.905 42.8869 140.919L43.6616 143.936C42.1855 143.95 40.0315 143.181 38.1222 142.078C31.1293 138.042 26.5096 129.899 26.5096 122.525C26.5096 115.234 31.1782 112.482 38.2182 116.547C45.0155 120.471 49.6605 128.321 49.6605 135.332Z" fill="#BA68C8"/>
<g opacity="0.899994">
<g opacity="0.899994">
<path opacity="0.899994" d="M41.0238 131.128C41.0238 128.697 39.7416 126.589 37.9999 125.583C36.2338 124.563 35.0004 125.276 35.0004 127.65C35.0004 130.053 36.2338 132.217 37.9999 133.238C39.7416 134.242 41.0238 133.586 41.0238 131.128ZM49.6605 135.332C49.6605 140.333 47.676 142.036 44.701 140.318C43.0554 139.368 41.8946 137.86 41.3871 135.974C40.5399 137.05 39.1607 137.12 37.2505 136.016C34.1296 134.215 31.6612 129.941 31.6612 125.723C31.6612 121.533 34.1051 120.095 37.2505 121.91C38.8463 122.831 40.1049 124.201 40.9749 125.905V124.257L44.2652 126.156V135.206C44.2652 136.547 44.7744 137.288 45.4269 137.664C46.5397 138.307 47.2175 137.218 47.2175 133.977C47.2175 128.307 43.5883 122.301 38.2182 119.2C32.8229 116.085 29.2182 118.251 29.2182 124.089C29.2182 130.038 32.7504 136.295 38.1222 139.396C39.6446 140.277 41.3627 140.905 42.8869 140.919L43.6616 143.936C42.1855 143.95 40.0315 143.181 38.1222 142.078C31.1293 138.042 26.5096 129.899 26.5096 122.525C26.5096 115.234 31.1782 112.482 38.2182 116.547C45.0155 120.471 49.6605 128.321 49.6605 135.332Z" fill="white"/>
</g>
</g>
<path d="M63.0658 180.09L28.3293 160.036C27.2812 159.43 26.3195 159.361 25.5605 159.732H25.5596C25.4661 159.778 25.3762 159.83 25.2888 159.889L17.7352 164.317C17.7491 164.309 17.7666 164.303 17.7806 164.294C16.832 164.832 16.2293 166.091 16.2293 167.887V206.512C16.2293 209.78 18.2156 213.576 20.6674 214.991L55.4038 235.046C56.5891 235.73 57.6635 235.727 58.4601 235.176C58.4391 235.191 58.4216 235.209 58.3998 235.223L65.9028 230.82C66.8811 230.298 67.5038 229.023 67.5038 227.194V188.57C67.5038 185.301 65.5176 181.505 63.0658 180.09Z" fill="#BA68C8"/>
<path d="M66.2611 183.751C65.454 182.168 64.322 180.816 63.066 180.091L28.3295 160.035C27.2814 159.43 26.3188 159.36 25.5598 159.731L25.5589 159.732C25.4663 159.778 25.3755 159.83 25.289 159.889L17.7345 164.317C18.5171 163.85 19.5434 163.883 20.6675 164.533L55.4031 184.588C56.7037 185.338 57.8698 186.76 58.6804 188.417L66.2611 183.751Z" fill="#BA68C8"/>
<path d="M59.8415 231.691C59.8415 233.419 59.2851 234.652 58.4003 235.223L65.9024 230.819C66.8816 230.299 67.5035 229.024 67.5035 227.194V188.569C67.5035 186.976 67.0292 185.259 66.2614 183.752L58.6807 188.417C59.3996 189.883 59.8415 191.531 59.8415 193.067V231.691Z" fill="#BA68C8"/>
<g opacity="0.300003">
<g opacity="0.300003">
<path opacity="0.300003" d="M66.2611 183.751C65.454 182.168 64.322 180.816 63.066 180.091L28.3295 160.035C27.2814 159.43 26.3188 159.36 25.5598 159.731L25.5589 159.732C25.4663 159.778 25.3755 159.83 25.289 159.889L17.7345 164.317C18.5171 163.85 19.5434 163.883 20.6675 164.533L55.4031 184.588C56.7037 185.338 57.8698 186.76 58.6804 188.417L66.2611 183.751Z" fill="black"/>
</g>
</g>
<g opacity="0.600006">
<g opacity="0.600006">
<path opacity="0.600006" d="M59.8415 231.691C59.8415 233.419 59.2851 234.652 58.4003 235.223L65.9024 230.819C66.8816 230.299 67.5035 229.024 67.5035 227.194V188.569C67.5035 186.976 67.0292 185.259 66.2614 183.752L58.6807 188.417C59.3996 189.883 59.8415 191.531 59.8415 193.067V231.691Z" fill="black"/>
</g>
</g>
<path d="M34.1487 197.36L25.7749 183.751V202.196L34.1487 197.36Z" fill="#BA68C8"/>
<path d="M41.9357 201.281L50.2955 215.761V197.349L41.9357 201.281Z" fill="#BA68C8"/>
<path d="M27.0468 183.154L35.6486 197.133C35.6818 197.17 35.7211 197.199 35.7464 197.244C35.7657 197.278 35.7683 197.315 35.7823 197.35L38.3039 201.447L40.4675 200.428C40.5042 200.395 40.5347 200.356 40.5793 200.33C40.6701 200.278 40.7662 200.252 40.8623 200.242L49.5593 196.152L27.0468 183.154Z" fill="#BA68C8"/>
<path d="M40.6672 201.878L38.3325 202.976C38.2373 203.021 38.136 203.042 38.0364 203.042C37.8006 203.042 37.5717 202.923 37.4416 202.711L34.8806 198.55L26.4727 203.405L49.0874 216.46L40.6672 201.878Z" fill="#BA68C8"/>
<g opacity="0.899994">
<g opacity="0.899994">
<path opacity="0.899994" d="M34.1487 197.36L25.7749 183.751V202.196L34.1487 197.36Z" fill="white"/>
</g>
<g opacity="0.899994">
<path opacity="0.899994" d="M41.9357 201.281L50.2955 215.761V197.349L41.9357 201.281Z" fill="white"/>
</g>
<g opacity="0.899994">
<path opacity="0.899994" d="M27.0468 183.154L35.6486 197.133C35.6818 197.17 35.7211 197.199 35.7464 197.244C35.7657 197.278 35.7683 197.315 35.7823 197.35L38.3039 201.447L40.4675 200.428C40.5042 200.395 40.5347 200.356 40.5793 200.33C40.6701 200.278 40.7662 200.252 40.8623 200.242L49.5593 196.152L27.0468 183.154Z" fill="white"/>
</g>
<g opacity="0.899994">
<path opacity="0.899994" d="M40.6672 201.878L38.3325 202.976C38.2373 203.021 38.136 203.042 38.0364 203.042C37.8006 203.042 37.5717 202.923 37.4416 202.711L34.8806 198.55L26.4727 203.405L49.0874 216.46L40.6672 201.878Z" fill="white"/>
</g>
</g>
<path d="M63.0658 42.4765L28.3293 22.422C27.2812 21.8167 26.3195 21.7468 25.5605 22.118H25.5596C25.4661 22.1643 25.3762 22.2167 25.2888 22.2752L17.7352 26.7037C17.7491 26.6949 17.7666 26.6888 17.7806 26.6801C16.832 27.2181 16.2293 28.4768 16.2293 30.2735V68.8986C16.2293 72.1662 18.2156 75.9622 20.6674 77.3772L55.4038 97.4318C56.5891 98.1166 57.6635 98.1131 58.4601 97.5619C58.4391 97.5768 58.4216 97.5951 58.3998 97.6091L65.9028 93.206C66.8811 92.6845 67.5038 91.4093 67.5038 89.5803V50.956C67.5038 47.6876 65.5176 43.8915 63.0658 42.4765Z" fill="#BA68C8"/>
<path d="M66.2611 46.1381C65.454 44.5536 64.322 43.2015 63.066 42.4766L28.3295 22.422C27.2814 21.8167 26.3188 21.7468 25.5598 22.118H25.5589C25.4663 22.1643 25.3755 22.2167 25.289 22.2753L17.7345 26.7037C18.5171 26.2355 19.5434 26.2696 20.6675 26.9194L55.4031 46.974C56.7037 47.7243 57.8698 49.1471 58.6804 50.8032L66.2611 46.1381Z" fill="#BA68C8"/>
<path d="M59.8415 94.0775C59.8415 95.8052 59.2851 97.0385 58.4003 97.6089L65.9024 93.2058C66.8816 92.6852 67.5035 91.41 67.5035 89.5801V50.9558C67.5035 49.3627 67.0292 47.6454 66.2614 46.1379L58.6807 50.803C59.3996 52.2695 59.8415 53.9177 59.8415 55.4533V94.0775Z" fill="#BA68C8"/>
<g opacity="0.300003">
<g opacity="0.300003">
<path opacity="0.300003" d="M66.2611 46.1381C65.454 44.5536 64.322 43.2015 63.066 42.4766L28.3295 22.422C27.2814 21.8167 26.3188 21.7468 25.5598 22.118H25.5589C25.4663 22.1643 25.3755 22.2167 25.289 22.2753L17.7345 26.7037C18.5171 26.2355 19.5434 26.2696 20.6675 26.9194L55.4031 46.974C56.7037 47.7243 57.8698 49.1471 58.6804 50.8032L66.2611 46.1381Z" fill="black"/>
</g>
</g>
<g opacity="0.600006">
<g opacity="0.600006">
<path opacity="0.600006" d="M59.8415 94.0775C59.8415 95.8052 59.2851 97.0385 58.4003 97.6089L65.9024 93.2058C66.8816 92.6852 67.5035 91.41 67.5035 89.5801V50.9558C67.5035 49.3627 67.0292 47.6454 66.2614 46.1379L58.6807 50.803C59.3996 52.2695 59.8415 53.9177 59.8415 55.4533V94.0775Z" fill="black"/>
</g>
</g>
<path d="M48.4806 77.4157C47.1459 75.2198 45.7982 73.0318 44.4609 70.8368C43.8469 69.8297 43.156 69.2454 42.3576 69.0742C41.7095 68.9353 41.0606 68.7929 40.4011 68.5955C40.2264 68.5431 39.9469 68.3178 39.8272 68.109C37.5999 64.2501 35.8609 60.2881 34.6511 56.2274C34.5952 56.0378 34.6337 55.7863 34.7228 55.6972C35.1333 55.2858 35.5683 54.9085 36.0102 54.5434C36.5544 54.0935 36.6479 53.3258 36.3448 52.2304C35.6993 49.8974 35.0756 47.5671 34.4363 45.2358C34.017 43.7099 33.0719 42.6076 31.9347 42.3316C30.3502 41.9464 28.9213 41.997 27.653 42.487C27.1193 42.6932 26.8442 43.1753 26.8381 43.9999C27.0591 45.6 27.211 47.1792 27.5106 48.803C29.6716 60.5178 34.8669 71.3085 43.0669 81.1593C43.7124 81.9341 44.3579 82.3018 45.0121 82.273C46.4524 82.2101 47.6866 81.7445 48.7015 80.8519C49.4798 80.1688 49.4003 78.9276 48.4806 77.4157Z" fill="#BA68C8"/>
<path d="M48.3766 65.5403C48.2351 63.2056 47.5442 60.8009 46.3126 58.3404C45.4208 56.5603 44.3263 54.9575 43.0406 53.5303C42.6947 53.146 42.4039 53.0211 42.237 53.3163C42.0658 53.6176 42.2318 54.0133 42.5681 54.3898C42.6816 54.5182 42.7952 54.6483 42.9061 54.7819C45.4382 57.8539 46.8917 61.1529 47.2585 64.6765C47.2865 64.9455 47.2384 65.2119 47.3363 65.473C47.4393 65.7508 47.6621 66.1281 47.8525 66.2644C48.0333 66.3928 48.242 66.2635 48.3905 66.2513C48.3844 65.908 48.3879 65.7281 48.3766 65.5403Z" fill="#BA68C8"/>
<path d="M40.4608 58.3698C41.6251 59.7132 42.2331 61.1448 42.3545 62.7039C42.3728 62.938 42.5676 63.2551 42.6287 63.407C43.1607 63.8473 43.4236 63.6988 43.4236 63.1502C43.4253 61.5081 42.2872 58.9192 40.9657 57.547C40.6373 57.2055 40.3604 57.1024 40.2031 57.3889C40.0582 57.6545 40.1673 58.0318 40.4608 58.3698Z" fill="#BA68C8"/>
<g opacity="0.899994">
<g opacity="0.899994">
<path opacity="0.899994" d="M48.4806 77.4157C47.1459 75.2198 45.7982 73.0318 44.4609 70.8368C43.8469 69.8297 43.156 69.2454 42.3576 69.0742C41.7095 68.9353 41.0606 68.7929 40.4011 68.5955C40.2264 68.5431 39.9469 68.3178 39.8272 68.109C37.5999 64.2501 35.8609 60.2881 34.6511 56.2274C34.5952 56.0378 34.6337 55.7863 34.7228 55.6972C35.1333 55.2858 35.5683 54.9085 36.0102 54.5434C36.5544 54.0935 36.6479 53.3258 36.3448 52.2304C35.6993 49.8974 35.0756 47.5671 34.4363 45.2358C34.017 43.7099 33.0719 42.6076 31.9347 42.3316C30.3502 41.9464 28.9213 41.997 27.653 42.487C27.1193 42.6932 26.8442 43.1753 26.8381 43.9999C27.0591 45.6 27.211 47.1792 27.5106 48.803C29.6716 60.5178 34.8669 71.3085 43.0669 81.1593C43.7124 81.9341 44.3579 82.3018 45.0121 82.273C46.4524 82.2101 47.6866 81.7445 48.7015 80.8519C49.4798 80.1688 49.4003 78.9276 48.4806 77.4157Z" fill="white"/>
</g>
<g opacity="0.899994">
<path opacity="0.899994" d="M48.3766 65.5403C48.2351 63.2056 47.5442 60.8009 46.3126 58.3404C45.4208 56.5603 44.3263 54.9575 43.0406 53.5303C42.6947 53.146 42.4039 53.0211 42.237 53.3163C42.0658 53.6176 42.2318 54.0133 42.5681 54.3898C42.6816 54.5182 42.7952 54.6483 42.9061 54.7819C45.4383 57.8539 46.8917 61.1529 47.2585 64.6765C47.2865 64.9455 47.2384 65.2119 47.3363 65.473C47.4393 65.7508 47.6621 66.1281 47.8525 66.2644C48.0333 66.3928 48.242 66.2635 48.3905 66.2513C48.3844 65.908 48.3879 65.7281 48.3766 65.5403Z" fill="white"/>
</g>
<g opacity="0.899994">
<path opacity="0.899994" d="M40.4608 58.3698C41.6251 59.7132 42.2331 61.1448 42.3545 62.7039C42.3728 62.938 42.5676 63.2551 42.6288 63.407C43.1607 63.8473 43.4236 63.6988 43.4236 63.1502C43.4253 61.5081 42.2872 58.9192 40.9657 57.547C40.6373 57.2055 40.3604 57.1024 40.2032 57.3889C40.0582 57.6545 40.1674 58.0318 40.4608 58.3698Z" fill="white"/>
</g>
</g>
<path d="M241.29 19.3432L249.476 24.0004V21.1041C249.463 20.8971 249.45 20.6909 249.45 20.4883C249.45 20.2856 249.463 20.0943 249.476 19.9031V19.8349L249.48 19.8358C249.774 15.9961 252.681 14.5243 256.23 16.5743C257.742 17.4469 259.133 18.8287 260.261 20.4455C261.062 15.2301 265.315 13.3478 270.458 16.3167C276.172 19.6157 280.802 27.6375 280.802 34.2339L280.807 40.4406C280.808 41.4399 281.338 42.3649 282.2 42.8706L287.016 45.6954C289.141 46.9418 290.446 49.2215 290.446 51.6846C290.446 53.8858 288.063 55.2614 286.156 54.16L241.414 28.3136C238.995 26.9169 237.506 24.3367 237.506 21.5443C237.506 19.6017 239.602 18.3832 241.29 19.3432Z" fill="#E6E6E6"/>
<path d="M303.681 18.1332L309.634 21.5196V19.4128C309.625 19.2626 309.615 19.1132 309.615 18.9656C309.615 18.818 309.625 18.6791 309.634 18.5402V18.4904L309.636 18.4913C309.85 15.6989 311.965 14.6289 314.545 16.119C315.645 16.754 316.656 17.7585 317.477 18.9341C318.059 15.1416 321.153 13.7729 324.892 15.9321C329.047 18.3315 332.415 24.1644 332.415 28.9614L332.418 33.4754C332.418 34.2022 332.804 34.8747 333.432 35.2424L336.933 37.2968C338.478 38.2035 339.428 39.8604 339.428 41.6519C339.428 43.2529 337.694 44.253 336.308 43.4521L303.772 24.6562C302.012 23.6412 300.929 21.7641 300.929 19.7334C300.929 18.321 302.454 17.4344 303.681 18.1332Z" fill="#E6E6E6"/>
</svg>
