<svg width="100" height="100" viewBox="0 0 100 100" fill="none" xmlns="http://www.w3.org/2000/svg">
<circle cx="50" cy="50" r="50" fill="#E4E8F3"/>
<path d="M74.3722 24.8978C73.832 24.3588 73.1822 23.9423 72.4669 23.6766C71.7515 23.4108 70.9874 23.3021 70.2263 23.3576C61.34 24.0229 52.992 27.8716 46.7153 34.1971L45.8905 35.0365H35.1314C34.9859 35.0366 34.8419 35.0657 34.7078 35.1221C34.5737 35.1785 34.4522 35.2611 34.3504 35.3649L22.9416 47.0438C22.7907 47.1977 22.6886 47.3927 22.6481 47.6044C22.6076 47.8161 22.6305 48.0351 22.7139 48.2338C22.7973 48.4326 22.9375 48.6023 23.1169 48.7217C23.2964 48.8411 23.5071 48.9049 23.7226 48.9051H34.219L37.0292 51.7153C32.7655 51.8718 28.723 53.6528 25.7299 56.6934C16.7883 65.7445 23.8321 76.073 23.9051 76.1752C24.0385 76.3663 24.2294 76.5098 24.4501 76.585C24.6707 76.6601 24.9096 76.6628 25.1319 76.5928C25.3542 76.5228 25.5484 76.3836 25.6861 76.1956C25.8239 76.0076 25.898 75.7805 25.8978 75.5474C25.8978 72.0365 29.1898 68.708 32.6642 68.708C34.3324 68.7177 35.9286 69.3886 37.1026 70.5736C38.2767 71.7587 38.9328 73.361 38.927 75.0292C38.9304 75.2271 38.9874 75.4204 39.0919 75.5885C39.1964 75.7566 39.3445 75.8932 39.5205 75.9838C39.6965 76.0744 39.8937 76.1156 40.0913 76.103C40.2888 76.0905 40.4793 76.0246 40.6423 75.9124C42.7465 74.2794 44.4522 72.1898 45.6307 69.8012C46.8092 67.4126 47.4296 64.7875 47.4452 62.1241L50.365 65.0438V75.5474C50.3651 75.7638 50.4295 75.9753 50.5498 76.1552C50.6701 76.3351 50.841 76.4753 51.041 76.5581C51.2409 76.6409 51.4609 76.6625 51.6732 76.6204C51.8854 76.5782 52.0804 76.4741 52.2336 76.3211L63.9124 64.6423C64.1143 64.4408 64.2295 64.1684 64.2336 63.8832V53.3795L65.073 52.5547C71.3984 46.278 75.2471 37.93 75.9124 29.0438C75.968 28.2827 75.8592 27.5185 75.5935 26.8032C75.3277 26.0878 74.9112 25.438 74.3722 24.8978ZM35.5912 37.2263H43.7007L34.2117 46.7153H26.3212L35.5912 37.2263ZM40.8321 72.8686C40.3613 71.0569 39.3039 69.452 37.825 68.3045C36.3461 67.157 34.5288 66.5315 32.6569 66.5255C29.0657 66.5255 25.7226 69.0511 24.3504 72.3649C23.073 69.1752 22.0438 63.5328 27.2701 58.2555C28.8208 56.6784 30.7113 55.4766 32.7974 54.7416C34.8834 54.0066 37.1098 53.7579 39.3066 54.0146L45.146 59.854C45.4415 62.2076 45.2075 64.5976 44.4612 66.8493C43.7148 69.1009 42.475 71.1574 40.8321 72.8686ZM62.0438 63.4306L52.5547 72.9197V65.0584L62.0438 55.5693V63.4306ZM63.5036 51.0219L62.365 52.1606L62.3285 52.1971L51.4598 63.0511L36.219 47.8102L47.1022 36.927L47.1387 36.8905L48.2774 35.7664C54.175 29.8114 62.0225 26.1831 70.3795 25.5474C70.8287 25.5072 71.2811 25.566 71.705 25.7197C72.1289 25.8735 72.5139 26.1185 72.8327 26.4373C73.1516 26.7562 73.3965 27.1411 73.5503 27.565C73.7041 27.9889 73.7629 28.4414 73.7226 28.8905C73.0869 37.2475 69.4586 45.095 63.5036 50.9927V51.0219Z" fill="#D268CC"/>
<path d="M59.489 33.5766C57.8848 33.5775 56.3305 34.1345 55.0909 35.1529C53.8513 36.1712 53.0032 37.5879 52.6909 39.1614C52.3787 40.735 52.6218 42.3681 53.3787 43.7826C54.1356 45.1971 55.3595 46.3053 56.8419 46.9186C58.3243 47.5318 59.9735 47.6121 61.5084 47.1458C63.0434 46.6795 64.3692 45.6953 65.2599 44.3611C66.1506 43.0268 66.5512 41.425 66.3933 39.8286C66.2355 38.2321 65.5289 36.7398 64.3941 35.6058C63.7513 34.9601 62.9868 34.4482 62.1448 34.0999C61.3029 33.7516 60.4002 33.5738 59.489 33.5766ZM62.8467 43.8686C62.0712 44.6454 61.0504 45.1292 59.9582 45.2378C58.866 45.3463 57.7699 45.0728 56.8567 44.4638C55.9435 43.8549 55.2698 42.9481 54.9501 41.8981C54.6305 40.8481 54.6848 39.7197 55.1039 38.7052C55.5229 37.6908 56.2807 36.8529 57.2481 36.3345C58.2156 35.8161 59.3329 35.6492 60.4096 35.8621C61.4863 36.0751 62.4559 36.6548 63.1532 37.5025C63.8505 38.3501 64.2323 39.4133 64.2336 40.5109C64.2359 41.1345 64.1145 41.7523 63.8765 42.3287C63.6384 42.905 63.2884 43.4284 62.8467 43.8686Z" fill="#D268CC"/>
</svg>
