<svg width="100" height="100" viewBox="0 0 100 100" fill="none" xmlns="http://www.w3.org/2000/svg">
<circle cx="50" cy="50" r="50" fill="#E4E8F3"/>
<path d="M76.2774 26.2773H22.9927C22.7023 26.2773 22.4238 26.3927 22.2185 26.598C22.0132 26.8034 21.8978 27.0819 21.8978 27.3722V62.4087C21.8978 62.6991 22.0132 62.9776 22.2185 63.1829C22.4238 63.3883 22.7023 63.5036 22.9927 63.5036H38.2555L26.5766 75.1824C26.3716 75.3877 26.2564 75.666 26.2564 75.9562C26.2564 76.2463 26.3716 76.5246 26.5766 76.7299L31.2993 81.4525C31.5046 81.6576 31.7828 81.7727 32.073 81.7727C32.3631 81.7727 32.6414 81.6576 32.8467 81.4525L50.7956 63.5036H76.2774C76.5678 63.5036 76.8462 63.3883 77.0516 63.1829C77.2569 62.9776 77.3723 62.6991 77.3723 62.4087V27.3722C77.3723 27.0819 77.2569 26.8034 77.0516 26.598C76.8462 26.3927 76.5678 26.2773 76.2774 26.2773ZM32.1168 79.1095L28.9197 75.9124L54.3212 50.5109L59.6788 48.3211L57.489 53.6788L32.1168 79.1095ZM75.1825 61.3138H52.9854L59.2044 55.0949C59.3077 54.9929 59.3896 54.8713 59.4453 54.7372L62.6934 46.7664C62.791 46.5621 62.8228 46.3325 62.7846 46.1094C62.7463 45.8862 62.6397 45.6804 62.4796 45.5203C62.3195 45.3602 62.1137 45.2537 61.8906 45.2154C61.6674 45.1771 61.4379 45.209 61.2336 45.3065L53.2847 48.5839C53.1508 48.6399 53.0292 48.7217 52.927 48.8248L40.4453 61.3138H24.0876V28.4671H75.1825V61.3138Z" fill="#D268CC"/>
<path d="M67.1533 43.0657C68.1638 43.0657 69.1517 42.766 69.992 42.2046C70.8322 41.6431 71.4871 40.8451 71.8738 39.9115C72.2606 38.9779 72.3617 37.9505 72.1646 36.9594C71.9674 35.9682 71.4808 35.0578 70.7662 34.3432C70.0517 33.6286 69.1412 33.142 68.1501 32.9449C67.1589 32.7477 66.1316 32.8489 65.198 33.2356C64.2643 33.6223 63.4663 34.2772 62.9049 35.1175C62.3435 35.9577 62.0438 36.9456 62.0438 37.9562C62.0438 39.3113 62.5821 40.6109 63.5403 41.5691C64.4985 42.5273 65.7982 43.0657 67.1533 43.0657ZM67.1533 35.0365C67.7307 35.0365 68.2952 35.2077 68.7754 35.5285C69.2555 35.8493 69.6298 36.3053 69.8507 36.8388C70.0717 37.3724 70.1295 37.9594 70.0169 38.5258C69.9042 39.0921 69.6262 39.6124 69.2178 40.0207C68.8095 40.429 68.2893 40.7071 67.7229 40.8198C67.1565 40.9324 66.5695 40.8746 66.036 40.6536C65.5025 40.4326 65.0465 40.0584 64.7256 39.5783C64.4048 39.0981 64.2336 38.5336 64.2336 37.9562C64.2336 37.1818 64.5412 36.4392 65.0887 35.8916C65.6363 35.3441 66.3789 35.0365 67.1533 35.0365Z" fill="#D268CC"/>
<path d="M28.4672 56.9343H38.0365C38.3269 56.9343 38.6054 56.8189 38.8107 56.6136C39.016 56.4083 39.1314 56.1298 39.1314 55.8394C39.1314 55.549 39.016 55.2705 38.8107 55.0652C38.6054 54.8599 38.3269 54.7445 38.0365 54.7445H30.4891L43.2628 35.2117L49.4453 44.6642C49.5214 44.7898 49.622 44.8989 49.7412 44.9848C49.8604 45.0707 49.9956 45.1318 50.1388 45.1643C50.2821 45.1969 50.4304 45.2003 50.575 45.1744C50.7196 45.1484 50.8575 45.0936 50.9805 45.0133C51.1034 44.9329 51.209 44.8286 51.2908 44.7066C51.3727 44.5847 51.4291 44.4474 51.4568 44.3032C51.4845 44.1589 51.4829 44.0105 51.4521 43.8669C51.4213 43.7233 51.3618 43.5873 51.2774 43.4671L44.1825 32.6131C44.0766 32.4698 43.9386 32.3532 43.7795 32.2729C43.6204 32.1926 43.4446 32.1508 43.2664 32.1508C43.0882 32.1508 42.9125 32.1926 42.7534 32.2729C42.5943 32.3532 42.4562 32.4698 42.3504 32.6131L27.5474 55.2409C27.4395 55.4063 27.3782 55.5978 27.3703 55.7952C27.3623 55.9925 27.4078 56.1884 27.5021 56.3619C27.5964 56.5355 27.7358 56.6804 27.9057 56.7811C28.0756 56.8819 28.2696 56.9348 28.4672 56.9343Z" fill="#D268CC"/>
</svg>
