<svg width="100" height="100" viewBox="0 0 100 100" fill="none" xmlns="http://www.w3.org/2000/svg">
<circle cx="50" cy="50" r="50" fill="#E4E8F3"/>
<path d="M32.1168 29.1971H27.7372C27.4468 29.1971 27.1684 29.3124 26.963 29.5177C26.7577 29.7231 26.6423 30.0016 26.6423 30.2919C26.6423 30.5823 26.7577 30.8608 26.963 31.0661C27.1684 31.2715 27.4468 31.3868 27.7372 31.3868H32.1168C32.4072 31.3868 32.6857 31.2715 32.891 31.0661C33.0963 30.8608 33.2117 30.5823 33.2117 30.2919C33.2117 30.0016 33.0963 29.7231 32.891 29.5177C32.6857 29.3124 32.4072 29.1971 32.1168 29.1971Z" fill="#D268CC"/>
<path d="M42.3358 29.1971H37.9562C37.6658 29.1971 37.3873 29.3124 37.182 29.5177C36.9767 29.7231 36.8613 30.0016 36.8613 30.2919C36.8613 30.5823 36.9767 30.8608 37.182 31.0661C37.3873 31.2715 37.6658 31.3868 37.9562 31.3868H42.3358C42.6261 31.3868 42.9046 31.2715 43.11 31.0661C43.3153 30.8608 43.4306 30.5823 43.4306 30.2919C43.4306 30.0016 43.3153 29.7231 43.11 29.5177C42.9046 29.3124 42.6261 29.1971 42.3358 29.1971Z" fill="#D268CC"/>
<path d="M76.2336 33.5766H74.4525V27.781C74.4506 26.802 74.0609 25.8637 73.3686 25.1715C72.6764 24.4793 71.7381 24.0895 70.7591 24.0876H25.5912C24.6123 24.0895 23.6739 24.4793 22.9817 25.1715C22.2895 25.8637 21.8997 26.802 21.8978 27.781V56.8905C21.8997 57.8695 22.2895 58.8078 22.9817 59.5C23.6739 60.1923 24.6123 60.582 25.5912 60.5839H28.4671V68.9343C28.4691 69.8165 28.8204 70.662 29.4442 71.2858C30.0679 71.9095 30.9134 72.2608 31.7956 72.2628H41.927C42.8092 72.2608 43.6547 71.9095 44.2784 71.2858C44.9022 70.662 45.2535 69.8165 45.2555 68.9343V60.5839H50.365V68.9343C50.3669 69.8165 50.7182 70.662 51.342 71.2858C51.9658 71.9095 52.8112 72.2608 53.6934 72.2628H76.2336C77.1157 72.2608 77.9612 71.9095 78.585 71.2858C79.2088 70.662 79.5601 69.8165 79.562 68.9343V36.9051C79.5601 36.0229 79.2088 35.1774 78.585 34.5537C77.9612 33.9299 77.1157 33.5786 76.2336 33.5766ZM41.927 70.073H31.7956C31.4942 70.0711 31.2057 69.9505 30.9925 69.7374C30.7794 69.5242 30.6588 69.2357 30.6569 68.9343V47.1241C30.6588 46.8227 30.7794 46.5342 30.9925 46.321C31.2057 46.1079 31.4942 45.9873 31.7956 45.9854H41.927C42.2284 45.9873 42.5169 46.1079 42.7301 46.321C42.9432 46.5342 43.0638 46.8227 43.0657 47.1241V59.4817V68.9343C43.0638 69.2357 42.9432 69.5242 42.7301 69.7374C42.5169 69.9505 42.2284 70.0711 41.927 70.073ZM45.2555 58.3942V47.1241C45.2535 46.2419 44.9022 45.3964 44.2784 44.7726C43.6547 44.1488 42.8092 43.7975 41.927 43.7956H31.7956C30.9134 43.7975 30.0679 44.1488 29.4442 44.7726C28.8204 45.3964 28.4691 46.2419 28.4671 47.1241V58.3942H25.5912C25.1924 58.3942 24.81 58.2357 24.528 57.9537C24.246 57.6718 24.0876 57.2893 24.0876 56.8905V27.781C24.0876 27.3822 24.246 26.9998 24.528 26.7178C24.81 26.4358 25.1924 26.2774 25.5912 26.2774H70.7591C71.1579 26.2774 71.5404 26.4358 71.8224 26.7178C72.1043 26.9998 72.2628 27.3822 72.2628 27.781V33.5766H53.6934C52.8112 33.5786 51.9658 33.9299 51.342 34.5537C50.7182 35.1774 50.3669 36.0229 50.365 36.9051V58.3942H45.2555ZM77.3723 68.9343C77.3703 69.2357 77.2498 69.5242 77.0366 69.7374C76.8235 69.9505 76.535 70.0711 76.2336 70.073H53.6934C53.392 70.0711 53.1035 69.9505 52.8904 69.7374C52.6772 69.5242 52.5566 69.2357 52.5547 68.9343V36.9051C52.5566 36.6037 52.6772 36.3152 52.8904 36.102C53.1035 35.8889 53.392 35.7683 53.6934 35.7664H76.2336C76.535 35.7683 76.8235 35.8889 77.0366 36.102C77.2498 36.3152 77.3703 36.6037 77.3723 36.9051V68.9343Z" fill="#D268CC"/>
<path d="M64.968 67.5195C65.9758 67.516 66.7899 66.6961 66.7864 65.6883C66.7829 64.6805 65.963 63.8664 64.9552 63.8699C63.9474 63.8734 63.1333 64.6932 63.1368 65.7011C63.1403 66.7089 63.9602 67.523 64.968 67.5195Z" fill="#D268CC"/>
</svg>
