<svg width="489" height="489" viewBox="0 0 489 489" fill="none" xmlns="http://www.w3.org/2000/svg">
<path d="M407.61 389.972H440.003V389.728H407.61V389.972Z" fill="#ECECEC"/>
<path d="M315.431 392.626H323.934V392.381H315.431V392.626Z" fill="#ECECEC"/>
<path d="M387.861 380.89H406.631V380.645H387.861V380.89Z" fill="#ECECEC"/>
<path d="M51.3049 382.534H93.5486V382.289H51.3049V382.534Z" fill="#ECECEC"/>
<path d="M102.256 382.534H108.449V382.289H102.256V382.534Z" fill="#ECECEC"/>
<path d="M128.579 386.663H220.194V386.419H128.579V386.663Z" fill="#ECECEC"/>
<path d="M42.9491 53.9882C40.0053 53.9882 37.6111 56.3823 37.6111 59.3261V324.786C37.6111 327.729 40.0053 330.124 42.9491 330.124H231.8C234.742 330.124 237.137 327.729 237.137 324.786V59.3261C237.137 56.3823 234.742 53.9882 231.8 53.9882H42.9491ZM231.8 330.368H42.9491C39.8713 330.368 37.3666 327.864 37.3666 324.786V59.3261C37.3666 56.2483 39.8713 53.7437 42.9491 53.7437H231.8C234.877 53.7437 237.381 56.2483 237.381 59.3261V324.786C237.381 327.864 234.877 330.368 231.8 330.368Z" fill="#ECECEC"/>
<path d="M254.487 53.9882C251.545 53.9882 249.15 56.3823 249.15 59.3261V324.786C249.15 327.729 251.545 330.124 254.487 330.124H443.338C446.281 330.124 448.676 327.729 448.676 324.786V59.3261C448.676 56.3823 446.281 53.9882 443.338 53.9882H254.487ZM443.338 330.368H254.487C251.411 330.368 248.906 327.864 248.906 324.786V59.3261C248.906 56.2483 251.411 53.7437 254.487 53.7437H443.338C446.416 53.7437 448.921 56.2483 448.921 59.3261V324.786C448.921 327.864 446.416 330.368 443.338 330.368Z" fill="#ECECEC"/>
<path d="M489 374.23H0V373.985H489V374.23Z" fill="#ECECEC"/>
<path d="M285.534 222.554H407.575V92.5863H285.534V222.554Z" fill="#ECECEC"/>
<path d="M292.869 99.9213H400.24V215.22H292.869V99.9213Z" fill="#F5F5F5"/>
<path d="M335.014 215.219H367.288L397.587 99.9208H365.313L335.014 215.219Z" fill="#FAFAFA"/>
<path d="M350.318 99.9212L320.018 215.22H327.842L358.142 99.9212H350.318Z" fill="#FAFAFA"/>
<path d="M409.122 98.7016H283.987L281.347 92.5402H411.763L409.122 98.7016Z" fill="#F5F5F5"/>
<path d="M409.122 102.271H283.987L281.347 96.1093H411.763L409.122 102.271Z" fill="#F0F0F0"/>
<path d="M409.122 105.84H283.987L281.347 99.6785H411.763L409.122 105.84Z" fill="#E7E7E7"/>
<path d="M409.122 109.409H283.987L281.347 103.248H411.763L409.122 109.409Z" fill="#E1E1E1"/>
<path d="M416.31 93.0391H276.798V84.8229H416.31V93.0391Z" fill="#E1E1E1"/>
<path d="M278.231 167.523C277.447 167.523 276.811 166.887 276.811 166.104V118.188C276.811 117.404 277.447 116.769 278.231 116.769C279.014 116.769 279.65 117.404 279.65 118.188V166.104C279.65 166.887 279.014 167.523 278.231 167.523Z" fill="#E1E1E1"/>
<path d="M278.745 119.849H277.718V91.3912H278.745V119.849Z" fill="#E1E1E1"/>
<path d="M88.5334 227.349H86.773V90.0709H88.5334V227.349Z" fill="#E1E1E1"/>
<path d="M198.118 227.349H196.358V90.0709H198.118V227.349Z" fill="#E1E1E1"/>
<path d="M205.013 98.7016H79.8778L77.2372 92.5402H207.654L205.013 98.7016Z" fill="#F5F5F5"/>
<path d="M205.013 107.161H79.8778L77.2372 100.999H207.654L205.013 107.161Z" fill="#F5F5F5"/>
<path d="M205.013 115.62H79.8778L77.2372 109.458H207.654L205.013 115.62Z" fill="#F5F5F5"/>
<path d="M205.013 124.079H79.8778L77.2372 117.918H207.654L205.013 124.079Z" fill="#F5F5F5"/>
<path d="M205.013 132.538H79.8778L77.2372 126.377H207.654L205.013 132.538Z" fill="#F5F5F5"/>
<path d="M205.013 140.997H79.8778L77.2372 134.836H207.654L205.013 140.997Z" fill="#F5F5F5"/>
<path d="M205.013 149.456H79.8778L77.2372 143.295H207.654L205.013 149.456Z" fill="#F5F5F5"/>
<path d="M205.013 157.915H79.8778L77.2372 151.754H207.654L205.013 157.915Z" fill="#F5F5F5"/>
<path d="M205.013 166.374H79.8778L77.2372 160.213H207.654L205.013 166.374Z" fill="#F5F5F5"/>
<path d="M205.013 174.833H79.8778L77.2372 168.672H207.654L205.013 174.833Z" fill="#F5F5F5"/>
<path d="M205.013 183.292H79.8778L77.2372 177.131H207.654L205.013 183.292Z" fill="#F5F5F5"/>
<path d="M205.013 191.751H79.8778L77.2372 185.59H207.654L205.013 191.751Z" fill="#F5F5F5"/>
<path d="M205.013 200.211H79.8778L77.2372 194.049H207.654L205.013 200.211Z" fill="#F5F5F5"/>
<path d="M205.013 208.67H79.8778L77.2372 202.508H207.654L205.013 208.67Z" fill="#F5F5F5"/>
<path d="M205.013 217.129H79.8778L77.2372 210.968H207.654L205.013 217.129Z" fill="#F5F5F5"/>
<path d="M205.013 225.588H79.8778L77.2372 219.427H207.654L205.013 225.588Z" fill="#F5F5F5"/>
<path d="M207.654 229.109H77.2375V225.588H207.654V229.109Z" fill="#E1E1E1"/>
<path d="M212.202 93.0391H72.6898V84.8229H212.202V93.0391Z" fill="#E1E1E1"/>
<path d="M74.1219 167.523C73.3376 167.523 72.7029 166.887 72.7029 166.104V118.188C72.7029 117.404 73.3376 116.769 74.1219 116.769C74.9063 116.769 75.541 117.404 75.541 118.188V166.104C75.541 166.887 74.9063 167.523 74.1219 167.523Z" fill="#E1E1E1"/>
<path d="M74.6351 119.849H73.6082V91.3912H74.6351V119.849Z" fill="#E1E1E1"/>
<path d="M87.3521 315.285C87.2328 315.419 87.892 316.337 85.2122 315.935C78.6127 314.942 67.1202 312.27 63.9202 305.478C59.351 295.783 73.5173 299.323 73.0283 294.366C72.5393 289.412 56.4219 290.275 54.7094 283.005C52.9969 275.735 63.931 279.197 64.0757 275.655C64.2214 272.112 51.6248 274.31 49.1241 266.468C46.6233 258.625 56.1441 264.398 55.0498 261.138C53.9554 257.878 43.3001 243.127 49.0976 241.414C54.8972 239.702 64.6645 254.838 68.4347 256.984C72.2039 259.128 75.5525 246.774 80.0455 251.99C84.5394 257.206 77.4127 275.456 83.1438 278.997C87.4118 281.635 86.2059 274.369 91.8392 275.726C99.491 277.568 96.917 304.586 87.3521 315.285Z" fill="#ECECEC"/>
<path d="M66.9813 275.695C69.5778 275.913 71.4947 276.441 72.6849 276.866C70.3593 273.46 68.6869 271.713 68.6262 271.652C68.4375 271.459 68.4395 271.151 68.6321 270.96C68.8238 270.772 69.1329 270.774 69.3236 270.965C69.3695 271.012 73.2277 274.986 77.4517 282.759C79.527 270.253 74.2889 259.321 74.2341 259.209C74.1451 259.027 74.2214 258.807 74.4023 258.719C74.5832 258.628 74.8043 258.704 74.8933 258.886C74.95 259.004 80.5412 270.669 78.0072 283.793C78.682 285.081 79.3618 286.457 80.0336 287.936C81.975 292.206 84.0043 297.681 85.6092 304.281C86.7241 302.268 89.2767 296.877 89.5056 289.354C89.5114 289.152 89.6806 288.994 89.8831 288.999C90.0885 289.012 90.2449 289.175 90.2381 289.376C89.974 298.084 86.6381 304.038 85.8635 305.308C87.9877 314.463 89.2611 325.731 88.3466 339.006C88.3271 339.276 88.0933 339.479 87.8244 339.46C87.8038 339.459 87.7843 339.456 87.7637 339.453C87.5251 339.407 87.354 339.188 87.3706 338.939C88.5814 321.362 85.9525 307.235 82.3153 296.538C81.3921 295.471 78.6644 292.73 74.5119 292.086C74.3241 292.04 74.1744 291.866 74.2067 291.666C74.238 291.466 74.4258 291.328 74.6253 291.36C77.9084 291.881 80.3143 293.583 81.7432 294.898C79.0596 287.465 75.9358 281.816 73.4057 277.948C72.5891 277.58 70.3612 276.714 66.9206 276.426C66.7211 276.401 66.5685 276.233 66.5852 276.03C66.6018 275.828 66.7788 275.678 66.9813 275.695Z" fill="#F5F5F5"/>
<path d="M95.8084 319.03C101.293 319.133 110.661 314.04 114.339 309.085C118.07 304.056 107.573 307.176 108.651 303.228C109.728 299.28 122.671 302.198 125.059 296.543C127.449 290.888 118.111 292.187 118.48 289.297C118.851 286.406 128.525 286.993 131.631 280.982C134.737 274.971 126.227 278.339 127.563 275.848C128.898 273.356 139.564 262.869 135.101 260.684C130.637 258.497 120.639 269.419 117.288 270.639C113.939 271.858 113.155 264.313 108.797 267.921C104.437 271.531 107.701 287.3 102.569 289.381C98.7473 290.932 100.373 283.711 95.9727 285.533C88.27 288.722 93.5815 318.987 95.8084 319.03Z" fill="#E1E1E1"/>
<g opacity="0.300003">
<g opacity="0.300003">
<path opacity="0.300003" d="M95.8084 319.03C101.293 319.133 110.661 314.04 114.339 309.085C118.07 304.056 107.573 307.176 108.651 303.228C109.728 299.28 122.671 302.198 125.059 296.543C127.449 290.888 118.111 292.187 118.48 289.297C118.851 286.406 128.525 286.993 131.631 280.982C134.737 274.971 126.227 278.339 127.563 275.848C128.898 273.356 139.564 262.869 135.101 260.684C130.637 258.497 120.639 269.419 117.288 270.639C113.939 271.858 113.155 264.313 108.797 267.921C104.437 271.531 107.701 287.3 102.569 289.381C98.7473 290.932 100.373 283.711 95.9727 285.533C88.27 288.722 93.5815 318.987 95.8084 319.03Z" fill="#E1E1E1"/>
</g>
</g>
<path d="M97.6197 312.447C97.5404 312.416 97.4681 312.368 97.426 312.287C97.2969 312.043 94.2915 306.228 94.9654 297.584C94.982 297.383 95.1522 297.234 95.3595 297.247C95.5619 297.264 95.7126 297.439 95.6969 297.641C95.1277 304.939 97.3057 310.281 97.917 311.614C100.373 304.95 103.315 299.02 106.269 293.946C105.299 282.169 111.333 272.527 111.395 272.43C111.504 272.259 111.73 272.208 111.901 272.318C112.073 272.426 112.123 272.653 112.014 272.823C111.956 272.915 106.414 281.782 106.931 292.811C113.96 281.038 120.821 274.198 120.958 274.063C121.15 273.875 121.46 273.876 121.649 274.07C121.839 274.262 121.836 274.572 121.642 274.762C121.528 274.874 116.65 279.748 110.939 288.296C114.286 287.051 117.915 286.404 121.308 286.469C121.51 286.473 121.671 286.641 121.667 286.844C121.663 287.044 121.499 287.203 121.3 287.203H121.293C117.661 287.138 113.752 287.897 110.234 289.357C108.27 292.367 106.231 295.806 104.266 299.62C106.152 298.344 109.813 296.58 114.497 297.818C114.694 297.87 114.81 298.071 114.758 298.266C114.706 298.462 114.507 298.582 114.31 298.527C108.369 296.96 104.181 300.51 103.495 301.141C98.1175 311.972 93.4798 325.663 92.8646 341.352C92.8548 341.615 92.6377 341.821 92.3766 341.821H92.357C92.0871 341.811 91.8768 341.584 91.8876 341.314C92.3033 330.697 94.5517 320.993 97.6197 312.447Z" fill="#F5F5F5"/>
<path d="M80.3849 372.602C75.1496 362.758 71.711 348.535 71.711 342.301C71.711 337.032 74.1814 332.302 78.1032 328.991H104.911C108.832 332.302 111.302 337.032 111.302 342.301C111.302 348.535 107.864 362.758 102.628 372.602H80.3849Z" fill="#F0F0F0"/>
<path d="M218.451 177.625C202.067 184.608 166.365 165.704 149.082 161.399C105.476 150.54 54.7586 168.861 59.0677 229.848C64.9601 313.226 188.045 404.855 316.724 360.986C381.723 338.826 434.942 276.89 434.815 202.591C434.585 67.576 306.573 63.0029 266.349 96.8612C228.678 128.571 240.047 168.422 218.451 177.625Z" fill="#D268CC"/>
<g opacity="0.899994">
<g opacity="0.899994">
<path opacity="0.899994" d="M218.451 177.625C202.067 184.608 166.365 165.704 149.082 161.399C105.476 150.54 54.7586 168.861 59.0677 229.848C64.9601 313.226 188.045 404.855 316.724 360.986C381.723 338.826 434.942 276.89 434.815 202.591C434.585 67.576 306.573 63.0029 266.349 96.8612C228.678 128.571 240.047 168.422 218.451 177.625Z" fill="white"/>
</g>
</g>
<path d="M429.408 403.318C429.408 409.434 344.51 414.392 239.784 414.392C135.058 414.392 50.1607 409.434 50.1607 403.318C50.1607 397.203 135.058 392.244 239.784 392.244C344.51 392.244 429.408 397.203 429.408 403.318Z" fill="#F5F5F5"/>
<path d="M286.214 117.008H262.758C261.222 117.008 259.825 118.15 259.498 119.675L259.339 120.409C258.539 124.13 255.128 126.919 251.375 126.919H229.077C225.325 126.919 222.402 124.13 222.253 120.409L222.223 119.675C222.161 118.15 220.965 117.008 219.429 117.008H195.974C188.151 117.008 181.255 123.35 180.57 131.173L161.7 346.859C161.015 354.683 166.802 361.023 174.625 361.023H264.865C272.688 361.023 279.585 354.683 280.268 346.859L299.139 131.173C299.824 123.35 294.037 117.008 286.214 117.008Z" fill="#91388B"/>
<g opacity="0.699997">
<g opacity="0.699997">
<path opacity="0.699997" d="M286.214 117.008H262.758C261.222 117.008 259.825 118.15 259.498 119.675L259.339 120.409C258.539 124.13 255.128 126.919 251.375 126.919H229.077C225.325 126.919 222.402 124.13 222.253 120.409L222.223 119.675C222.161 118.15 220.965 117.008 219.429 117.008H195.974C188.151 117.008 181.255 123.35 180.57 131.173L161.7 346.859C161.015 354.683 166.802 361.023 174.625 361.023H264.865C272.688 361.023 279.585 354.683 280.268 346.859L299.139 131.173C299.824 123.35 294.037 117.008 286.214 117.008Z" fill="white"/>
</g>
</g>
<path d="M277.067 216.212H229.15C227.412 216.212 226.126 214.802 226.278 213.063L229.888 171.803C230.04 170.065 231.573 168.656 233.311 168.656H281.228C282.967 168.656 284.253 170.065 284.1 171.803L280.49 213.063C280.339 214.802 278.805 216.212 277.067 216.212Z" fill="white"/>
<path d="M261.111 345.229H180.928C176.611 345.229 173.418 341.729 173.795 337.412C174.173 333.096 177.979 329.596 182.296 329.596H262.478C266.795 329.596 269.989 333.096 269.611 337.412C269.234 341.729 265.428 345.229 261.111 345.229Z" fill="white"/>
<path d="M267.516 157.313H193.941C191.517 157.313 189.724 155.348 189.936 152.925L190.536 146.069C190.748 143.644 192.885 141.681 195.308 141.681H268.883C271.308 141.681 273.101 143.644 272.888 146.069L272.289 152.925C272.077 155.348 269.941 157.313 267.516 157.313Z" fill="white"/>
<path d="M282.476 145.844C282.417 146.519 281.823 147.065 281.148 147.065C280.473 147.065 279.974 146.519 280.033 145.844C280.092 145.169 280.687 144.622 281.361 144.622C282.036 144.622 282.536 145.169 282.476 145.844Z" fill="white"/>
<path d="M282.157 149.496C282.098 150.17 281.503 150.718 280.828 150.718C280.154 150.718 279.655 150.17 279.713 149.496C279.772 148.822 280.367 148.275 281.042 148.275C281.716 148.275 282.216 148.822 282.157 149.496Z" fill="white"/>
<path d="M281.837 153.149C281.777 153.824 281.184 154.37 280.509 154.37C279.834 154.37 279.335 153.824 279.394 153.149C279.453 152.475 280.047 151.927 280.722 151.927C281.397 151.927 281.897 152.475 281.837 153.149Z" fill="white"/>
<path d="M271.111 284.287H181.591C179.852 284.287 178.567 282.877 178.719 281.138L182.839 234.043C182.991 232.305 184.523 230.895 186.262 230.895H275.782C277.521 230.895 278.807 232.305 278.655 234.043L274.534 281.138C274.383 282.877 272.849 284.287 271.111 284.287Z" fill="white"/>
<path d="M206.22 294.127H178.351C177.927 294.127 177.613 293.782 177.65 293.358C177.687 292.933 178.062 292.589 178.486 292.589H206.355C206.78 292.589 207.094 292.933 207.056 293.358C207.019 293.782 206.645 294.127 206.22 294.127Z" fill="white"/>
<path d="M241.056 294.127H211.137C210.711 294.127 210.397 293.782 210.434 293.358C210.472 292.933 210.846 292.589 211.271 292.589H241.19C241.615 292.589 241.929 292.933 241.892 293.358C241.855 293.782 241.48 294.127 241.056 294.127Z" fill="white"/>
<path d="M196.61 300.918H177.757C177.333 300.918 177.018 300.573 177.055 300.15C177.092 299.724 177.467 299.381 177.891 299.381H196.745C197.17 299.381 197.484 299.724 197.446 300.15C197.409 300.573 197.035 300.918 196.61 300.918Z" fill="white"/>
<path d="M232.409 300.918H201.526C201.101 300.918 200.787 300.573 200.824 300.15C200.861 299.724 201.235 299.381 201.66 299.381H232.543C232.968 299.381 233.282 299.724 233.245 300.15C233.208 300.573 232.833 300.918 232.409 300.918Z" fill="white"/>
<path d="M227.424 307.71H177.163C176.738 307.71 176.425 307.365 176.462 306.941C176.499 306.516 176.873 306.172 177.298 306.172H227.559C227.984 306.172 228.298 306.516 228.261 306.941C228.223 307.365 227.849 307.71 227.424 307.71Z" fill="white"/>
<path d="M235.659 307.71H232.34C231.915 307.71 231.601 307.365 231.639 306.941C231.676 306.516 232.05 306.172 232.475 306.172H235.793C236.218 306.172 236.532 306.516 236.495 306.941C236.458 307.365 236.084 307.71 235.659 307.71Z" fill="white"/>
<path d="M200.035 314.502H176.569C176.145 314.502 175.83 314.157 175.868 313.733C175.904 313.308 176.279 312.964 176.703 312.964H200.17C200.595 312.964 200.908 313.308 200.871 313.733C200.834 314.157 200.46 314.502 200.035 314.502Z" fill="white"/>
<path d="M234.167 314.502H204.95C204.525 314.502 204.211 314.157 204.248 313.733C204.285 313.308 204.66 312.964 205.084 312.964H234.302C234.727 312.964 235.041 313.308 235.003 313.733C234.966 314.157 234.593 314.502 234.167 314.502Z" fill="white"/>
<path d="M204.869 321.293H175.975C175.549 321.293 175.236 320.949 175.272 320.524C175.31 320.1 175.684 319.756 176.109 319.756H205.004C205.428 319.756 205.742 320.1 205.705 320.524C205.668 320.949 205.293 321.293 204.869 321.293Z" fill="white"/>
<path d="M233.061 321.293H209.785C209.36 321.293 209.045 320.949 209.083 320.524C209.121 320.1 209.494 319.756 209.919 319.756H233.195C233.62 319.756 233.935 320.1 233.896 320.524C233.86 320.949 233.486 321.293 233.061 321.293Z" fill="white"/>
<path d="M275.929 212.306C275.537 212.712 274.915 212.751 274.541 212.393L234.515 174.194C234.141 173.838 234.156 173.219 234.548 172.814C234.941 172.409 235.563 172.37 235.937 172.726L275.962 210.925C276.337 211.283 276.321 211.9 275.929 212.306Z" fill="#A552A0"/>
<path d="M230.973 212.291C230.652 211.885 230.745 211.268 231.182 210.91L251.598 194.214C252.036 193.857 252.65 193.896 252.972 194.301C253.293 194.706 253.2 195.325 252.763 195.682L232.346 212.378C231.909 212.736 231.295 212.697 230.973 212.291Z" fill="#A552A0"/>
<path d="M257.358 190.713C257.037 190.307 257.13 189.69 257.567 189.332L278.022 172.605C278.459 172.248 279.073 172.287 279.395 172.692C279.716 173.098 279.624 173.716 279.186 174.073L258.731 190.8C258.295 191.158 257.68 191.119 257.358 190.713Z" fill="#A552A0"/>
<g opacity="0.699997">
<g opacity="0.699997">
<path opacity="0.699997" d="M275.929 212.306C275.537 212.712 274.915 212.751 274.541 212.393L234.515 174.194C234.141 173.838 234.156 173.219 234.548 172.814C234.941 172.409 235.563 172.37 235.937 172.726L275.962 210.925C276.337 211.283 276.321 211.9 275.929 212.306Z" fill="white"/>
</g>
</g>
<g opacity="0.699997">
<g opacity="0.699997">
<path opacity="0.699997" d="M230.973 212.291C230.652 211.885 230.745 211.268 231.182 210.91L251.598 194.214C252.036 193.857 252.65 193.896 252.972 194.301C253.293 194.706 253.2 195.325 252.763 195.682L232.346 212.378C231.909 212.736 231.295 212.697 230.973 212.291Z" fill="white"/>
</g>
</g>
<g opacity="0.699997">
<g opacity="0.699997">
<path opacity="0.699997" d="M257.358 190.713C257.037 190.307 257.13 189.69 257.567 189.332L278.022 172.605C278.459 172.248 279.073 172.287 279.395 172.692C279.716 173.098 279.624 173.716 279.186 174.073L258.731 190.8C258.295 191.158 257.68 191.119 257.358 190.713Z" fill="white"/>
</g>
</g>
<path d="M163.409 129.792H148.116C147.989 129.792 147.873 129.74 147.789 129.656L148.769 126.979C149.4 125.256 151.04 124.11 152.875 124.11H158.65C160.485 124.11 162.125 125.256 162.756 126.979L163.735 129.656C163.652 129.74 163.536 129.792 163.409 129.792ZM155.763 116.815C157.675 116.815 158.703 118.364 158.703 120.277C158.703 122.188 157.675 123.738 155.763 123.738C153.851 123.738 152.822 122.188 152.822 120.277C152.822 118.364 153.851 116.815 155.763 116.815ZM162.096 112.318H149.428C146.86 112.318 144.778 114.401 144.778 116.969V129.637C144.778 132.205 146.86 134.288 149.428 134.288H162.096C164.666 134.288 166.748 132.205 166.748 129.637V116.969C166.748 114.401 164.666 112.318 162.096 112.318Z" fill="#D268CC"/>
<g opacity="0.699997">
<g opacity="0.699997">
<path opacity="0.699997" d="M163.409 129.792H148.116C147.989 129.792 147.873 129.74 147.789 129.656L148.769 126.979C149.4 125.256 151.04 124.11 152.875 124.11H158.65C160.485 124.11 162.125 125.256 162.756 126.979L163.735 129.656C163.652 129.74 163.536 129.792 163.409 129.792ZM155.763 116.815C157.675 116.815 158.703 118.364 158.703 120.277C158.703 122.188 157.675 123.738 155.763 123.738C153.851 123.738 152.822 122.188 152.822 120.277C152.822 118.364 153.851 116.815 155.763 116.815ZM162.096 112.318H149.428C146.86 112.318 144.778 114.401 144.778 116.969V129.637C144.778 132.205 146.86 134.288 149.428 134.288H162.096C164.666 134.288 166.748 132.205 166.748 129.637V116.969C166.748 114.401 164.666 112.318 162.096 112.318Z" fill="white"/>
</g>
</g>
<path d="M112.213 180.749C112.213 180.749 108.259 176.448 108.259 174.264C108.259 172.08 110.029 170.31 112.213 170.31C114.397 170.31 116.167 172.08 116.167 174.264C116.167 176.448 112.213 180.749 112.213 180.749ZM117.026 164.418H107.401C103.94 164.418 101.134 167.223 101.134 170.683V180.309C101.134 183.769 103.94 186.574 107.401 186.574H117.026C120.486 186.574 123.291 183.769 123.291 180.309V170.683C123.291 167.223 120.486 164.418 117.026 164.418Z" fill="#D268CC"/>
<path d="M112.213 172.459C111.217 172.459 110.409 173.267 110.409 174.264C110.409 175.26 111.217 176.068 112.213 176.068C113.21 176.068 114.018 175.26 114.018 174.264C114.018 173.267 113.21 172.459 112.213 172.459Z" fill="#D268CC"/>
<g opacity="0.699997">
<g opacity="0.699997">
<path opacity="0.699997" d="M112.213 180.749C112.213 180.749 108.259 176.448 108.259 174.264C108.259 172.08 110.029 170.31 112.213 170.31C114.397 170.31 116.167 172.08 116.167 174.264C116.167 176.448 112.213 180.749 112.213 180.749ZM117.026 164.418H107.401C103.94 164.418 101.134 167.223 101.134 170.683V180.309C101.134 183.769 103.94 186.574 107.401 186.574H117.026C120.486 186.574 123.291 183.769 123.291 180.309V170.683C123.291 167.223 120.486 164.418 117.026 164.418Z" fill="white"/>
</g>
<g opacity="0.699997">
<path opacity="0.699997" d="M112.213 172.459C111.217 172.459 110.409 173.267 110.409 174.264C110.409 175.26 111.217 176.068 112.213 176.068C113.21 176.068 114.018 175.26 114.018 174.264C114.018 173.267 113.21 172.459 112.213 172.459Z" fill="white"/>
</g>
</g>
<path d="M328.312 137.149L334.759 132.976L328.312 128.803V137.149Z" fill="#D268CC"/>
<path d="M330.478 141.157C325.96 141.157 322.298 137.494 322.298 132.976C322.297 128.458 325.96 124.796 330.478 124.796C334.997 124.796 338.659 128.458 338.659 132.976C338.659 137.494 334.997 141.157 330.478 141.157ZM336.618 121.602H324.338C321.448 121.602 319.105 123.945 319.105 126.836V139.117C319.105 142.007 321.448 144.35 324.338 144.35H336.618C339.509 144.35 341.852 142.007 341.852 139.117V126.836C341.852 123.945 339.509 121.602 336.618 121.602Z" fill="#D268CC"/>
<g opacity="0.699997">
<g opacity="0.699997">
<path opacity="0.699997" d="M328.312 137.149L334.759 132.976L328.312 128.803V137.149Z" fill="white"/>
</g>
<g opacity="0.699997">
<path opacity="0.699997" d="M330.478 141.157C325.96 141.157 322.298 137.494 322.298 132.976C322.297 128.458 325.96 124.796 330.478 124.796C334.997 124.796 338.659 128.458 338.659 132.976C338.659 137.494 334.997 141.157 330.478 141.157ZM336.618 121.602H324.338C321.448 121.602 319.105 123.945 319.105 126.836V139.117C319.105 142.007 321.448 144.35 324.338 144.35H336.618C339.509 144.35 341.852 142.007 341.852 139.117V126.836C341.852 123.945 339.509 121.602 336.618 121.602Z" fill="white"/>
</g>
</g>
<path d="M340.151 174.502C336.955 174.502 334.364 171.911 334.364 168.715C334.364 165.52 336.955 162.929 340.151 162.929C343.347 162.929 345.938 165.52 345.938 168.715C345.938 171.911 343.347 174.502 340.151 174.502ZM348.674 168.715C348.674 168.462 348.661 168.21 348.639 167.962L350.115 167.142C350.005 166.433 349.818 165.748 349.566 165.095L347.88 165.124C347.667 164.665 347.414 164.229 347.125 163.819L347.993 162.373C347.547 161.822 347.044 161.319 346.494 160.873L345.047 161.741C344.637 161.452 344.202 161.199 343.743 160.986L343.771 159.301C343.118 159.049 342.434 158.863 341.724 158.751L340.904 160.227C340.656 160.205 340.406 160.193 340.151 160.193C339.897 160.193 339.647 160.205 339.398 160.227L338.579 158.751C337.869 158.863 337.184 159.049 336.531 159.301L336.559 160.986C336.1 161.199 335.665 161.452 335.255 161.741L333.809 160.873C333.258 161.319 332.756 161.822 332.31 162.373L333.177 163.819C332.889 164.229 332.635 164.665 332.422 165.124L330.736 165.095C330.485 165.748 330.298 166.433 330.187 167.142L331.663 167.962C331.641 168.21 331.628 168.462 331.628 168.715C331.628 168.969 331.641 169.221 331.663 169.469L330.187 170.289C330.298 170.999 330.485 171.683 330.736 172.336L332.422 172.307C332.635 172.766 332.889 173.202 333.177 173.612L332.31 175.058C332.756 175.609 333.258 176.112 333.809 176.558L335.255 175.69C335.665 175.979 336.1 176.232 336.559 176.445L336.531 178.13C337.184 178.382 337.869 178.568 338.579 178.68L339.398 177.204C339.647 177.226 339.897 177.238 340.151 177.238C340.406 177.238 340.656 177.226 340.904 177.204L341.724 178.68C342.434 178.568 343.118 178.382 343.771 178.13L343.743 176.445C344.202 176.232 344.637 175.979 345.047 175.69L346.494 176.558C347.044 176.112 347.547 175.609 347.993 175.058L347.125 173.612C347.414 173.202 347.667 172.766 347.88 172.307L349.566 172.336C349.818 171.683 350.005 170.999 350.115 170.289L348.639 169.469C348.661 169.221 348.674 168.969 348.674 168.715Z" fill="#B67CB3"/>
<g opacity="0.699997">
<g opacity="0.699997">
<path opacity="0.699997" d="M340.151 174.502C336.955 174.502 334.364 171.911 334.364 168.715C334.364 165.52 336.955 162.929 340.151 162.929C343.347 162.929 345.938 165.52 345.938 168.715C345.938 171.911 343.347 174.502 340.151 174.502ZM348.674 168.715C348.674 168.462 348.661 168.21 348.639 167.962L350.115 167.142C350.005 166.433 349.818 165.748 349.566 165.095L347.88 165.124C347.667 164.665 347.414 164.229 347.125 163.819L347.993 162.373C347.547 161.822 347.044 161.319 346.494 160.873L345.047 161.741C344.637 161.452 344.202 161.199 343.743 160.986L343.771 159.301C343.118 159.049 342.434 158.863 341.724 158.751L340.904 160.227C340.656 160.205 340.406 160.193 340.151 160.193C339.897 160.193 339.647 160.205 339.398 160.227L338.579 158.751C337.869 158.863 337.184 159.049 336.531 159.301L336.559 160.986C336.1 161.199 335.665 161.452 335.255 161.741L333.809 160.873C333.258 161.319 332.756 161.822 332.31 162.373L333.177 163.819C332.889 164.229 332.635 164.665 332.422 165.124L330.736 165.095C330.485 165.748 330.298 166.433 330.187 167.142L331.663 167.962C331.641 168.21 331.628 168.462 331.628 168.715C331.628 168.969 331.641 169.221 331.663 169.469L330.187 170.289C330.298 170.999 330.485 171.683 330.736 172.336L332.422 172.307C332.635 172.766 332.889 173.202 333.177 173.612L332.31 175.058C332.756 175.609 333.258 176.112 333.809 176.558L335.255 175.69C335.665 175.979 336.1 176.232 336.559 176.445L336.531 178.13C337.184 178.382 337.869 178.568 338.579 178.68L339.398 177.204C339.647 177.226 339.897 177.238 340.151 177.238C340.406 177.238 340.656 177.226 340.904 177.204L341.724 178.68C342.434 178.568 343.118 178.382 343.771 178.13L343.743 176.445C344.202 176.232 344.637 175.979 345.047 175.69L346.494 176.558C347.044 176.112 347.547 175.609 347.993 175.058L347.125 173.612C347.414 173.202 347.667 172.766 347.88 172.307L349.566 172.336C349.818 171.683 350.005 170.999 350.115 170.289L348.639 169.469C348.661 169.221 348.674 168.969 348.674 168.715Z" fill="white"/>
</g>
</g>
<path d="M313.642 202.817C310.867 202.817 308.617 200.568 308.617 197.792C308.617 195.017 310.867 192.767 313.642 192.767C316.418 192.767 318.668 195.017 318.668 197.792C318.668 200.568 316.418 202.817 313.642 202.817ZM326.391 197.792C326.391 197.412 326.372 197.037 326.339 196.665L328.547 195.439C328.38 194.377 328.102 193.353 327.725 192.377L325.204 192.419C324.885 191.733 324.506 191.081 324.074 190.468L325.372 188.304C324.705 187.481 323.953 186.729 323.13 186.062L320.966 187.359C320.353 186.927 319.701 186.549 319.015 186.23L319.057 183.708C318.081 183.332 317.057 183.054 315.995 182.887L314.769 185.095C314.397 185.062 314.022 185.043 313.642 185.043C313.263 185.043 312.888 185.062 312.516 185.095L311.289 182.887C310.228 183.054 309.204 183.332 308.228 183.708L308.269 186.23C307.583 186.549 306.931 186.927 306.319 187.359L304.154 186.062C303.331 186.729 302.579 187.481 301.912 188.304L303.21 190.468C302.778 191.081 302.4 191.733 302.08 192.419L299.559 192.377C299.183 193.353 298.904 194.377 298.737 195.439L300.946 196.665C300.912 197.037 300.893 197.412 300.893 197.792C300.893 198.172 300.912 198.547 300.946 198.918L298.737 200.145C298.904 201.207 299.183 202.23 299.559 203.206L302.08 203.164C302.4 203.851 302.778 204.503 303.21 205.116L301.912 207.279C302.579 208.103 303.331 208.854 304.154 209.521L306.319 208.224C306.931 208.656 307.583 209.034 308.269 209.354L308.228 211.875C309.204 212.251 310.228 212.531 311.289 212.697L312.516 210.488C312.888 210.521 313.263 210.541 313.642 210.541C314.022 210.541 314.397 210.521 314.769 210.488L315.995 212.697C317.057 212.531 318.081 212.251 319.057 211.875L319.015 209.354C319.701 209.034 320.353 208.656 320.966 208.224L323.13 209.521C323.953 208.854 324.705 208.103 325.372 207.279L324.074 205.116C324.506 204.503 324.885 203.851 325.204 203.164L327.725 203.206C328.102 202.23 328.38 201.207 328.547 200.145L326.339 198.918C326.372 198.547 326.391 198.172 326.391 197.792Z" fill="#B67CB3"/>
<g opacity="0.699997">
<g opacity="0.699997">
<path opacity="0.699997" d="M313.642 202.817C310.867 202.817 308.617 200.568 308.617 197.792C308.617 195.017 310.867 192.767 313.642 192.767C316.418 192.767 318.668 195.017 318.668 197.792C318.668 200.568 316.418 202.817 313.642 202.817ZM326.391 197.792C326.391 197.412 326.372 197.037 326.339 196.665L328.547 195.439C328.38 194.377 328.102 193.353 327.725 192.377L325.204 192.419C324.885 191.733 324.506 191.081 324.074 190.468L325.372 188.304C324.705 187.481 323.953 186.729 323.13 186.062L320.966 187.359C320.353 186.927 319.701 186.549 319.015 186.23L319.057 183.708C318.081 183.332 317.057 183.054 315.995 182.887L314.769 185.095C314.397 185.062 314.022 185.043 313.642 185.043C313.263 185.043 312.888 185.062 312.516 185.095L311.289 182.887C310.228 183.054 309.204 183.332 308.228 183.708L308.269 186.23C307.583 186.549 306.931 186.927 306.319 187.359L304.154 186.062C303.331 186.729 302.579 187.481 301.912 188.304L303.21 190.468C302.778 191.081 302.4 191.733 302.08 192.419L299.559 192.377C299.183 193.353 298.904 194.377 298.737 195.439L300.946 196.665C300.912 197.037 300.893 197.412 300.893 197.792C300.893 198.172 300.912 198.547 300.946 198.918L298.737 200.145C298.904 201.207 299.183 202.23 299.559 203.206L302.08 203.164C302.4 203.851 302.778 204.503 303.21 205.116L301.912 207.279C302.579 208.103 303.331 208.854 304.154 209.521L306.319 208.224C306.931 208.656 307.583 209.034 308.269 209.354L308.228 211.875C309.204 212.251 310.228 212.531 311.289 212.697L312.516 210.488C312.888 210.521 313.263 210.541 313.642 210.541C314.022 210.541 314.397 210.521 314.769 210.488L315.995 212.697C317.057 212.531 318.081 212.251 319.057 211.875L319.015 209.354C319.701 209.034 320.353 208.656 320.966 208.224L323.13 209.521C323.953 208.854 324.705 208.103 325.372 207.279L324.074 205.116C324.506 204.503 324.885 203.851 325.204 203.164L327.725 203.206C328.102 202.23 328.38 201.207 328.547 200.145L326.339 198.918C326.372 198.547 326.391 198.172 326.391 197.792Z" fill="white"/>
</g>
</g>
<path d="M290.434 141.087V146.21L285.558 148.782C284.713 149.227 284.713 150.438 285.558 150.883L290.434 153.455V158.578C290.434 159.721 291.361 160.649 292.504 160.649H309.996C311.139 160.649 312.066 159.721 312.066 158.578V141.087C312.066 139.943 311.139 139.017 309.996 139.017H292.504C291.361 139.017 290.434 139.943 290.434 141.087Z" fill="#A552A0"/>
<g opacity="0.899994">
<g opacity="0.899994">
<path opacity="0.899994" d="M296.455 146.423H306.394C307.069 146.423 307.615 145.877 307.615 145.202C307.615 144.528 307.069 143.98 306.394 143.98H296.455C295.781 143.98 295.234 144.528 295.234 145.202C295.234 145.877 295.781 146.423 296.455 146.423Z" fill="white"/>
</g>
<g opacity="0.899994">
<path opacity="0.899994" d="M306.394 148.611H296.456C295.781 148.611 295.234 149.158 295.234 149.833C295.234 150.506 295.781 151.054 296.456 151.054H306.394C307.068 151.054 307.615 150.506 307.615 149.833C307.615 149.158 307.068 148.611 306.394 148.611Z" fill="white"/>
</g>
<g opacity="0.899994">
<path opacity="0.899994" d="M306.394 153.241H296.456C295.781 153.241 295.234 153.789 295.234 154.463C295.234 155.138 295.781 155.684 296.456 155.684H306.394C307.068 155.684 307.616 155.138 307.616 154.463C307.616 153.789 307.068 153.241 306.394 153.241Z" fill="white"/>
</g>
</g>
<path d="M191.587 133.044H195.766L197.92 137.127C198.543 138.309 200.235 138.309 200.858 137.127L203.011 133.044H207.19C208.855 133.044 210.205 131.695 210.205 130.03V114.427C210.205 112.763 208.855 111.413 207.19 111.413H191.587C189.923 111.413 188.573 112.763 188.573 114.427V130.03C188.573 131.695 189.923 133.044 191.587 133.044Z" fill="#A552A0"/>
<g opacity="0.899994">
<g opacity="0.899994">
<path opacity="0.899994" d="M199.4 116.076L194.579 118.896V127.128H198.165V121.602H200.634V127.128H204.22V118.896L199.4 116.076Z" fill="white"/>
</g>
</g>
<path d="M238.436 356.765H234.675L232.274 352.212C231.756 351.23 230.35 351.23 229.831 352.212L227.43 356.765H223.67C221.774 356.765 220.237 358.301 220.237 360.197V374.963C220.237 376.86 221.774 378.396 223.67 378.396H238.436C240.331 378.396 241.869 376.86 241.869 374.963V360.197C241.869 358.301 240.331 356.765 238.436 356.765Z" fill="#A552A0"/>
<g opacity="0.899994">
<g opacity="0.899994">
<path opacity="0.899994" d="M232.012 368.828C230.551 370.288 228.176 370.288 226.716 368.829C225.256 367.369 225.256 364.993 226.716 363.532C228.176 362.072 230.551 362.073 232.012 363.532C233.472 364.993 233.472 367.369 232.012 368.828ZM233.141 362.404C231.058 360.321 227.669 360.321 225.586 362.404C223.504 364.487 223.504 367.875 225.587 369.958C227.435 371.805 230.308 372.011 232.388 370.58C232.427 370.818 232.536 371.047 232.72 371.23L236.037 374.548C236.505 375.015 237.263 375.015 237.731 374.548C238.198 374.08 238.198 373.322 237.731 372.854L234.414 369.537C234.23 369.352 234.001 369.244 233.763 369.205C235.193 367.125 234.989 364.251 233.141 362.404Z" fill="white"/>
</g>
</g>
<path d="M396.373 258.416C396.373 258.416 388.399 278.171 380.598 280.309C372.799 282.446 361.024 280.71 361.024 280.71L357.386 281.705L353.821 281.175C353.78 281.168 353.739 281.165 353.698 281.164L349.669 281.071C348.983 281.054 348.605 280.385 348.984 279.861L350.431 277.866C350.544 277.709 350.712 277.59 350.907 277.528L354.737 276.293C354.888 276.244 355.05 276.233 355.203 276.257L361.06 277.185C361.06 277.185 377.344 274.518 379.001 273.007C380.658 271.497 385.567 255.703 385.567 255.703L396.373 258.416Z" fill="#FDC2BC"/>
<g opacity="0.100006">
<g opacity="0.100006">
<path opacity="0.100006" d="M361.436 277.124C361.195 277.164 361.06 277.185 361.06 277.185L355.204 276.257C355.049 276.233 354.888 276.245 354.737 276.293L350.906 277.527C350.712 277.591 350.544 277.709 350.431 277.866L348.985 279.861C348.604 280.385 348.984 281.055 349.669 281.071L353.698 281.164C353.739 281.165 353.78 281.168 353.821 281.174L356.219 281.53C357.997 280.757 359.767 279.141 361.436 277.124Z" fill="black"/>
</g>
</g>
<path d="M401.184 238.852C395.394 236.951 387.246 241.302 384.126 259.533L396.149 263.041C396.149 263.041 409.461 241.568 401.184 238.852Z" fill="#007CFF"/>
<path d="M367.501 215.027C367.508 215.626 367.824 216.109 368.216 216.106C368.608 216.102 368.946 215.588 368.923 215.007C368.9 214.424 368.6 213.924 368.207 213.934C367.814 213.945 367.5 214.43 367.501 215.027Z" fill="#1A2E35"/>
<path d="M369.874 215.619L367.028 220.325C367.028 220.325 368.012 221.438 370.147 220.617L369.874 215.619Z" fill="#EC837E"/>
<path d="M370.409 211.273C370.337 211.352 370.234 211.391 370.129 211.377C369.347 211.242 368.549 211.491 367.983 212.046C367.87 212.175 367.675 212.19 367.544 212.078C367.416 211.963 367.403 211.765 367.515 211.634C368.216 210.915 369.225 210.586 370.215 210.754C370.387 210.778 370.507 210.937 370.484 211.109C370.474 211.17 370.449 211.226 370.409 211.273Z" fill="#1A2E35"/>
<path d="M390.512 210.761C390.957 218.71 391.318 222.073 387.809 226.593C382.203 231.436 372.655 232.209 369.844 224.545C367.311 217.65 367.01 205.836 374.369 201.739C379.615 198.822 386.233 200.709 389.152 205.955C389.972 207.43 390.438 209.075 390.512 210.761Z" fill="#FDC2BC"/>
<path d="M379.432 228.162L381.447 239.939L391.268 237.671L387.831 225.649L379.432 228.162Z" fill="#FDC2BC"/>
<path d="M372.36 211.349C372.859 206.181 371.086 212.147 368.692 205.332C366.298 198.517 377.583 192.977 379.388 194.247C381.192 195.519 380.156 197.472 386.124 198.57C392.092 199.668 391.839 205.463 391.839 205.463C391.839 205.463 395.271 207.055 394.051 214.429C392.829 221.803 388.171 227.381 388.171 227.381C388.171 227.381 385.913 225.052 382.34 227.203C382.34 227.203 380.583 226.22 378.852 223.635C377.241 221.23 376.746 218.948 374.542 218.749C369.918 218.334 372.195 213.044 372.36 211.349Z" fill="#1A2E35"/>
<path d="M391.193 206.371C391.193 206.371 396.064 203.376 393.908 200.236C391.753 197.097 392.793 203.685 391.193 206.371Z" fill="#1A2E35"/>
<path d="M373.765 214.348C372.678 215.559 372.119 217.153 372.211 218.778C372.349 220.93 374.456 221.314 376.122 220.138C377.632 219.073 379.358 216.673 378.396 214.784C377.436 212.896 375.109 212.882 373.765 214.348Z" fill="#FFC4BE"/>
<g opacity="0.100006">
<g opacity="0.100006">
<path opacity="0.100006" d="M379.622 229.272L380.421 233.947C380.37 229.672 382.631 227.56 382.631 227.56C380.331 227.901 379.622 229.272 379.622 229.272Z" fill="black"/>
</g>
</g>
<path d="M310.582 276.234H307.775V259.672H310.582V276.234Z" fill="#A552A0"/>
<g opacity="0.699997">
<path opacity="0.699997" d="M310.582 276.234H307.775V259.672H310.582V276.234Z" fill="white"/>
</g>
<path d="M291.293 226.793H284.301C281.681 226.793 279.557 228.917 279.557 231.537V263.928C279.557 266.548 281.681 268.672 284.301 268.672H291.293V226.793Z" fill="#A552A0"/>
<path d="M334.055 268.672H286.746C284.126 268.672 282.001 266.548 282.001 263.928V231.536C282.001 228.917 284.126 226.793 286.746 226.793H334.055C336.675 226.793 338.8 228.917 338.8 231.536V263.928C338.8 266.548 336.675 268.672 334.055 268.672Z" fill="#D97FD3"/>
<g opacity="0.5">
<g opacity="0.5">
<path opacity="0.5" d="M334.055 268.672H286.746C284.126 268.672 282.001 266.548 282.001 263.928V231.536C282.001 228.917 284.126 226.793 286.746 226.793H334.055C336.675 226.793 338.8 228.917 338.8 231.536V263.928C338.8 266.548 336.675 268.672 334.055 268.672Z" fill="white"/>
</g>
</g>
<path d="M286.746 228.749C285.208 228.749 283.957 229.999 283.957 231.537V263.928C283.957 265.466 285.208 266.716 286.746 266.716H334.056C335.593 266.716 336.844 265.466 336.844 263.928V231.537C336.844 229.999 335.593 228.749 334.056 228.749H286.746Z" fill="#1A2E35"/>
<path d="M298.964 283.17C298.964 277.529 303.537 272.956 309.178 272.956C314.82 272.956 319.393 277.529 319.393 283.17H298.964Z" fill="#A552A0"/>
<path d="M323.076 279.685H302.647V283.006H343.506V281.641L323.076 279.685Z" fill="#A552A0"/>
<g opacity="0.800003">
<g opacity="0.800003">
<path opacity="0.800003" d="M323.076 279.685H302.647V283.006H343.506V281.641L323.076 279.685Z" fill="white"/>
</g>
</g>
<path d="M323.076 283.006H302.647V279.685L323.076 281.641V283.006Z" fill="#A552A0"/>
<g opacity="0.600006">
<g opacity="0.600006">
<path opacity="0.600006" d="M323.076 283.006H302.647V279.685L323.076 281.641V283.006Z" fill="white"/>
</g>
</g>
<path d="M368.123 397.149H325.972C322.436 397.149 319.569 394.283 319.569 390.746V293.854C319.569 290.317 322.436 287.451 325.972 287.451H368.123C369.068 287.451 369.835 288.217 369.835 289.162C369.835 290.108 369.068 290.874 368.123 290.874H325.972C324.326 290.874 322.992 292.208 322.992 293.854V390.746C322.992 392.392 324.326 393.726 325.972 393.726H368.123C369.068 393.726 369.835 394.492 369.835 395.438C369.835 396.383 369.068 397.149 368.123 397.149Z" fill="#1A2E35"/>
<g opacity="0.5">
<g opacity="0.5">
<path opacity="0.5" d="M368.123 397.149H325.972C322.436 397.149 319.569 394.283 319.569 390.746V293.854C319.569 290.317 322.436 287.451 325.972 287.451H368.123C369.068 287.451 369.835 288.217 369.835 289.162C369.835 290.108 369.068 290.874 368.123 290.874H325.972C324.326 290.874 322.992 292.208 322.992 293.854V390.746C322.992 392.392 324.326 393.726 325.972 393.726H368.123C369.068 393.726 369.835 394.492 369.835 395.438C369.835 396.383 369.068 397.149 368.123 397.149Z" fill="white"/>
</g>
</g>
<path d="M325.802 288.021H265.963V283.006H325.802V288.021Z" fill="#D97FD3"/>
<g opacity="0.199997">
<path opacity="0.199997" d="M325.802 288.021H265.963V283.006H325.802V288.021Z" fill="white"/>
</g>
<path d="M374.113 288.021H323.075V283.006H374.113V288.021Z" fill="#D97FD3"/>
<g opacity="0.5">
<path opacity="0.5" d="M374.113 288.021H323.075V283.006H374.113V288.021Z" fill="white"/>
</g>
<path d="M356.213 361.598L359.046 390.171H352.272L345.498 362.338L356.213 361.598Z" fill="#FDC2BC"/>
<path d="M351.637 388.305L360.275 388.453C360.601 388.458 360.879 388.688 360.944 389.007L362.386 396.061C362.518 396.686 362.119 397.299 361.495 397.432C361.414 397.449 361.332 397.457 361.25 397.456C358.138 397.35 355.372 397.132 351.496 397.071C346.922 396.995 348.073 397.562 342.693 397.546C339.453 397.534 338.922 393.84 340.299 393.682C346.601 392.999 347.286 391.11 349.75 388.901C350.286 388.478 350.957 388.266 351.637 388.305Z" fill="#1A2E35"/>
<g opacity="0.100006">
<g opacity="0.100006">
<path opacity="0.100006" d="M358.306 382.712L356.213 361.598L345.498 362.338L350.458 382.712H358.306Z" fill="black"/>
</g>
</g>
<path d="M402.559 295.712L374.797 296.708C374.797 296.708 337.443 309.766 336.394 319.85C335.317 330.195 347.879 377.731 347.879 377.731H359.034C359.034 377.731 355.957 342.847 354.776 332.164C353.594 321.483 393.692 325.023 400.653 315.909C407.062 307.52 402.559 295.712 402.559 295.712Z" fill="#1A2E35"/>
<g opacity="0.199997">
<g opacity="0.199997">
<path opacity="0.199997" d="M402.559 295.712L374.797 296.708C374.797 296.708 337.443 309.766 336.394 319.85C335.317 330.195 347.879 377.731 347.879 377.731H359.034C359.034 377.731 355.957 342.847 354.776 332.164C353.594 321.483 393.692 325.023 400.653 315.909C407.062 307.52 402.559 295.712 402.559 295.712Z" fill="black"/>
</g>
</g>
<path d="M360.933 376.131L361.18 380.071H347.386L346.031 376.131H360.933Z" fill="#A552A0"/>
<path d="M330.392 362.954L331.131 390.17H324.481L320.539 362.954H330.392Z" fill="#FDC2BC"/>
<path d="M323.559 388.305L332.196 388.453C332.522 388.458 332.8 388.688 332.865 389.007L334.307 396.061C334.439 396.686 334.04 397.299 333.416 397.432C333.336 397.449 333.254 397.457 333.171 397.456C330.058 397.35 327.294 397.132 323.417 397.071C318.843 396.995 319.994 397.562 314.614 397.546C311.374 397.534 310.844 393.84 312.22 393.682C318.522 392.999 319.208 391.11 321.671 388.901C322.206 388.478 322.878 388.266 323.559 388.305Z" fill="#1A2E35"/>
<g opacity="0.100006">
<g opacity="0.100006">
<path opacity="0.100006" d="M330.928 382.689L330.392 362.953H320.539L323.401 382.71C325.543 382.717 328.495 382.705 330.928 382.689Z" fill="black"/>
</g>
</g>
<path d="M390.49 298.01C390.49 298.01 392.794 319.111 371.322 320.096C349.849 321.081 333.101 323.544 332.608 331.18C332.115 338.815 332.608 377.732 332.608 377.732H320.939C320.939 377.732 316.398 353.13 314.628 337.872C312.908 323.051 309.77 312.308 324.973 307.287C341.135 301.951 369.871 297.018 369.871 297.018L390.562 295.712L390.49 298.01Z" fill="#1A2E35"/>
<path d="M334.332 376.131L333.593 380.071H320.785L319.431 376.131H334.332Z" fill="#A552A0"/>
<path d="M395.149 237.463C395.149 237.463 395.146 232.701 385.533 233.252C375.329 233.837 377.251 238.399 377.251 238.399L395.149 237.463Z" fill="#9D4D98"/>
<g opacity="0.300003">
<g opacity="0.300003">
<path opacity="0.300003" d="M395.149 237.463C395.149 237.463 395.146 232.701 385.533 233.252C375.329 233.837 377.251 238.399 377.251 238.399L395.149 237.463Z" fill="black"/>
</g>
</g>
<path d="M404.073 258.781C403.428 268.177 403.649 296.454 403.649 296.454C403.649 296.454 383.139 297.801 366.995 297.276L365.123 242.885C365.123 240.949 366.327 239.186 368.196 238.46C372.754 236.687 383.452 234.681 400.186 236.878C405.959 237.636 404.836 247.671 404.073 258.781Z" fill="#A552A0"/>
<path d="M368.42 258.416C368.42 258.416 360.445 278.171 352.645 280.309C344.845 282.446 333.071 280.71 333.071 280.71L329.433 281.705L325.867 281.175C325.827 281.168 325.786 281.165 325.745 281.164L321.716 281.071C321.03 281.054 320.651 280.385 321.031 279.861L322.477 277.866C322.591 277.709 322.759 277.59 322.953 277.528L326.783 276.293C326.935 276.244 327.096 276.233 327.25 276.257L333.106 277.185C333.106 277.185 349.391 274.518 351.047 273.007C352.704 271.497 357.614 255.703 357.614 255.703L368.42 258.416Z" fill="#FDC2BC"/>
<g opacity="0.100006">
<g opacity="0.100006">
<path opacity="0.100006" d="M368.213 249.227C368.213 249.227 366.978 250.698 365.466 252.832L366.007 268.574C372.001 265.931 374.377 250.494 374.377 250.494L370.487 247.732L368.213 249.227Z" fill="black"/>
</g>
</g>
<path d="M373.23 238.852C367.44 236.951 359.292 241.302 356.173 259.533L368.195 263.041C368.195 263.041 381.508 241.568 373.23 238.852Z" fill="#AD5AA8"/>
<path d="M380.888 356.856H371.841V330.339H380.888V356.856Z" fill="#1A2E35"/>
<g opacity="0.600006">
<path opacity="0.600006" d="M380.888 356.856H371.841V330.339H380.888V356.856Z" fill="white"/>
</g>
<path d="M382.292 380.877V347.185H370.438V380.877L343.454 384.619V388.363L376.365 385.555L409.276 388.363V384.619L382.292 380.877Z" fill="#1A2E35"/>
<path d="M346.63 393.978C346.63 395.949 345.033 397.546 343.062 397.546C341.092 397.546 339.494 395.949 339.494 393.978C339.494 392.008 341.092 390.411 343.062 390.411C345.033 390.411 346.63 392.008 346.63 393.978Z" fill="#D97FD3"/>
<path d="M412.845 393.978C412.845 395.949 411.248 397.546 409.277 397.546C407.305 397.546 405.708 395.949 405.708 393.978C405.708 392.008 407.305 390.411 409.277 390.411C411.248 390.411 412.845 392.008 412.845 393.978Z" fill="#D97FD3"/>
<path d="M379.933 393.978C379.933 395.949 378.335 397.546 376.365 397.546C374.394 397.546 372.797 395.949 372.797 393.978C372.797 392.008 374.394 390.411 376.365 390.411C378.335 390.411 379.933 392.008 379.933 393.978Z" fill="#D97FD3"/>
<g opacity="0.300003">
<path opacity="0.300003" d="M371.841 336.891H380.888V330.339H371.841V336.891Z" fill="black"/>
</g>
<path d="M412.13 270.242H382.653C377.852 270.242 373.84 273.896 373.393 278.676L370.904 305.312C370.338 311.38 365.402 316.11 359.316 316.418L330.87 317.859C327.411 318.035 324.697 320.89 324.697 324.353V324.954C324.697 327.928 327.108 330.338 330.082 330.338H368.566H376.365H416.724L421.389 280.408C421.899 274.953 417.609 270.242 412.13 270.242Z" fill="#D87BD2"/>
<g opacity="0.300003">
<g opacity="0.300003">
<path opacity="0.300003" d="M412.13 270.242H382.653C377.852 270.242 373.84 273.896 373.393 278.676L370.904 305.312C370.338 311.38 365.402 316.11 359.316 316.418L330.87 317.859C327.411 318.035 324.697 320.89 324.697 324.353V324.954C324.697 327.928 327.108 330.338 330.082 330.338H368.566H376.365H416.724L421.389 280.408C421.899 274.953 417.609 270.242 412.13 270.242Z" fill="white"/>
</g>
</g>
<path d="M346.569 323.476H346.421C345.342 323.476 344.467 322.601 344.467 321.522V300.291H348.523V321.522C348.523 322.601 347.648 323.476 346.569 323.476Z" fill="#1A2E35"/>
<g opacity="0.199997">
<g opacity="0.199997">
<path opacity="0.199997" d="M346.569 323.476H346.421C345.342 323.476 344.467 322.601 344.467 321.522V300.291H348.523V321.522C348.523 322.601 347.648 323.476 346.569 323.476Z" fill="white"/>
</g>
</g>
<path d="M364.042 294.152H354.996V301.638H364.042C366.11 301.638 367.786 299.963 367.786 297.895C367.786 295.828 366.11 294.152 364.042 294.152Z" fill="#D97FD3"/>
<g opacity="0.5">
<g opacity="0.5">
<path opacity="0.5" d="M364.042 294.152H354.996V301.638H364.042C366.11 301.638 367.786 299.963 367.786 297.895C367.786 295.828 366.11 294.152 364.042 294.152Z" fill="white"/>
</g>
</g>
<path d="M360.436 301.638H328.811C326.819 301.638 325.204 300.025 325.204 298.032V297.759C325.204 295.767 326.819 294.152 328.811 294.152H360.436C362.428 294.152 364.043 295.767 364.043 297.759V298.032C364.043 300.025 362.428 301.638 360.436 301.638Z" fill="#D97FD3"/>
<g opacity="0.300003">
<g opacity="0.300003">
<path opacity="0.300003" d="M360.436 301.638H328.811C326.819 301.638 325.204 300.025 325.204 298.032V297.759C325.204 295.767 326.819 294.152 328.811 294.152H360.436C362.428 294.152 364.043 295.767 364.043 297.759V298.032C364.043 300.025 362.428 301.638 360.436 301.638Z" fill="white"/>
</g>
</g>
<path d="M418.762 330.339H375.429L380.256 278.678C380.702 273.896 384.715 270.242 389.516 270.242H418.993C424.471 270.242 428.762 274.953 428.253 280.407L424.037 325.535C423.782 328.257 421.497 330.339 418.762 330.339Z" fill="#D97FD3"/>
<g opacity="0.5">
<g opacity="0.5">
<path opacity="0.5" d="M418.762 330.339H375.429L380.256 278.678C380.702 273.896 384.715 270.242 389.516 270.242H418.993C424.471 270.242 428.762 274.953 428.253 280.407L424.037 325.535C423.782 328.257 421.497 330.339 418.762 330.339Z" fill="white"/>
</g>
</g>
<path d="M317.532 397.149H275.381C271.845 397.149 268.978 394.283 268.978 390.746V293.854C268.978 290.317 271.845 287.451 275.381 287.451H317.532C318.476 287.451 319.243 288.217 319.243 289.162C319.243 290.108 318.476 290.874 317.532 290.874H275.381C273.735 290.874 272.401 292.208 272.401 293.854V390.746C272.401 392.392 273.735 393.726 275.381 393.726H317.532C318.476 393.726 319.243 394.492 319.243 395.438C319.243 396.383 318.476 397.149 317.532 397.149Z" fill="#1A2E35"/>
<g opacity="0.5">
<g opacity="0.5">
<path opacity="0.5" d="M317.532 397.149H275.381C271.845 397.149 268.978 394.283 268.978 390.746V293.854C268.978 290.317 271.845 287.451 275.381 287.451H317.532C318.476 287.451 319.243 288.217 319.243 289.162C319.243 290.108 318.476 290.874 317.532 290.874H275.381C273.735 290.874 272.401 292.208 272.401 293.854V390.746C272.401 392.392 273.735 393.726 275.381 393.726H317.532C318.476 393.726 319.243 394.492 319.243 395.438C319.243 396.383 318.476 397.149 317.532 397.149Z" fill="white"/>
</g>
</g>
<path d="M289.677 236.466L286.709 234.496C286.392 234.286 286.392 233.818 286.709 233.608L289.677 231.638C289.899 231.492 290.198 231.552 290.344 231.773C290.492 231.995 290.431 232.293 290.209 232.44L287.781 234.052L290.209 235.665C290.431 235.811 290.492 236.11 290.344 236.331C290.198 236.553 289.899 236.613 289.677 236.466Z" fill="white"/>
<path d="M296.164 236.331C296.017 236.109 296.077 235.811 296.299 235.664L298.728 234.053L296.299 232.44C296.077 232.293 296.017 231.995 296.164 231.774C296.311 231.552 296.61 231.492 296.831 231.638L299.799 233.609C300.117 233.819 300.117 234.285 299.799 234.497L296.831 236.466C296.61 236.613 296.311 236.553 296.164 236.331Z" fill="white"/>
<path d="M292.149 237.613C291.896 237.533 291.755 237.263 291.835 237.009L293.856 230.609C293.936 230.356 294.206 230.216 294.459 230.297C294.713 230.376 294.853 230.647 294.773 230.9L292.752 237.299C292.673 237.552 292.402 237.693 292.149 237.613Z" fill="white"/>
<path d="M308.755 242.544H286.979C286.698 242.544 286.471 242.317 286.471 242.036C286.471 241.756 286.698 241.529 286.979 241.529H308.755C309.036 241.529 309.263 241.756 309.263 242.036C309.263 242.317 309.036 242.544 308.755 242.544Z" fill="white"/>
<path d="M333.776 242.544H311.999C311.719 242.544 311.492 242.317 311.492 242.036C311.492 241.756 311.719 241.529 311.999 241.529H333.776C334.056 241.529 334.283 241.756 334.283 242.036C334.283 242.317 334.056 242.544 333.776 242.544Z" fill="white"/>
<path d="M299.421 247.026H286.978C286.699 247.026 286.471 246.799 286.471 246.519C286.471 246.239 286.699 246.012 286.978 246.012H299.421C299.702 246.012 299.929 246.239 299.929 246.519C299.929 246.799 299.702 247.026 299.421 247.026Z" fill="white"/>
<path d="M323.048 247.026H302.666C302.385 247.026 302.158 246.799 302.158 246.519C302.158 246.239 302.385 246.012 302.666 246.012H323.048C323.329 246.012 323.556 246.239 323.556 246.519C323.556 246.799 323.329 247.026 323.048 247.026Z" fill="white"/>
<path d="M320.151 251.508H286.979C286.698 251.508 286.471 251.282 286.471 251.001C286.471 250.721 286.698 250.494 286.979 250.494H320.151C320.432 250.494 320.659 250.721 320.659 251.001C320.659 251.282 320.432 251.508 320.151 251.508Z" fill="white"/>
<path d="M330.322 251.508H323.395C323.115 251.508 322.888 251.282 322.888 251.001C322.888 250.721 323.115 250.494 323.395 250.494H330.322C330.602 250.494 330.829 250.721 330.829 251.001C330.829 251.282 330.602 251.508 330.322 251.508Z" fill="white"/>
<path d="M302.466 255.991H286.979C286.698 255.991 286.471 255.765 286.471 255.484C286.471 255.203 286.698 254.976 286.979 254.976H302.466C302.747 254.976 302.974 255.203 302.974 255.484C302.974 255.765 302.747 255.991 302.466 255.991Z" fill="white"/>
<path d="M324.994 255.991H305.71C305.43 255.991 305.203 255.765 305.203 255.484C305.203 255.203 305.43 254.976 305.71 254.976H324.994C325.273 254.976 325.501 255.203 325.501 255.484C325.501 255.765 325.273 255.991 324.994 255.991Z" fill="white"/>
<path d="M308.755 260.474H286.979C286.698 260.474 286.471 260.247 286.471 259.966C286.471 259.686 286.698 259.459 286.979 259.459H308.755C309.036 259.459 309.263 259.686 309.263 259.966C309.263 260.247 309.036 260.474 308.755 260.474Z" fill="white"/>
<path d="M327.362 260.474H311.999C311.719 260.474 311.492 260.247 311.492 259.966C311.492 259.686 311.719 259.459 311.999 259.459H327.362C327.643 259.459 327.869 259.686 327.869 259.966C327.869 260.247 327.643 260.474 327.362 260.474Z" fill="white"/>
<path d="M138.361 172.93C138.757 177.535 137.761 185.881 134.286 188.548C139.955 190.59 145.953 194.115 149.795 198.757C153.597 193.221 149.268 190.065 149.268 190.065C144.369 188.322 144.902 184.62 146.162 181.206L138.361 172.93Z" fill="#CD7A63"/>
<path d="M156.872 168.96C156.817 169.536 157.086 170.035 157.466 170.072C157.845 170.11 158.195 169.663 158.251 169.088C158.306 168.513 158.036 168.006 157.657 167.969C157.278 167.932 156.941 168.379 156.872 168.96Z" fill="#1A2E35"/>
<path d="M157.502 167.987L158.929 167.715C158.929 167.715 158.117 168.766 157.502 167.987Z" fill="#1A2E35"/>
<path d="M157.067 169.576C157.464 170.947 158.046 172.259 158.798 173.473C158.158 173.847 157.387 173.919 156.689 173.672L157.067 169.576Z" fill="#B94D3C"/>
<path d="M158.513 165.915C158.602 165.904 158.684 165.861 158.745 165.793C158.865 165.65 158.849 165.436 158.71 165.31C157.893 164.569 156.768 164.268 155.692 164.504C155.53 164.603 155.479 164.815 155.578 164.976C155.641 165.079 155.753 165.141 155.874 165.14C156.73 164.971 157.616 165.22 158.259 165.81C158.324 165.881 158.417 165.919 158.513 165.915Z" fill="#1A2E35"/>
<path d="M137.871 165.288C137.646 172.442 137.4 175.484 140.59 179.47C145.393 185.467 154.084 184.153 156.407 177.19C158.501 170.925 158.523 160.249 151.944 156.782C145.365 153.316 138.102 158.114 137.871 165.288Z" fill="#CD7A63"/>
<path d="M138.212 178.788C131.178 177.59 133.197 173.156 133.197 173.156C126.27 171.754 131.618 168.371 131.618 168.371C125.856 165.888 131.618 163.663 131.618 163.663C126.063 159.054 134.025 157.487 134.025 157.487C132.06 150.299 138.884 153.248 138.884 153.248C142.607 147.073 145.808 152.972 145.808 152.972C152.326 144.124 153.911 151.589 153.911 151.589C160.564 149.837 158.013 156.839 158.013 156.839C163.493 158.311 159.191 161.083 159.191 161.083C161.3 163.754 153.661 164.216 153.661 164.216C153.661 164.216 157.297 170.042 153.63 171.697L144.38 178.788C144.38 178.788 140.131 177.018 138.212 178.788Z" fill="#1A2E35"/>
<path d="M145.123 173.017C145.123 173.017 149.967 161.309 146.191 151.265L149.423 150.158C149.423 150.158 153.637 164.723 145.123 173.017Z" fill="#D268CC"/>
<path d="M150.001 171.732C150.811 173.412 151.118 174.142 152.274 174.701C153.287 175.27 154.569 174.91 155.137 173.897C155.399 173.434 155.474 172.891 155.35 172.374C155.045 170.69 153.749 168.215 151.961 168.163C150.172 168.111 149.166 170.066 150.001 171.732Z" fill="#CD7A63"/>
<path d="M144.953 196.16C144.953 196.16 151.569 201.018 154.261 202.973L173.416 193.937C173.363 191.763 174.646 189.778 176.649 188.933L178.012 188.358L180.901 187.073C181.996 186.586 183.267 186.72 184.236 187.425C185.382 188.258 185.88 189.723 185.48 191.082C184.66 193.878 182.434 196.038 179.615 196.778L176.821 197.51C176.821 197.51 160.387 209.981 154.541 210.306C148.696 210.633 140.079 204.841 140.079 204.841L144.953 196.16Z" fill="#CD7A63"/>
<path d="M129.027 187.913C134.085 187.892 139.735 191.065 148.633 196.83C148.633 196.83 146.952 203.158 141.777 207.671C141.777 207.671 136.893 206.357 130.398 200.242C122.538 192.842 125.926 187.926 129.027 187.913Z" fill="#1A2E35"/>
<path d="M225.07 202.566H177.153C175.415 202.566 174.129 201.157 174.281 199.418L177.89 158.158C178.043 156.419 179.575 155.011 181.313 155.011H229.23C230.969 155.011 232.255 156.419 232.103 158.158L228.493 199.418C228.341 201.157 226.808 202.566 225.07 202.566Z" fill="#A552A0"/>
<g opacity="0.399994">
<g opacity="0.399994">
<path opacity="0.399994" d="M225.07 202.566H177.153C175.415 202.566 174.129 201.157 174.281 199.418L177.89 158.158C178.043 156.419 179.575 155.011 181.313 155.011H229.23C230.969 155.011 232.255 156.419 232.103 158.158L228.493 199.418C228.341 201.157 226.808 202.566 225.07 202.566Z" fill="white"/>
</g>
</g>
<g opacity="0.699997">
<g opacity="0.699997">
<path opacity="0.699997" d="M225.241 200.61C225.898 200.61 226.48 200.076 226.537 199.419L230.148 158.158C230.204 157.501 229.716 156.967 229.059 156.967H181.143C180.486 156.967 179.904 157.501 179.846 158.158L176.236 199.419C176.179 200.076 176.667 200.61 177.324 200.61H225.241Z" fill="white"/>
</g>
</g>
<path d="M191.939 176.349L176.273 199.007L176.237 199.419C176.179 200.076 176.667 200.61 177.324 200.61H204.468L191.939 176.349Z" fill="#A552A0"/>
<g opacity="0.300003">
<g opacity="0.300003">
<path opacity="0.300003" d="M191.939 176.349L176.273 199.007L176.237 199.419C176.179 200.076 176.667 200.61 177.324 200.61H204.468L191.939 176.349Z" fill="white"/>
</g>
</g>
<path d="M226.676 197.835L213.558 172.928L194.135 200.61H225.241C225.898 200.61 226.48 200.076 226.537 199.419L226.676 197.835Z" fill="#A552A0"/>
<path d="M208.493 168.524C208.281 170.956 206.137 172.927 203.704 172.927C201.273 172.927 199.474 170.956 199.687 168.524C199.899 166.092 202.043 164.122 204.475 164.122C206.906 164.122 208.706 166.092 208.493 168.524Z" fill="#A552A0"/>
<g opacity="0.399994">
<g opacity="0.399994">
<path opacity="0.399994" d="M208.493 168.524C208.281 170.956 206.137 172.927 203.704 172.927C201.273 172.927 199.474 170.956 199.687 168.524C199.899 166.092 202.043 164.122 204.475 164.122C206.906 164.122 208.706 166.092 208.493 168.524Z" fill="white"/>
</g>
</g>
<path d="M88.896 369.069L84.0304 383.505L91.4916 386.551L97.3312 373.229L88.896 369.069Z" fill="#CD7A63"/>
<path d="M94.9134 386.12C96.4508 386.81 98.621 387.466 99.1922 387.03C99.2704 386.979 99.3614 386.873 99.289 386.573C99.2528 386.397 99.1374 386.246 98.977 386.165C98.8616 386.091 98.7364 386.033 98.6034 385.995C97.377 385.804 96.1252 385.846 94.9134 386.12ZM94.1711 386.189C94.0929 386.145 94.0489 386.06 94.0577 385.972C94.0684 385.883 94.134 385.811 94.221 385.79C94.3765 385.755 97.9012 384.969 99.2127 385.806C99.4582 385.958 99.6362 386.199 99.7066 386.48C99.8181 386.801 99.7154 387.158 99.4494 387.369C98.9535 387.719 97.7897 387.573 96.7227 387.244C95.8425 386.968 94.9887 386.615 94.1711 386.189Z" fill="#D268CC"/>
<path d="M97.3766 383.367C97.1204 383.284 96.8426 383.299 96.5952 383.406C95.7257 383.948 95.0441 384.744 94.6421 385.686C95.9008 385.385 97.7033 384.346 97.8304 383.749C97.8314 383.691 97.8529 383.537 97.4969 383.392L97.3766 383.367ZM94.0661 386.144C94.0172 386.085 94.0045 386.003 94.0319 385.932C94.0768 385.828 95.0206 383.583 96.3927 383.021C96.7879 382.853 97.2358 382.854 97.6319 383.023C98.1747 383.253 98.2617 383.59 98.2118 383.829C98.0964 384.852 95.4578 386.076 94.291 386.214C94.2597 386.219 94.2294 386.212 94.203 386.197C94.1531 386.197 94.1042 386.178 94.0661 386.144Z" fill="#D268CC"/>
<path d="M93.6647 384.716L84.2916 381.823C83.9375 381.713 83.5561 381.864 83.3722 382.185L79.3233 389.288C78.9595 389.915 79.1737 390.719 79.8016 391.083C79.8818 391.13 79.9668 391.167 80.0558 391.195C83.4524 392.18 86.5146 392.922 90.72 394.227C95.6833 395.761 94.2408 395.966 100.052 397.851C103.554 398.983 105.432 395.184 104.001 394.527C97.4418 391.561 97.3694 389.282 95.4906 386.026C95.0633 385.381 94.4139 384.914 93.6647 384.716Z" fill="#1A2E35"/>
<g opacity="0.199997">
<g opacity="0.199997">
<path opacity="0.199997" d="M86.5633 375.99L94.3873 379.945L97.331 373.229L88.8958 369.069L86.5633 375.99Z" fill="#1A2E35"/>
</g>
</g>
<path d="M121.979 235.551C121.979 235.551 111.464 243.585 113.716 268.735C113.925 271.062 114.677 273.497 114.688 276.161C114.694 277.929 114.201 279.172 113.623 283.149C112.779 288.944 111.233 310.53 109.606 313.336C107.995 316.116 107.308 315.651 102.719 323.394C97.7818 331.724 91.4737 346.336 86.5573 371.107C86.5573 371.107 90.8272 374.443 97.5451 375.707C97.5451 375.707 124.415 333.341 130.126 317.569C135.236 303.457 141.326 258.419 141.326 258.419L141.818 238.893L121.979 235.551Z" fill="#C964C3"/>
<g opacity="0.100006">
<g opacity="0.100006">
<path opacity="0.100006" d="M133.481 268.735H125.867C125.867 268.735 123.365 292.673 131.636 312.648C132.501 309.442 133.374 305.594 134.223 301.443L137.514 280.355C137.047 276.792 136.68 274.077 136.626 273.896C136.46 273.343 133.481 268.735 133.481 268.735Z" fill="black"/>
</g>
</g>
<path d="M132.225 374.877L132.276 390.22L140.932 389.642L142.26 374.877H132.225Z" fill="#CD7A63"/>
<path d="M142.608 389.075C144.286 389.222 146.551 389.127 146.948 388.526C147.005 388.452 147.056 388.322 146.888 388.064C146.797 387.909 146.638 387.804 146.46 387.781C146.326 387.749 146.19 387.735 146.052 387.743C144.83 387.966 143.661 388.417 142.608 389.075ZM141.929 389.384C141.841 389.369 141.772 389.303 141.751 389.217C141.732 389.129 141.77 389.039 141.846 388.991C141.981 388.907 145.05 387.005 146.564 387.364C146.847 387.426 147.093 387.596 147.253 387.838C147.464 388.105 147.483 388.475 147.302 388.763C146.949 389.256 145.802 389.502 144.686 389.541C143.764 389.57 142.842 389.517 141.929 389.384Z" fill="#D268CC"/>
<path d="M144.028 385.665C143.759 385.672 143.501 385.776 143.303 385.959C142.661 386.757 142.279 387.733 142.208 388.755C143.298 388.057 144.659 386.483 144.582 385.876C144.564 385.822 144.534 385.668 144.151 385.65L144.028 385.665ZM141.816 389.377C141.75 389.337 141.711 389.264 141.713 389.188C141.722 389.074 141.875 386.643 142.985 385.662C143.304 385.373 143.727 385.226 144.157 385.257C144.744 385.294 144.938 385.584 144.968 385.827C145.196 386.829 143.107 388.855 142.051 389.369C142.023 389.384 141.992 389.389 141.962 389.381C141.915 389.397 141.863 389.395 141.816 389.377Z" fill="#D268CC"/>
<path d="M140.967 388.16L131.163 388.51C130.794 388.524 130.483 388.792 130.414 389.156L128.928 397.194C128.79 397.907 129.256 398.594 129.968 398.732C130.06 398.749 130.153 398.758 130.246 398.756C133.778 398.568 136.913 398.261 141.314 398.11C146.507 397.926 145.211 398.594 151.319 398.463C154.999 398.38 155.522 394.175 153.956 394.025C146.786 393.381 145.967 391.253 143.122 388.797C142.506 388.327 141.739 388.1 140.967 388.16Z" fill="#1A2E35"/>
<g opacity="0.199997">
<g opacity="0.199997">
<path opacity="0.199997" d="M132.251 382.813L141.564 382.62L142.26 374.877H132.225L132.251 382.813Z" fill="#1A2E35"/>
</g>
</g>
<path d="M127.832 232.736C127.832 232.736 117.343 246.632 125.112 273.844L133.883 313.534C133.883 313.534 125.535 331.592 129.943 379.219C129.943 379.219 136.571 380.281 142.897 378.93C142.897 378.93 152.664 328.628 154.15 311.636C155.786 292.922 154.806 236.5 154.806 236.5L127.832 232.736Z" fill="#D268CC"/>
<path d="M134.173 187.72C134.173 187.72 132.548 180.772 142.97 183.812C153.392 186.851 152.524 192.786 152.524 192.786L134.173 187.72Z" fill="#1A2E35"/>
<g opacity="0.399994">
<g opacity="0.399994">
<path opacity="0.399994" d="M134.173 187.72C134.173 187.72 132.548 180.772 142.97 183.812C153.392 186.851 152.524 192.786 152.524 192.786L134.173 187.72Z" fill="black"/>
</g>
</g>
<path d="M160.032 205.087C160.032 207.522 159.005 211.043 158.085 214.984C157.635 216.852 157.225 218.798 156.951 220.774C155.474 231.542 154.995 242.867 154.995 242.867C154.995 242.867 137.958 247.649 121.41 236.206C121.41 236.206 125.508 232.735 124.667 208.686C124.286 197.85 120.374 184.969 138.281 186.994C153.401 188.705 158.486 193.4 159.709 200.744C159.719 200.832 159.738 200.93 159.758 201.028C159.787 201.253 159.816 201.478 159.846 201.713C159.973 202.779 160.032 203.913 160.032 205.087Z" fill="#1A2E35"/>
<g opacity="0.399994">
<g opacity="0.399994">
<path opacity="0.399994" d="M160.032 205.087C160.032 207.522 159.005 211.043 158.085 214.984C153.997 210.065 149.9 200.852 149.9 200.852L153.274 195.884L159.22 198.652C159.425 199.326 159.582 200.021 159.709 200.744C159.719 200.832 159.738 200.93 159.758 201.028C159.787 201.253 159.816 201.478 159.846 201.713C159.973 202.779 160.032 203.913 160.032 205.087Z" fill="black"/>
</g>
</g>
<path d="M166.209 200.838C166.209 200.838 172.028 206.628 174.397 208.962L194.685 202.878C194.957 200.722 196.521 198.95 198.627 198.413L200.061 198.048L203.11 197.207C204.265 196.889 205.502 197.211 206.355 198.052C207.364 199.046 207.639 200.568 207.041 201.853C205.812 204.496 203.29 206.3 200.393 206.611L197.52 206.92C197.52 206.92 179.412 216.804 173.583 216.255C167.754 215.708 160.096 208.697 160.096 208.697L166.209 200.838Z" fill="#CD7A63"/>
<path d="M151.689 190.311C156.693 191.043 161.807 195.023 169.748 202.05C169.748 202.05 167.142 208.057 161.353 211.748C161.353 211.748 156.721 209.721 151.208 202.706C144.538 194.219 148.62 189.862 151.689 190.311Z" fill="#1A2E35"/>
</svg>
