<svg width="385" height="336" viewBox="0 0 385 336" fill="none" xmlns="http://www.w3.org/2000/svg">
<path d="M168.451 98.6254C152.067 105.608 116.365 86.7036 99.0818 82.3995C55.4757 71.5397 4.7586 89.8606 9.06767 150.848C14.9601 234.226 138.045 325.855 266.724 281.986C331.723 259.826 384.942 197.89 384.815 123.591C384.585 -11.424 256.573 -15.9971 216.349 17.8612C178.678 49.5709 190.047 89.4225 168.451 98.6254Z" fill="#D268CC"/>
<g opacity="0.899994">
<g opacity="0.899994">
<path opacity="0.899994" d="M168.451 98.6254C152.067 105.608 116.365 86.7036 99.0818 82.3995C55.4757 71.5397 4.7586 89.8606 9.06767 150.848C14.9601 234.226 138.045 325.855 266.724 281.986C331.723 259.826 384.942 197.89 384.815 123.591C384.585 -11.424 256.573 -15.9971 216.349 17.8612C178.678 49.5709 190.047 89.4225 168.451 98.6254Z" fill="white"/>
</g>
</g>
<path d="M379.408 324.318C379.408 330.434 294.51 335.392 189.784 335.392C85.058 335.392 0.160706 330.434 0.160706 324.318C0.160706 318.203 85.058 313.244 189.784 313.244C294.51 313.244 379.408 318.203 379.408 324.318Z" fill="#F5F5F5"/>
<path d="M236.214 38.0085H212.758C211.222 38.0085 209.825 39.1498 209.498 40.6745L209.339 41.409C208.539 45.1303 205.128 47.9186 201.375 47.9186H179.077C175.325 47.9186 172.402 45.1303 172.253 41.409L172.223 40.6745C172.161 39.1498 170.965 38.0085 169.429 38.0085H145.974C138.151 38.0085 131.255 44.3499 130.57 52.1729L111.7 267.859C111.015 275.683 116.802 282.023 124.625 282.023H214.865C222.688 282.023 229.585 275.683 230.268 267.859L249.139 52.1729C249.824 44.3499 244.037 38.0085 236.214 38.0085Z" fill="#91388B"/>
<g opacity="0.699997">
<g opacity="0.699997">
<path opacity="0.699997" d="M236.214 38.0085H212.758C211.222 38.0085 209.825 39.1498 209.498 40.6745L209.339 41.409C208.539 45.1303 205.128 47.9186 201.375 47.9186H179.077C175.325 47.9186 172.402 45.1303 172.253 41.409L172.223 40.6745C172.161 39.1498 170.965 38.0085 169.429 38.0085H145.974C138.151 38.0085 131.255 44.3499 130.57 52.1729L111.7 267.859C111.015 275.683 116.802 282.023 124.625 282.023H214.865C222.688 282.023 229.585 275.683 230.268 267.859L249.139 52.1729C249.824 44.3499 244.037 38.0085 236.214 38.0085Z" fill="white"/>
</g>
</g>
<path d="M227.067 137.212H179.15C177.412 137.212 176.126 135.802 176.278 134.063L179.888 92.8035C180.04 91.0646 181.573 89.6563 183.311 89.6563H231.228C232.967 89.6563 234.253 91.0646 234.1 92.8035L230.49 134.063C230.339 135.802 228.805 137.212 227.067 137.212Z" fill="white"/>
<path d="M211.111 266.229H130.928C126.611 266.229 123.418 262.729 123.795 258.412C124.173 254.096 127.979 250.596 132.296 250.596H212.478C216.795 250.596 219.989 254.096 219.611 258.412C219.234 262.729 215.428 266.229 211.111 266.229Z" fill="white"/>
<path d="M217.516 78.3129H143.941C141.517 78.3129 139.724 76.3481 139.936 73.9246L140.536 67.0688C140.748 64.6443 142.885 62.6805 145.308 62.6805H218.883C221.308 62.6805 223.101 64.6443 222.888 67.0688L222.289 73.9246C222.077 76.3481 219.941 78.3129 217.516 78.3129Z" fill="white"/>
<path d="M232.476 66.8438C232.417 67.5186 231.823 68.0653 231.148 68.0653C230.473 68.0653 229.974 67.5186 230.033 66.8438C230.092 66.1689 230.687 65.6222 231.361 65.6222C232.036 65.6222 232.536 66.1689 232.476 66.8438Z" fill="white"/>
<path d="M232.156 70.4965C232.098 71.1703 231.503 71.718 230.828 71.718C230.154 71.718 229.655 71.1703 229.713 70.4965C229.772 69.8217 230.367 69.275 231.042 69.275C231.716 69.275 232.216 69.8217 232.156 70.4965Z" fill="white"/>
<path d="M231.837 74.1488C231.777 74.8236 231.184 75.3703 230.509 75.3703C229.834 75.3703 229.335 74.8236 229.394 74.1488C229.453 73.4749 230.047 72.9272 230.722 72.9272C231.397 72.9272 231.897 73.4749 231.837 74.1488Z" fill="white"/>
<path d="M221.111 205.287H131.591C129.852 205.287 128.567 203.877 128.719 202.138L132.839 155.043C132.991 153.305 134.523 151.895 136.262 151.895H225.782C227.521 151.895 228.807 153.305 228.655 155.043L224.534 202.138C224.383 203.877 222.849 205.287 221.111 205.287Z" fill="white"/>
<path d="M156.22 215.127H128.351C127.927 215.127 127.613 214.782 127.65 214.358C127.687 213.933 128.062 213.589 128.486 213.589H156.355C156.78 213.589 157.094 213.933 157.056 214.358C157.019 214.782 156.645 215.127 156.22 215.127Z" fill="white"/>
<path d="M191.056 215.127H161.137C160.711 215.127 160.397 214.782 160.434 214.358C160.472 213.933 160.846 213.589 161.271 213.589H191.19C191.615 213.589 191.929 213.933 191.892 214.358C191.855 214.782 191.48 215.127 191.056 215.127Z" fill="white"/>
<path d="M146.61 221.918H127.757C127.333 221.918 127.018 221.573 127.055 221.15C127.092 220.724 127.467 220.381 127.891 220.381H146.745C147.17 220.381 147.483 220.724 147.446 221.15C147.409 221.573 147.035 221.918 146.61 221.918Z" fill="white"/>
<path d="M182.409 221.918H151.526C151.101 221.918 150.787 221.573 150.824 221.15C150.861 220.724 151.235 220.381 151.66 220.381H182.543C182.968 220.381 183.282 220.724 183.245 221.15C183.208 221.573 182.833 221.918 182.409 221.918Z" fill="white"/>
<path d="M177.424 228.71H127.163C126.738 228.71 126.425 228.365 126.462 227.941C126.499 227.516 126.873 227.172 127.298 227.172H177.559C177.984 227.172 178.298 227.516 178.26 227.941C178.223 228.365 177.849 228.71 177.424 228.71Z" fill="white"/>
<path d="M185.659 228.71H182.34C181.915 228.71 181.601 228.365 181.638 227.941C181.676 227.516 182.05 227.172 182.475 227.172H185.793C186.218 227.172 186.532 227.516 186.495 227.941C186.458 228.365 186.083 228.71 185.659 228.71Z" fill="white"/>
<path d="M150.035 235.502H126.569C126.145 235.502 125.83 235.157 125.868 234.733C125.904 234.308 126.278 233.964 126.703 233.964H150.17C150.595 233.964 150.908 234.308 150.871 234.733C150.834 235.157 150.46 235.502 150.035 235.502Z" fill="white"/>
<path d="M184.167 235.502H154.95C154.525 235.502 154.211 235.157 154.248 234.733C154.285 234.308 154.66 233.964 155.084 233.964H184.302C184.727 233.964 185.041 234.308 185.003 234.733C184.966 235.157 184.593 235.502 184.167 235.502Z" fill="white"/>
<path d="M154.869 242.293H125.975C125.549 242.293 125.236 241.949 125.272 241.524C125.31 241.1 125.684 240.756 126.109 240.756H155.004C155.428 240.756 155.742 241.1 155.705 241.524C155.668 241.949 155.293 242.293 154.869 242.293Z" fill="white"/>
<path d="M183.061 242.293H159.785C159.36 242.293 159.045 241.949 159.083 241.524C159.121 241.1 159.494 240.756 159.919 240.756H183.195C183.62 240.756 183.935 241.1 183.896 241.524C183.86 241.949 183.486 242.293 183.061 242.293Z" fill="white"/>
<path d="M225.929 133.306C225.537 133.712 224.915 133.751 224.541 133.393L184.515 95.1945C184.141 94.8375 184.156 94.2194 184.548 93.8135C184.941 93.4086 185.563 93.3695 185.937 93.7265L225.962 131.925C226.337 132.283 226.321 132.9 225.929 133.306Z" fill="#A552A0"/>
<path d="M180.973 133.291C180.652 132.885 180.745 132.268 181.182 131.91L201.598 115.214C202.036 114.857 202.65 114.896 202.972 115.301C203.293 115.706 203.2 116.325 202.763 116.682L182.346 133.378C181.909 133.736 181.295 133.697 180.973 133.291Z" fill="#A552A0"/>
<path d="M207.358 111.713C207.037 111.307 207.13 110.69 207.567 110.332L228.022 93.6046C228.459 93.2477 229.073 93.2868 229.395 93.6917C229.716 94.0975 229.623 94.7156 229.186 95.0726L208.731 111.8C208.295 112.158 207.68 112.119 207.358 111.713Z" fill="#A552A0"/>
<g opacity="0.699997">
<g opacity="0.699997">
<path opacity="0.699997" d="M225.929 133.306C225.537 133.712 224.915 133.751 224.541 133.393L184.515 95.1945C184.141 94.8375 184.156 94.2194 184.548 93.8135C184.941 93.4086 185.563 93.3695 185.937 93.7265L225.962 131.925C226.337 132.283 226.321 132.9 225.929 133.306Z" fill="white"/>
</g>
</g>
<g opacity="0.699997">
<g opacity="0.699997">
<path opacity="0.699997" d="M180.973 133.291C180.652 132.885 180.745 132.268 181.182 131.91L201.598 115.214C202.036 114.857 202.65 114.896 202.972 115.301C203.293 115.706 203.2 116.325 202.763 116.682L182.346 133.378C181.909 133.736 181.295 133.697 180.973 133.291Z" fill="white"/>
</g>
</g>
<g opacity="0.699997">
<g opacity="0.699997">
<path opacity="0.699997" d="M207.358 111.713C207.037 111.307 207.13 110.69 207.567 110.332L228.022 93.6046C228.459 93.2477 229.073 93.2868 229.395 93.6917C229.716 94.0975 229.623 94.7156 229.186 95.0726L208.731 111.8C208.295 112.158 207.68 112.119 207.358 111.713Z" fill="white"/>
</g>
</g>
<path d="M113.409 50.7918H98.1158C97.9887 50.7918 97.8733 50.7399 97.7892 50.6558L98.7691 47.979C99.3999 46.2558 101.04 45.1096 102.875 45.1096H108.65C110.485 45.1096 112.125 46.2558 112.756 47.979L113.735 50.6558C113.652 50.7399 113.536 50.7918 113.409 50.7918ZM105.763 37.8147C107.675 37.8147 108.703 39.3638 108.703 41.2768C108.703 43.1878 107.675 44.7379 105.763 44.7379C103.851 44.7379 102.822 43.1878 102.822 41.2768C102.822 39.3638 103.851 37.8147 105.763 37.8147ZM112.096 33.3178H99.4283C96.8601 33.3178 94.7779 35.401 94.7779 37.9692V50.6372C94.7779 53.2055 96.8601 55.2876 99.4283 55.2876H112.096C114.666 55.2876 116.748 53.2055 116.748 50.6372V37.9692C116.748 35.401 114.666 33.3178 112.096 33.3178Z" fill="#D268CC"/>
<g opacity="0.699997">
<g opacity="0.699997">
<path opacity="0.699997" d="M113.409 50.7918H98.1158C97.9887 50.7918 97.8733 50.7399 97.7892 50.6558L98.7691 47.979C99.3999 46.2558 101.04 45.1096 102.875 45.1096H108.65C110.485 45.1096 112.125 46.2558 112.756 47.979L113.735 50.6558C113.652 50.7399 113.536 50.7918 113.409 50.7918ZM105.763 37.8147C107.675 37.8147 108.703 39.3638 108.703 41.2768C108.703 43.1878 107.675 44.7379 105.763 44.7379C103.851 44.7379 102.822 43.1878 102.822 41.2768C102.822 39.3638 103.851 37.8147 105.763 37.8147ZM112.096 33.3178H99.4283C96.8601 33.3178 94.7779 35.401 94.7779 37.9692V50.6372C94.7779 53.2055 96.8601 55.2876 99.4283 55.2876H112.096C114.666 55.2876 116.748 53.2055 116.748 50.6372V37.9692C116.748 35.401 114.666 33.3178 112.096 33.3178Z" fill="white"/>
</g>
</g>
<path d="M62.2133 101.749C62.2133 101.749 58.2592 97.4477 58.2592 95.2638C58.2592 93.08 60.0294 91.3098 62.2133 91.3098C64.3971 91.3098 66.1673 93.08 66.1673 95.2638C66.1673 97.4477 62.2133 101.749 62.2133 101.749ZM67.026 85.4183H57.4005C53.9404 85.4183 51.1345 88.2232 51.1345 91.6834V101.309C51.1345 104.769 53.9404 107.574 57.4005 107.574H67.026C70.4862 107.574 73.2911 104.769 73.2911 101.309V91.6834C73.2911 88.2232 70.4862 85.4183 67.026 85.4183Z" fill="#D268CC"/>
<path d="M62.2133 93.4595C61.2167 93.4595 60.4088 94.2673 60.4088 95.2639C60.4088 96.2604 61.2167 97.0683 62.2133 97.0683C63.2098 97.0683 64.0177 96.2604 64.0177 95.2639C64.0177 94.2673 63.2098 93.4595 62.2133 93.4595Z" fill="#D268CC"/>
<g opacity="0.699997">
<g opacity="0.699997">
<path opacity="0.699997" d="M62.2133 101.749C62.2133 101.749 58.2592 97.4477 58.2592 95.2638C58.2592 93.08 60.0294 91.3098 62.2133 91.3098C64.3971 91.3098 66.1673 93.08 66.1673 95.2638C66.1673 97.4477 62.2133 101.749 62.2133 101.749ZM67.026 85.4183H57.4005C53.9404 85.4183 51.1345 88.2232 51.1345 91.6834V101.309C51.1345 104.769 53.9404 107.574 57.4005 107.574H67.026C70.4862 107.574 73.2911 104.769 73.2911 101.309V91.6834C73.2911 88.2232 70.4862 85.4183 67.026 85.4183Z" fill="white"/>
</g>
<g opacity="0.699997">
<path opacity="0.699997" d="M62.2133 93.4595C61.2167 93.4595 60.4088 94.2673 60.4088 95.2639C60.4088 96.2604 61.2167 97.0683 62.2133 97.0683C63.2098 97.0683 64.0177 96.2604 64.0177 95.2639C64.0177 94.2673 63.2098 93.4595 62.2133 93.4595Z" fill="white"/>
</g>
</g>
<path d="M278.312 58.1488L284.759 53.9756L278.312 49.8035V58.1488Z" fill="#D268CC"/>
<path d="M280.478 62.1567C275.96 62.1567 272.298 58.4941 272.298 53.9757C272.297 49.4584 275.96 45.7957 280.478 45.7957C284.997 45.7957 288.659 49.4584 288.659 53.9757C288.659 58.4941 284.997 62.1567 280.478 62.1567ZM286.618 42.6016H274.338C271.448 42.6016 269.105 44.9449 269.105 47.8359V60.1166C269.105 63.0066 271.448 65.3499 274.338 65.3499H286.618C289.509 65.3499 291.852 63.0066 291.852 60.1166V47.8359C291.852 44.9449 289.509 42.6016 286.618 42.6016Z" fill="#D268CC"/>
<g opacity="0.699997">
<g opacity="0.699997">
<path opacity="0.699997" d="M278.312 58.1488L284.759 53.9756L278.312 49.8035V58.1488Z" fill="white"/>
</g>
<g opacity="0.699997">
<path opacity="0.699997" d="M280.478 62.1567C275.96 62.1567 272.298 58.4941 272.298 53.9757C272.297 49.4584 275.96 45.7957 280.478 45.7957C284.997 45.7957 288.659 49.4584 288.659 53.9757C288.659 58.4941 284.997 62.1567 280.478 62.1567ZM286.618 42.6016H274.338C271.448 42.6016 269.105 44.9449 269.105 47.8359V60.1166C269.105 63.0066 271.448 65.3499 274.338 65.3499H286.618C289.509 65.3499 291.852 63.0066 291.852 60.1166V47.8359C291.852 44.9449 289.509 42.6016 286.618 42.6016Z" fill="white"/>
</g>
</g>
<path d="M290.151 95.5018C286.955 95.5018 284.364 92.9111 284.364 89.715C284.364 86.5199 286.955 83.9291 290.151 83.9291C293.347 83.9291 295.938 86.5199 295.938 89.715C295.938 92.9111 293.347 95.5018 290.151 95.5018ZM298.674 89.715C298.674 89.4617 298.661 89.2103 298.639 88.9619L300.115 88.1424C300.005 87.4333 299.818 86.7477 299.566 86.0954L297.88 86.1238C297.667 85.6651 297.414 85.2289 297.125 84.8191L297.993 83.3726C297.547 82.822 297.044 82.3193 296.494 81.8734L295.047 82.7409C294.637 82.4524 294.202 82.199 293.743 81.9858L293.771 80.3007C293.118 80.0494 292.434 79.8626 291.724 79.7511L290.904 81.2269C290.656 81.2054 290.405 81.1927 290.151 81.1927C289.897 81.1927 289.647 81.2054 289.398 81.2269L288.579 79.7511C287.869 79.8626 287.184 80.0494 286.531 80.3007L286.559 81.9858C286.1 82.199 285.665 82.4524 285.255 82.7409L283.809 81.8734C283.258 82.3193 282.756 82.822 282.31 83.3726L283.177 84.8191C282.889 85.2289 282.635 85.6651 282.422 86.1238L280.736 86.0954C280.485 86.7477 280.298 87.4333 280.187 88.1424L281.663 88.9619C281.641 89.2103 281.628 89.4617 281.628 89.715C281.628 89.9693 281.641 90.2206 281.663 90.469L280.187 91.2886C280.298 91.9986 280.485 92.6832 280.736 93.3355L282.422 93.3072C282.635 93.7659 282.889 94.202 283.177 94.6118L282.31 96.0583C282.756 96.6089 283.258 97.1116 283.809 97.5576L285.255 96.6901C285.665 96.9786 286.1 97.2319 286.559 97.4451L286.531 99.1302C287.184 99.3815 287.869 99.5683 288.579 99.6798L289.398 98.204C289.647 98.2255 289.897 98.2383 290.151 98.2383C290.405 98.2383 290.656 98.2255 290.904 98.204L291.724 99.6798C292.434 99.5683 293.118 99.3815 293.771 99.1302L293.743 97.4451C294.202 97.2319 294.637 96.9786 295.047 96.6901L296.494 97.5576C297.044 97.1116 297.547 96.6089 297.993 96.0583L297.125 94.6118C297.414 94.202 297.667 93.7659 297.88 93.3072L299.566 93.3355C299.818 92.6832 300.005 91.9986 300.115 91.2886L298.639 90.469C298.661 90.2206 298.674 89.9693 298.674 89.715Z" fill="#B67CB3"/>
<g opacity="0.699997">
<g opacity="0.699997">
<path opacity="0.699997" d="M290.151 95.5018C286.955 95.5018 284.364 92.9111 284.364 89.715C284.364 86.5199 286.955 83.9291 290.151 83.9291C293.347 83.9291 295.938 86.5199 295.938 89.715C295.938 92.9111 293.347 95.5018 290.151 95.5018ZM298.674 89.715C298.674 89.4617 298.661 89.2103 298.639 88.9619L300.115 88.1424C300.005 87.4333 299.818 86.7477 299.566 86.0954L297.88 86.1238C297.667 85.6651 297.414 85.2289 297.125 84.8191L297.993 83.3726C297.547 82.822 297.044 82.3193 296.494 81.8734L295.047 82.7409C294.637 82.4524 294.202 82.199 293.743 81.9858L293.771 80.3007C293.118 80.0494 292.434 79.8626 291.724 79.7511L290.904 81.2269C290.656 81.2054 290.405 81.1927 290.151 81.1927C289.897 81.1927 289.647 81.2054 289.398 81.2269L288.579 79.7511C287.869 79.8626 287.184 80.0494 286.531 80.3007L286.559 81.9858C286.1 82.199 285.665 82.4524 285.255 82.7409L283.809 81.8734C283.258 82.3193 282.756 82.822 282.31 83.3726L283.177 84.8191C282.889 85.2289 282.635 85.6651 282.422 86.1238L280.736 86.0954C280.485 86.7477 280.298 87.4333 280.187 88.1424L281.663 88.9619C281.641 89.2103 281.628 89.4617 281.628 89.715C281.628 89.9693 281.641 90.2206 281.663 90.469L280.187 91.2886C280.298 91.9986 280.485 92.6832 280.736 93.3355L282.422 93.3072C282.635 93.7659 282.889 94.202 283.177 94.6118L282.31 96.0583C282.756 96.6089 283.258 97.1116 283.809 97.5576L285.255 96.6901C285.665 96.9786 286.1 97.2319 286.559 97.4451L286.531 99.1302C287.184 99.3815 287.869 99.5683 288.579 99.6798L289.398 98.204C289.647 98.2255 289.897 98.2383 290.151 98.2383C290.405 98.2383 290.656 98.2255 290.904 98.204L291.724 99.6798C292.434 99.5683 293.118 99.3815 293.771 99.1302L293.743 97.4451C294.202 97.2319 294.637 96.9786 295.047 96.6901L296.494 97.5576C297.044 97.1116 297.547 96.6089 297.993 96.0583L297.125 94.6118C297.414 94.202 297.667 93.7659 297.88 93.3072L299.566 93.3355C299.818 92.6832 300.005 91.9986 300.115 91.2886L298.639 90.469C298.661 90.2206 298.674 89.9693 298.674 89.715Z" fill="white"/>
</g>
</g>
<path d="M263.642 123.817C260.867 123.817 258.617 121.568 258.617 118.792C258.617 116.017 260.867 113.767 263.642 113.767C266.418 113.767 268.668 116.017 268.668 118.792C268.668 121.568 266.418 123.817 263.642 123.817ZM276.391 118.792C276.391 118.412 276.372 118.037 276.339 117.665L278.547 116.439C278.38 115.377 278.102 114.353 277.725 113.377L275.204 113.419C274.885 112.733 274.506 112.081 274.074 111.468L275.372 109.304C274.705 108.481 273.953 107.729 273.13 107.062L270.966 108.359C270.353 107.927 269.701 107.549 269.015 107.23L269.057 104.708C268.081 104.332 267.057 104.054 265.995 103.887L264.769 106.095C264.397 106.062 264.022 106.043 263.642 106.043C263.263 106.043 262.888 106.062 262.516 106.095L261.289 103.887C260.228 104.054 259.204 104.332 258.228 104.708L258.269 107.23C257.583 107.549 256.931 107.927 256.319 108.359L254.154 107.062C253.331 107.729 252.579 108.481 251.912 109.304L253.21 111.468C252.778 112.081 252.4 112.733 252.08 113.419L249.559 113.377C249.183 114.353 248.904 115.377 248.737 116.439L250.946 117.665C250.912 118.037 250.893 118.412 250.893 118.792C250.893 119.172 250.912 119.547 250.946 119.918L248.737 121.145C248.904 122.207 249.183 123.23 249.559 124.206L252.08 124.164C252.4 124.851 252.778 125.503 253.21 126.116L251.912 128.279C252.579 129.103 253.331 129.854 254.154 130.521L256.319 129.224C256.931 129.656 257.583 130.034 258.269 130.354L258.228 132.875C259.204 133.251 260.228 133.531 261.289 133.697L262.516 131.488C262.888 131.521 263.263 131.541 263.642 131.541C264.022 131.541 264.397 131.521 264.769 131.488L265.995 133.697C267.057 133.531 268.081 133.251 269.057 132.875L269.015 130.354C269.701 130.034 270.353 129.656 270.966 129.224L273.13 130.521C273.953 129.854 274.705 129.103 275.372 128.279L274.074 126.116C274.506 125.503 274.885 124.851 275.204 124.164L277.725 124.206C278.102 123.23 278.38 122.207 278.547 121.145L276.339 119.918C276.372 119.547 276.391 119.172 276.391 118.792Z" fill="#B67CB3"/>
<g opacity="0.699997">
<g opacity="0.699997">
<path opacity="0.699997" d="M263.642 123.817C260.867 123.817 258.617 121.568 258.617 118.792C258.617 116.017 260.867 113.767 263.642 113.767C266.418 113.767 268.668 116.017 268.668 118.792C268.668 121.568 266.418 123.817 263.642 123.817ZM276.391 118.792C276.391 118.412 276.372 118.037 276.339 117.665L278.547 116.439C278.38 115.377 278.102 114.353 277.725 113.377L275.204 113.419C274.885 112.733 274.506 112.081 274.074 111.468L275.372 109.304C274.705 108.481 273.953 107.729 273.13 107.062L270.966 108.359C270.353 107.927 269.701 107.549 269.015 107.23L269.057 104.708C268.081 104.332 267.057 104.054 265.995 103.887L264.769 106.095C264.397 106.062 264.022 106.043 263.642 106.043C263.263 106.043 262.888 106.062 262.516 106.095L261.289 103.887C260.228 104.054 259.204 104.332 258.228 104.708L258.269 107.23C257.583 107.549 256.931 107.927 256.319 108.359L254.154 107.062C253.331 107.729 252.579 108.481 251.912 109.304L253.21 111.468C252.778 112.081 252.4 112.733 252.08 113.419L249.559 113.377C249.183 114.353 248.904 115.377 248.737 116.439L250.946 117.665C250.912 118.037 250.893 118.412 250.893 118.792C250.893 119.172 250.912 119.547 250.946 119.918L248.737 121.145C248.904 122.207 249.183 123.23 249.559 124.206L252.08 124.164C252.4 124.851 252.778 125.503 253.21 126.116L251.912 128.279C252.579 129.103 253.331 129.854 254.154 130.521L256.319 129.224C256.931 129.656 257.583 130.034 258.269 130.354L258.228 132.875C259.204 133.251 260.228 133.531 261.289 133.697L262.516 131.488C262.888 131.521 263.263 131.541 263.642 131.541C264.022 131.541 264.397 131.521 264.769 131.488L265.995 133.697C267.057 133.531 268.081 133.251 269.057 132.875L269.015 130.354C269.701 130.034 270.353 129.656 270.966 129.224L273.13 130.521C273.953 129.854 274.705 129.103 275.372 128.279L274.074 126.116C274.506 125.503 274.885 124.851 275.204 124.164L277.725 124.206C278.102 123.23 278.38 122.207 278.547 121.145L276.339 119.918C276.372 119.547 276.391 119.172 276.391 118.792Z" fill="white"/>
</g>
</g>
<path d="M240.434 62.0866V67.2103L235.558 69.7815C234.713 70.2275 234.713 71.4382 235.558 71.8832L240.434 74.4554V79.5781C240.434 80.7214 241.361 81.6486 242.504 81.6486H259.996C261.139 81.6486 262.066 80.7214 262.066 79.5781V62.0866C262.066 60.9433 261.139 60.0172 259.996 60.0172H242.504C241.361 60.0172 240.434 60.9433 240.434 62.0866Z" fill="#A552A0"/>
<g opacity="0.899994">
<g opacity="0.899994">
<path opacity="0.899994" d="M246.455 67.4235H256.394C257.069 67.4235 257.615 66.8768 257.615 66.202C257.615 65.5281 257.069 64.9804 256.394 64.9804H246.455C245.781 64.9804 245.234 65.5281 245.234 66.202C245.234 66.8768 245.781 67.4235 246.455 67.4235Z" fill="white"/>
</g>
<g opacity="0.899994">
<path opacity="0.899994" d="M256.394 69.6111H246.456C245.781 69.6111 245.234 70.1578 245.234 70.8326C245.234 71.5065 245.781 72.0541 246.456 72.0541H256.394C257.068 72.0541 257.615 71.5065 257.615 70.8326C257.615 70.1578 257.068 69.6111 256.394 69.6111Z" fill="white"/>
</g>
<g opacity="0.899994">
<path opacity="0.899994" d="M256.394 74.2413H246.456C245.781 74.2413 245.234 74.789 245.234 75.4629C245.234 76.1377 245.781 76.6844 246.456 76.6844H256.394C257.068 76.6844 257.615 76.1377 257.615 75.4629C257.615 74.789 257.068 74.2413 256.394 74.2413Z" fill="white"/>
</g>
</g>
<path d="M141.587 54.0443H145.766L147.92 58.1274C148.543 59.3088 150.235 59.3088 150.858 58.1274L153.011 54.0443H157.19C158.855 54.0443 160.205 52.6946 160.205 51.0301V35.4271C160.205 33.7625 158.855 32.4129 157.19 32.4129H141.587C139.923 32.4129 138.573 33.7625 138.573 35.4271V51.0301C138.573 52.6946 139.923 54.0443 141.587 54.0443Z" fill="#A552A0"/>
<g opacity="0.899994">
<g opacity="0.899994">
<path opacity="0.899994" d="M149.4 37.0763L144.579 39.8959V48.1277H148.165V42.602H150.634V48.1277H154.22V39.8959L149.4 37.0763Z" fill="white"/>
</g>
</g>
<path d="M188.436 277.765H184.675L182.274 273.212C181.756 272.23 180.35 272.23 179.831 273.212L177.43 277.765H173.67C171.774 277.765 170.237 279.301 170.237 281.197V295.963C170.237 297.86 171.774 299.396 173.67 299.396H188.436C190.331 299.396 191.869 297.86 191.869 295.963V281.197C191.869 279.301 190.331 277.765 188.436 277.765Z" fill="#A552A0"/>
<g opacity="0.899994">
<g opacity="0.899994">
<path opacity="0.899994" d="M182.012 289.828C180.551 291.288 178.176 291.288 176.716 289.829C175.256 288.369 175.256 285.993 176.716 284.532C178.176 283.072 180.551 283.073 182.012 284.532C183.472 285.993 183.472 288.369 182.012 289.828ZM183.141 283.404C181.058 281.321 177.669 281.321 175.586 283.404C173.504 285.487 173.504 288.875 175.587 290.958C177.435 292.805 180.308 293.011 182.388 291.58C182.427 291.818 182.536 292.047 182.72 292.23L186.037 295.548C186.505 296.015 187.263 296.015 187.731 295.548C188.198 295.08 188.198 294.322 187.731 293.854L184.414 290.537C184.23 290.352 184.001 290.244 183.763 290.205C185.193 288.125 184.989 285.251 183.141 283.404Z" fill="white"/>
</g>
</g>
<path d="M346.373 179.416C346.373 179.416 338.399 199.171 330.598 201.309C322.799 203.446 311.024 201.71 311.024 201.71L307.386 202.705L303.82 202.175C303.78 202.168 303.739 202.165 303.698 202.164L299.669 202.071C298.983 202.054 298.605 201.385 298.984 200.861L300.431 198.866C300.544 198.709 300.712 198.59 300.907 198.528L304.737 197.293C304.888 197.244 305.05 197.233 305.203 197.257L311.06 198.185C311.06 198.185 327.344 195.518 329.001 194.007C330.658 192.497 335.567 176.703 335.567 176.703L346.373 179.416Z" fill="#FDC2BC"/>
<g opacity="0.100006">
<g opacity="0.100006">
<path opacity="0.100006" d="M311.436 198.124C311.195 198.164 311.06 198.185 311.06 198.185L305.204 197.257C305.049 197.233 304.888 197.245 304.737 197.293L300.906 198.527C300.712 198.591 300.544 198.709 300.431 198.866L298.985 200.861C298.604 201.385 298.984 202.055 299.669 202.071L303.698 202.164C303.739 202.165 303.78 202.168 303.821 202.174L306.219 202.53C307.997 201.757 309.767 200.141 311.436 198.124Z" fill="black"/>
</g>
</g>
<path d="M351.184 159.852C345.394 157.951 337.246 162.302 334.126 180.533L346.149 184.041C346.149 184.041 359.461 162.568 351.184 159.852Z" fill="#007CFF"/>
<path d="M317.501 136.027C317.508 136.626 317.824 137.109 318.216 137.106C318.608 137.102 318.946 136.588 318.923 136.007C318.9 135.424 318.6 134.924 318.207 134.934C317.814 134.945 317.5 135.43 317.501 136.027Z" fill="#1A2E35"/>
<path d="M319.874 136.619L317.028 141.325C317.028 141.325 318.012 142.438 320.147 141.617L319.874 136.619Z" fill="#EC837E"/>
<path d="M320.409 132.273C320.337 132.352 320.234 132.391 320.129 132.377C319.347 132.242 318.549 132.491 317.983 133.046C317.87 133.175 317.675 133.19 317.544 133.078C317.416 132.963 317.403 132.765 317.515 132.634C318.216 131.915 319.225 131.586 320.215 131.754C320.387 131.778 320.507 131.937 320.484 132.109C320.474 132.17 320.449 132.226 320.409 132.273Z" fill="#1A2E35"/>
<path d="M340.512 131.761C340.957 139.71 341.318 143.073 337.809 147.593C332.203 152.436 322.655 153.209 319.844 145.545C317.311 138.65 317.01 126.836 324.369 122.739C329.615 119.822 336.233 121.709 339.152 126.955C339.972 128.43 340.438 130.075 340.512 131.761Z" fill="#FDC2BC"/>
<path d="M329.432 149.162L331.447 160.939L341.268 158.671L337.831 146.649L329.432 149.162Z" fill="#FDC2BC"/>
<path d="M322.36 132.349C322.859 127.181 321.086 133.147 318.692 126.332C316.298 119.517 327.583 113.977 329.388 115.247C331.192 116.519 330.156 118.472 336.124 119.57C342.092 120.668 341.839 126.463 341.839 126.463C341.839 126.463 345.271 128.055 344.051 135.429C342.829 142.803 338.171 148.381 338.171 148.381C338.171 148.381 335.913 146.052 332.34 148.203C332.34 148.203 330.583 147.22 328.852 144.635C327.241 142.23 326.746 139.948 324.542 139.749C319.918 139.334 322.195 134.044 322.36 132.349Z" fill="#1A2E35"/>
<path d="M341.193 127.371C341.193 127.371 346.064 124.376 343.908 121.236C341.753 118.097 342.793 124.685 341.193 127.371Z" fill="#1A2E35"/>
<path d="M323.765 135.348C322.678 136.559 322.119 138.153 322.211 139.778C322.348 141.93 324.456 142.314 326.122 141.138C327.632 140.073 329.358 137.673 328.396 135.784C327.436 133.896 325.109 133.882 323.765 135.348Z" fill="#FFC4BE"/>
<g opacity="0.100006">
<g opacity="0.100006">
<path opacity="0.100006" d="M329.622 150.272L330.421 154.947C330.37 150.672 332.631 148.56 332.631 148.56C330.331 148.901 329.622 150.272 329.622 150.272Z" fill="black"/>
</g>
</g>
<path d="M260.582 197.234H257.775V180.672H260.582V197.234Z" fill="#A552A0"/>
<g opacity="0.699997">
<path opacity="0.699997" d="M260.582 197.234H257.775V180.672H260.582V197.234Z" fill="white"/>
</g>
<path d="M241.293 147.793H234.301C231.681 147.793 229.557 149.917 229.557 152.537V184.928C229.557 187.548 231.681 189.672 234.301 189.672H241.293V147.793Z" fill="#A552A0"/>
<path d="M284.055 189.672H236.746C234.126 189.672 232.001 187.548 232.001 184.928V152.536C232.001 149.917 234.126 147.793 236.746 147.793H284.055C286.675 147.793 288.8 149.917 288.8 152.536V184.928C288.8 187.548 286.675 189.672 284.055 189.672Z" fill="#D97FD3"/>
<g opacity="0.5">
<g opacity="0.5">
<path opacity="0.5" d="M284.055 189.672H236.746C234.126 189.672 232.001 187.548 232.001 184.928V152.536C232.001 149.917 234.126 147.793 236.746 147.793H284.055C286.675 147.793 288.8 149.917 288.8 152.536V184.928C288.8 187.548 286.675 189.672 284.055 189.672Z" fill="white"/>
</g>
</g>
<path d="M236.746 149.749C235.208 149.749 233.957 150.999 233.957 152.537V184.928C233.957 186.466 235.208 187.716 236.746 187.716H284.056C285.593 187.716 286.844 186.466 286.844 184.928V152.537C286.844 150.999 285.593 149.749 284.056 149.749H236.746Z" fill="#1A2E35"/>
<path d="M248.963 204.17C248.963 198.529 253.537 193.956 259.178 193.956C264.82 193.956 269.393 198.529 269.393 204.17H248.963Z" fill="#A552A0"/>
<path d="M273.076 200.685H252.647V204.006H293.506V202.641L273.076 200.685Z" fill="#A552A0"/>
<g opacity="0.800003">
<g opacity="0.800003">
<path opacity="0.800003" d="M273.076 200.685H252.647V204.006H293.506V202.641L273.076 200.685Z" fill="white"/>
</g>
</g>
<path d="M273.076 204.006H252.647V200.685L273.076 202.641V204.006Z" fill="#A552A0"/>
<g opacity="0.600006">
<g opacity="0.600006">
<path opacity="0.600006" d="M273.076 204.006H252.647V200.685L273.076 202.641V204.006Z" fill="white"/>
</g>
</g>
<path d="M318.123 318.149H275.972C272.436 318.149 269.569 315.283 269.569 311.746V214.854C269.569 211.317 272.436 208.451 275.972 208.451H318.123C319.068 208.451 319.835 209.217 319.835 210.162C319.835 211.108 319.068 211.874 318.123 211.874H275.972C274.326 211.874 272.992 213.208 272.992 214.854V311.746C272.992 313.392 274.326 314.726 275.972 314.726H318.123C319.068 314.726 319.835 315.492 319.835 316.438C319.835 317.383 319.068 318.149 318.123 318.149Z" fill="#1A2E35"/>
<g opacity="0.5">
<g opacity="0.5">
<path opacity="0.5" d="M318.123 318.149H275.972C272.436 318.149 269.569 315.283 269.569 311.746V214.854C269.569 211.317 272.436 208.451 275.972 208.451H318.123C319.068 208.451 319.835 209.217 319.835 210.162C319.835 211.108 319.068 211.874 318.123 211.874H275.972C274.326 211.874 272.992 213.208 272.992 214.854V311.746C272.992 313.392 274.326 314.726 275.972 314.726H318.123C319.068 314.726 319.835 315.492 319.835 316.438C319.835 317.383 319.068 318.149 318.123 318.149Z" fill="white"/>
</g>
</g>
<path d="M275.802 209.021H215.963V204.006H275.802V209.021Z" fill="#D97FD3"/>
<g opacity="0.199997">
<path opacity="0.199997" d="M275.802 209.021H215.963V204.006H275.802V209.021Z" fill="white"/>
</g>
<path d="M324.113 209.021H273.075V204.006H324.113V209.021Z" fill="#D97FD3"/>
<g opacity="0.5">
<path opacity="0.5" d="M324.113 209.021H273.075V204.006H324.113V209.021Z" fill="white"/>
</g>
<path d="M306.213 282.598L309.046 311.171H302.272L295.498 283.338L306.213 282.598Z" fill="#FDC2BC"/>
<path d="M301.637 309.305L310.275 309.453C310.601 309.458 310.879 309.688 310.944 310.007L312.386 317.061C312.518 317.686 312.119 318.299 311.495 318.432C311.414 318.449 311.332 318.457 311.25 318.456C308.138 318.35 305.372 318.132 301.496 318.071C296.922 317.995 298.073 318.562 292.693 318.546C289.453 318.534 288.922 314.84 290.298 314.682C296.601 313.999 297.286 312.11 299.75 309.901C300.286 309.478 300.957 309.266 301.637 309.305Z" fill="#1A2E35"/>
<g opacity="0.100006">
<g opacity="0.100006">
<path opacity="0.100006" d="M308.306 303.712L306.213 282.598L295.498 283.338L300.458 303.712H308.306Z" fill="black"/>
</g>
</g>
<path d="M352.559 216.712L324.797 217.708C324.797 217.708 287.443 230.766 286.394 240.85C285.317 251.195 297.879 298.731 297.879 298.731H309.034C309.034 298.731 305.957 263.847 304.776 253.164C303.594 242.483 343.692 246.023 350.653 236.909C357.062 228.52 352.559 216.712 352.559 216.712Z" fill="#1A2E35"/>
<g opacity="0.199997">
<g opacity="0.199997">
<path opacity="0.199997" d="M352.559 216.712L324.797 217.708C324.797 217.708 287.443 230.766 286.394 240.85C285.317 251.195 297.879 298.731 297.879 298.731H309.034C309.034 298.731 305.957 263.847 304.776 253.164C303.594 242.483 343.692 246.023 350.653 236.909C357.062 228.52 352.559 216.712 352.559 216.712Z" fill="black"/>
</g>
</g>
<path d="M310.933 297.131L311.18 301.071H297.386L296.031 297.131H310.933Z" fill="#A552A0"/>
<path d="M280.392 283.954L281.131 311.17H274.481L270.539 283.954H280.392Z" fill="#FDC2BC"/>
<path d="M273.559 309.305L282.196 309.453C282.522 309.458 282.8 309.688 282.865 310.007L284.307 317.061C284.439 317.686 284.04 318.299 283.416 318.432C283.336 318.449 283.254 318.457 283.171 318.456C280.058 318.35 277.294 318.132 273.417 318.071C268.843 317.995 269.994 318.562 264.614 318.546C261.374 318.534 260.844 314.84 262.22 314.682C268.522 313.999 269.208 312.11 271.671 309.901C272.206 309.478 272.878 309.266 273.559 309.305Z" fill="#1A2E35"/>
<g opacity="0.100006">
<g opacity="0.100006">
<path opacity="0.100006" d="M280.928 303.689L280.392 283.953H270.539L273.401 303.71C275.543 303.717 278.495 303.705 280.928 303.689Z" fill="black"/>
</g>
</g>
<path d="M340.49 219.01C340.49 219.01 342.794 240.111 321.322 241.096C299.849 242.081 283.101 244.544 282.608 252.18C282.115 259.815 282.608 298.732 282.608 298.732H270.939C270.939 298.732 266.398 274.13 264.628 258.872C262.908 244.051 259.77 233.308 274.973 228.287C291.135 222.951 319.871 218.018 319.871 218.018L340.562 216.712L340.49 219.01Z" fill="#1A2E35"/>
<path d="M284.332 297.131L283.593 301.071H270.785L269.431 297.131H284.332Z" fill="#A552A0"/>
<path d="M345.149 158.463C345.149 158.463 345.146 153.701 335.533 154.252C325.329 154.837 327.251 159.399 327.251 159.399L345.149 158.463Z" fill="#9D4D98"/>
<g opacity="0.300003">
<g opacity="0.300003">
<path opacity="0.300003" d="M345.149 158.463C345.149 158.463 345.146 153.701 335.533 154.252C325.329 154.837 327.251 159.399 327.251 159.399L345.149 158.463Z" fill="black"/>
</g>
</g>
<path d="M354.073 179.781C353.428 189.177 353.649 217.454 353.649 217.454C353.649 217.454 333.139 218.801 316.995 218.276L315.123 163.885C315.123 161.949 316.327 160.186 318.196 159.46C322.754 157.687 333.452 155.681 350.186 157.878C355.959 158.636 354.836 168.671 354.073 179.781Z" fill="#A552A0"/>
<path d="M318.42 179.416C318.42 179.416 310.445 199.171 302.644 201.309C294.845 203.446 283.071 201.71 283.071 201.71L279.433 202.705L275.867 202.175C275.827 202.168 275.786 202.165 275.745 202.164L271.716 202.071C271.03 202.054 270.651 201.385 271.031 200.861L272.477 198.866C272.591 198.709 272.759 198.59 272.953 198.528L276.783 197.293C276.935 197.244 277.096 197.233 277.25 197.257L283.106 198.185C283.106 198.185 299.391 195.518 301.047 194.007C302.704 192.497 307.614 176.703 307.614 176.703L318.42 179.416Z" fill="#FDC2BC"/>
<g opacity="0.100006">
<g opacity="0.100006">
<path opacity="0.100006" d="M318.213 170.227C318.213 170.227 316.978 171.698 315.466 173.832L316.007 189.574C322.001 186.931 324.377 171.494 324.377 171.494L320.487 168.732L318.213 170.227Z" fill="black"/>
</g>
</g>
<path d="M323.23 159.852C317.44 157.951 309.292 162.302 306.173 180.533L318.195 184.041C318.195 184.041 331.508 162.568 323.23 159.852Z" fill="#AD5AA8"/>
<path d="M330.888 277.856H321.841V251.339H330.888V277.856Z" fill="#1A2E35"/>
<g opacity="0.600006">
<path opacity="0.600006" d="M330.888 277.856H321.841V251.339H330.888V277.856Z" fill="white"/>
</g>
<path d="M332.292 301.877V268.185H320.438V301.877L293.454 305.619V309.363L326.365 306.555L359.276 309.363V305.619L332.292 301.877Z" fill="#1A2E35"/>
<path d="M296.63 314.978C296.63 316.949 295.033 318.546 293.062 318.546C291.092 318.546 289.494 316.949 289.494 314.978C289.494 313.008 291.092 311.411 293.062 311.411C295.033 311.411 296.63 313.008 296.63 314.978Z" fill="#D97FD3"/>
<path d="M362.845 314.978C362.845 316.949 361.248 318.546 359.277 318.546C357.305 318.546 355.708 316.949 355.708 314.978C355.708 313.008 357.305 311.411 359.277 311.411C361.248 311.411 362.845 313.008 362.845 314.978Z" fill="#D97FD3"/>
<path d="M329.933 314.978C329.933 316.949 328.335 318.546 326.365 318.546C324.394 318.546 322.797 316.949 322.797 314.978C322.797 313.008 324.394 311.411 326.365 311.411C328.335 311.411 329.933 313.008 329.933 314.978Z" fill="#D97FD3"/>
<g opacity="0.300003">
<path opacity="0.300003" d="M321.841 257.891H330.888V251.339H321.841V257.891Z" fill="black"/>
</g>
<path d="M362.13 191.242H332.653C327.852 191.242 323.84 194.896 323.393 199.676L320.904 226.312C320.338 232.38 315.402 237.11 309.316 237.418L280.87 238.859C277.411 239.035 274.697 241.89 274.697 245.353V245.954C274.697 248.928 277.108 251.338 280.082 251.338H318.566H326.365H366.724L371.389 201.408C371.899 195.953 367.609 191.242 362.13 191.242Z" fill="#D87BD2"/>
<g opacity="0.300003">
<g opacity="0.300003">
<path opacity="0.300003" d="M362.13 191.242H332.653C327.852 191.242 323.84 194.896 323.393 199.676L320.904 226.312C320.338 232.38 315.402 237.11 309.316 237.418L280.87 238.859C277.411 239.035 274.697 241.89 274.697 245.353V245.954C274.697 248.928 277.108 251.338 280.082 251.338H318.566H326.365H366.724L371.389 201.408C371.899 195.953 367.609 191.242 362.13 191.242Z" fill="white"/>
</g>
</g>
<path d="M296.569 244.476H296.421C295.342 244.476 294.467 243.601 294.467 242.522V221.291H298.523V242.522C298.523 243.601 297.648 244.476 296.569 244.476Z" fill="#1A2E35"/>
<g opacity="0.199997">
<g opacity="0.199997">
<path opacity="0.199997" d="M296.569 244.476H296.421C295.342 244.476 294.467 243.601 294.467 242.522V221.291H298.523V242.522C298.523 243.601 297.648 244.476 296.569 244.476Z" fill="white"/>
</g>
</g>
<path d="M314.042 215.152H304.996V222.638H314.042C316.11 222.638 317.786 220.963 317.786 218.895C317.786 216.828 316.11 215.152 314.042 215.152Z" fill="#D97FD3"/>
<g opacity="0.5">
<g opacity="0.5">
<path opacity="0.5" d="M314.042 215.152H304.996V222.638H314.042C316.11 222.638 317.786 220.963 317.786 218.895C317.786 216.828 316.11 215.152 314.042 215.152Z" fill="white"/>
</g>
</g>
<path d="M310.436 222.638H278.811C276.819 222.638 275.204 221.025 275.204 219.032V218.759C275.204 216.767 276.819 215.152 278.811 215.152H310.436C312.428 215.152 314.043 216.767 314.043 218.759V219.032C314.043 221.025 312.428 222.638 310.436 222.638Z" fill="#D97FD3"/>
<g opacity="0.300003">
<g opacity="0.300003">
<path opacity="0.300003" d="M310.436 222.638H278.811C276.819 222.638 275.204 221.025 275.204 219.032V218.759C275.204 216.767 276.819 215.152 278.811 215.152H310.436C312.428 215.152 314.043 216.767 314.043 218.759V219.032C314.043 221.025 312.428 222.638 310.436 222.638Z" fill="white"/>
</g>
</g>
<path d="M368.762 251.339H325.429L330.256 199.678C330.702 194.896 334.715 191.242 339.516 191.242H368.993C374.471 191.242 378.762 195.953 378.253 201.407L374.037 246.535C373.782 249.257 371.497 251.339 368.762 251.339Z" fill="#D97FD3"/>
<g opacity="0.5">
<g opacity="0.5">
<path opacity="0.5" d="M368.762 251.339H325.429L330.256 199.678C330.702 194.896 334.715 191.242 339.516 191.242H368.993C374.471 191.242 378.762 195.953 378.253 201.407L374.037 246.535C373.782 249.257 371.497 251.339 368.762 251.339Z" fill="white"/>
</g>
</g>
<path d="M267.532 318.149H225.381C221.845 318.149 218.978 315.283 218.978 311.746V214.854C218.978 211.317 221.845 208.451 225.381 208.451H267.532C268.476 208.451 269.243 209.217 269.243 210.162C269.243 211.108 268.476 211.874 267.532 211.874H225.381C223.735 211.874 222.401 213.208 222.401 214.854V311.746C222.401 313.392 223.735 314.726 225.381 314.726H267.532C268.476 314.726 269.243 315.492 269.243 316.438C269.243 317.383 268.476 318.149 267.532 318.149Z" fill="#1A2E35"/>
<g opacity="0.5">
<g opacity="0.5">
<path opacity="0.5" d="M267.532 318.149H225.381C221.845 318.149 218.978 315.283 218.978 311.746V214.854C218.978 211.317 221.845 208.451 225.381 208.451H267.532C268.476 208.451 269.243 209.217 269.243 210.162C269.243 211.108 268.476 211.874 267.532 211.874H225.381C223.735 211.874 222.401 213.208 222.401 214.854V311.746C222.401 313.392 223.735 314.726 225.381 314.726H267.532C268.476 314.726 269.243 315.492 269.243 316.438C269.243 317.383 268.476 318.149 267.532 318.149Z" fill="white"/>
</g>
</g>
<path d="M239.677 157.466L236.709 155.496C236.392 155.286 236.392 154.818 236.709 154.608L239.677 152.638C239.899 152.492 240.197 152.552 240.344 152.773C240.492 152.995 240.431 153.293 240.209 153.44L237.781 155.052L240.209 156.665C240.431 156.811 240.492 157.11 240.344 157.331C240.197 157.553 239.899 157.613 239.677 157.466Z" fill="white"/>
<path d="M246.164 157.331C246.017 157.109 246.077 156.811 246.299 156.664L248.728 155.053L246.299 153.44C246.077 153.293 246.017 152.995 246.164 152.774C246.311 152.552 246.61 152.492 246.831 152.638L249.799 154.609C250.117 154.819 250.117 155.285 249.799 155.497L246.831 157.466C246.61 157.613 246.311 157.553 246.164 157.331Z" fill="white"/>
<path d="M242.149 158.613C241.896 158.533 241.755 158.263 241.835 158.009L243.856 151.609C243.936 151.356 244.206 151.216 244.459 151.297C244.713 151.376 244.853 151.647 244.773 151.9L242.752 158.299C242.673 158.552 242.402 158.693 242.149 158.613Z" fill="white"/>
<path d="M258.755 163.544H236.979C236.698 163.544 236.471 163.317 236.471 163.036C236.471 162.756 236.698 162.529 236.979 162.529H258.755C259.036 162.529 259.263 162.756 259.263 163.036C259.263 163.317 259.036 163.544 258.755 163.544Z" fill="white"/>
<path d="M283.776 163.544H261.999C261.719 163.544 261.492 163.317 261.492 163.036C261.492 162.756 261.719 162.529 261.999 162.529H283.776C284.056 162.529 284.283 162.756 284.283 163.036C284.283 163.317 284.056 163.544 283.776 163.544Z" fill="white"/>
<path d="M249.421 168.026H236.978C236.699 168.026 236.471 167.799 236.471 167.519C236.471 167.239 236.699 167.012 236.978 167.012H249.421C249.702 167.012 249.929 167.239 249.929 167.519C249.929 167.799 249.702 168.026 249.421 168.026Z" fill="white"/>
<path d="M273.048 168.026H252.666C252.385 168.026 252.158 167.799 252.158 167.519C252.158 167.239 252.385 167.012 252.666 167.012H273.048C273.329 167.012 273.556 167.239 273.556 167.519C273.556 167.799 273.329 168.026 273.048 168.026Z" fill="white"/>
<path d="M270.151 172.508H236.979C236.698 172.508 236.471 172.282 236.471 172.001C236.471 171.721 236.698 171.494 236.979 171.494H270.151C270.432 171.494 270.658 171.721 270.658 172.001C270.658 172.282 270.432 172.508 270.151 172.508Z" fill="white"/>
<path d="M280.322 172.508H273.395C273.115 172.508 272.888 172.282 272.888 172.001C272.888 171.721 273.115 171.494 273.395 171.494H280.322C280.602 171.494 280.829 171.721 280.829 172.001C280.829 172.282 280.602 172.508 280.322 172.508Z" fill="white"/>
<path d="M252.466 176.991H236.979C236.698 176.991 236.471 176.765 236.471 176.484C236.471 176.203 236.698 175.976 236.979 175.976H252.466C252.747 175.976 252.974 176.203 252.974 176.484C252.974 176.765 252.747 176.991 252.466 176.991Z" fill="white"/>
<path d="M274.994 176.991H255.71C255.43 176.991 255.203 176.765 255.203 176.484C255.203 176.203 255.43 175.976 255.71 175.976H274.994C275.273 175.976 275.501 176.203 275.501 176.484C275.501 176.765 275.273 176.991 274.994 176.991Z" fill="white"/>
<path d="M258.755 181.474H236.979C236.698 181.474 236.471 181.247 236.471 180.966C236.471 180.686 236.698 180.459 236.979 180.459H258.755C259.036 180.459 259.263 180.686 259.263 180.966C259.263 181.247 259.036 181.474 258.755 181.474Z" fill="white"/>
<path d="M277.362 181.474H261.999C261.719 181.474 261.492 181.247 261.492 180.966C261.492 180.686 261.719 180.459 261.999 180.459H277.362C277.643 180.459 277.869 180.686 277.869 180.966C277.869 181.247 277.643 181.474 277.362 181.474Z" fill="white"/>
<path d="M88.3613 93.9298C88.7574 98.5352 87.7608 106.881 84.286 109.548C89.9555 111.59 95.9526 115.115 99.7951 119.757C103.597 114.221 99.268 111.065 99.268 111.065C94.3692 109.322 94.9022 105.62 96.1619 102.206L88.3613 93.9298Z" fill="#CD7A63"/>
<path d="M106.872 89.9605C106.816 90.5355 107.086 91.0353 107.466 91.0725C107.845 91.1096 108.195 90.6627 108.251 90.0876C108.306 89.5126 108.036 89.006 107.657 88.9688C107.278 88.9316 106.941 89.3786 106.872 89.9605Z" fill="#1A2E35"/>
<path d="M107.502 88.9868L108.929 88.7149C108.929 88.7149 108.117 89.7662 107.502 88.9868Z" fill="#1A2E35"/>
<path d="M107.067 90.576C107.464 91.9471 108.046 93.2586 108.798 94.4733C108.158 94.8469 107.387 94.9193 106.689 94.6719L107.067 90.576Z" fill="#B94D3C"/>
<path d="M108.513 86.9148C108.602 86.904 108.684 86.861 108.745 86.7935C108.865 86.6497 108.849 86.4355 108.71 86.3104C107.893 85.569 106.768 85.2678 105.692 85.5045C105.53 85.6033 105.479 85.8145 105.578 85.9759C105.641 86.0786 105.753 86.1412 105.874 86.1402C106.73 85.971 107.616 86.2204 108.259 86.8101C108.324 86.8805 108.417 86.9187 108.513 86.9148Z" fill="#1A2E35"/>
<path d="M87.8715 86.2878C87.6455 93.4418 87.4001 96.4844 90.5903 100.47C95.3933 106.467 104.084 105.153 106.407 98.19C108.501 91.925 108.523 81.2491 101.944 77.7821C95.3649 74.3161 88.1023 79.1141 87.8715 86.2878Z" fill="#CD7A63"/>
<path d="M88.2124 99.7883C81.1777 98.5902 83.1972 94.156 83.1972 94.156C76.27 92.7535 81.6178 89.3706 81.6178 89.3706C75.8564 86.8884 81.6178 84.6625 81.6178 84.6625C76.0627 80.0542 84.0246 78.4874 84.0246 78.4874C82.0598 71.2991 88.8843 74.2478 88.8843 74.2478C92.6066 68.0727 95.8076 73.972 95.8076 73.972C102.326 65.124 103.911 72.5891 103.911 72.5891C110.564 70.8375 108.013 77.839 108.013 77.839C113.493 79.3109 109.191 82.0826 109.191 82.0826C111.3 84.7544 103.661 85.2161 103.661 85.2161C103.661 85.2161 107.297 91.042 103.63 92.6968L94.3797 99.7883C94.3797 99.7883 90.1312 98.0181 88.2124 99.7883Z" fill="#1A2E35"/>
<path d="M95.1234 94.0172C95.1234 94.0172 99.9674 82.3086 96.1913 72.2645L99.4226 71.1584C99.4226 71.1584 103.637 85.7228 95.1234 94.0172Z" fill="#D268CC"/>
<path d="M100.001 92.7316C100.811 94.4118 101.118 95.1424 102.274 95.7008C103.287 96.27 104.569 95.9101 105.137 94.8969C105.399 94.4343 105.474 93.8906 105.35 93.3742C105.045 91.69 103.749 89.2147 101.961 89.1629C100.172 89.1111 99.1657 91.0661 100.001 92.7316Z" fill="#CD7A63"/>
<path d="M94.9529 117.16C94.9529 117.16 101.569 122.018 104.261 123.973L123.416 114.937C123.363 112.763 124.646 110.778 126.649 109.933L128.012 109.358L130.901 108.073C131.996 107.586 133.267 107.72 134.236 108.425C135.382 109.258 135.88 110.723 135.48 112.082C134.66 114.878 132.434 117.038 129.615 117.778L126.821 118.51C126.821 118.51 110.387 130.981 104.541 131.306C98.6957 131.633 90.0785 125.841 90.0785 125.841L94.9529 117.16Z" fill="#CD7A63"/>
<path d="M79.0274 108.913C84.0847 108.892 89.7346 112.065 98.6334 117.83C98.6334 117.83 96.9522 124.158 91.7766 128.671C91.7766 128.671 86.8935 127.357 80.3976 121.242C72.5384 113.842 75.9262 108.926 79.0274 108.913Z" fill="#1A2E35"/>
<path d="M175.07 123.566H127.153C125.415 123.566 124.129 122.157 124.281 120.418L127.89 79.1579C128.043 77.419 129.575 76.0107 131.313 76.0107H179.23C180.969 76.0107 182.255 77.419 182.103 79.1579L178.493 120.418C178.341 122.157 176.808 123.566 175.07 123.566Z" fill="#A552A0"/>
<g opacity="0.399994">
<g opacity="0.399994">
<path opacity="0.399994" d="M175.07 123.566H127.153C125.415 123.566 124.129 122.157 124.281 120.418L127.89 79.1579C128.043 77.419 129.575 76.0107 131.313 76.0107H179.23C180.969 76.0107 182.255 77.419 182.103 79.1579L178.493 120.418C178.341 122.157 176.808 123.566 175.07 123.566Z" fill="white"/>
</g>
</g>
<g opacity="0.699997">
<g opacity="0.699997">
<path opacity="0.699997" d="M175.241 121.61C175.898 121.61 176.48 121.076 176.537 120.419L180.148 79.1578C180.204 78.5006 179.716 77.9666 179.059 77.9666H131.143C130.486 77.9666 129.904 78.5006 129.846 79.1578L126.236 120.419C126.179 121.076 126.667 121.61 127.324 121.61H175.241Z" fill="white"/>
</g>
</g>
<path d="M141.939 97.3494L126.273 120.007L126.237 120.419C126.179 121.076 126.667 121.61 127.324 121.61H154.468L141.939 97.3494Z" fill="#A552A0"/>
<g opacity="0.300003">
<g opacity="0.300003">
<path opacity="0.300003" d="M141.939 97.3494L126.273 120.007L126.237 120.419C126.179 121.076 126.667 121.61 127.324 121.61H154.468L141.939 97.3494Z" fill="white"/>
</g>
</g>
<path d="M176.676 118.835L163.558 93.9276L144.135 121.61H175.241C175.898 121.61 176.48 121.076 176.537 120.419L176.676 118.835Z" fill="#A552A0"/>
<path d="M158.493 89.5245C158.281 91.9558 156.137 93.9274 153.704 93.9274C151.273 93.9274 149.474 91.9558 149.687 89.5245C149.899 87.0922 152.043 85.1215 154.475 85.1215C156.906 85.1215 158.706 87.0922 158.493 89.5245Z" fill="#A552A0"/>
<g opacity="0.399994">
<g opacity="0.399994">
<path opacity="0.399994" d="M158.493 89.5245C158.281 91.9558 156.137 93.9274 153.704 93.9274C151.273 93.9274 149.474 91.9558 149.687 89.5245C149.899 87.0922 152.043 85.1215 154.475 85.1215C156.906 85.1215 158.706 87.0922 158.493 89.5245Z" fill="white"/>
</g>
</g>
<path d="M38.896 290.069L34.0304 304.505L41.4916 307.551L47.3312 294.229L38.896 290.069Z" fill="#CD7A63"/>
<path d="M44.9134 307.12C46.4508 307.81 48.621 308.466 49.1922 308.03C49.2704 307.979 49.3614 307.873 49.289 307.573C49.2528 307.397 49.1374 307.246 48.977 307.165C48.8616 307.091 48.7364 307.033 48.6034 306.995C47.377 306.804 46.1252 306.846 44.9134 307.12ZM44.1711 307.189C44.0929 307.145 44.0489 307.06 44.0577 306.972C44.0684 306.883 44.1339 306.811 44.221 306.79C44.3765 306.755 47.9012 305.969 49.2127 306.806C49.4582 306.958 49.6362 307.199 49.7066 307.48C49.8181 307.801 49.7154 308.158 49.4494 308.369C48.9535 308.719 47.7897 308.573 46.7227 308.244C45.8425 307.968 44.9887 307.615 44.1711 307.189Z" fill="#D268CC"/>
<path d="M47.3766 304.367C47.1204 304.284 46.8426 304.299 46.5952 304.406C45.7257 304.948 45.0441 305.744 44.6421 306.686C45.9008 306.385 47.7033 305.346 47.8304 304.749C47.8314 304.691 47.8529 304.537 47.4969 304.392L47.3766 304.367ZM44.0661 307.144C44.0172 307.085 44.0045 307.003 44.0319 306.932C44.0768 306.828 45.0206 304.583 46.3927 304.021C46.7879 303.853 47.2358 303.854 47.6319 304.023C48.1747 304.253 48.2617 304.59 48.2118 304.829C48.0964 305.852 45.4578 307.076 44.291 307.214C44.2597 307.219 44.2294 307.212 44.203 307.197C44.1531 307.197 44.1042 307.178 44.0661 307.144Z" fill="#D268CC"/>
<path d="M43.6647 305.716L34.2915 302.823C33.9375 302.713 33.5561 302.864 33.3722 303.185L29.3233 310.288C28.9595 310.915 29.1737 311.719 29.8015 312.083C29.8817 312.13 29.9668 312.167 30.0558 312.195C33.4524 313.18 36.5145 313.922 40.7199 315.227C45.6833 316.761 44.2407 316.966 50.052 318.851C53.5542 319.983 55.432 316.184 54.0012 315.527C47.4417 312.561 47.3694 310.282 45.4906 307.026C45.0632 306.381 44.4138 305.914 43.6647 305.716Z" fill="#1A2E35"/>
<g opacity="0.199997">
<g opacity="0.199997">
<path opacity="0.199997" d="M36.5632 296.99L44.3873 300.945L47.331 294.229L38.8958 290.069L36.5632 296.99Z" fill="#1A2E35"/>
</g>
</g>
<path d="M71.9785 156.551C71.9785 156.551 61.464 164.585 63.7163 189.735C63.9247 192.062 64.6767 194.497 64.6875 197.161C64.6943 198.929 64.2014 200.172 63.6234 204.149C62.7794 209.944 61.2332 231.53 59.6058 234.336C57.995 237.116 57.3075 236.651 52.7187 244.394C47.7818 252.724 41.4737 267.336 36.5573 292.107C36.5573 292.107 40.8272 295.443 47.5451 296.707C47.5451 296.707 74.4147 254.341 80.1262 238.569C85.2363 224.457 91.3263 179.419 91.3263 179.419L91.8182 159.893L71.9785 156.551Z" fill="#C964C3"/>
<g opacity="0.100006">
<g opacity="0.100006">
<path opacity="0.100006" d="M83.4809 189.735H75.8672C75.8672 189.735 73.3645 213.673 81.6364 233.648C82.501 230.442 83.3743 226.594 84.2232 222.443L87.5142 201.355C87.0467 197.792 86.68 195.077 86.6262 194.896C86.4599 194.343 83.4809 189.735 83.4809 189.735Z" fill="black"/>
</g>
</g>
<path d="M82.225 295.877L82.2758 311.22L90.9321 310.642L92.2603 295.877H82.225Z" fill="#CD7A63"/>
<path d="M92.6081 310.075C94.2864 310.222 96.5514 310.127 96.9475 309.526C97.0052 309.452 97.0561 309.322 96.8878 309.064C96.7969 308.909 96.6385 308.804 96.4605 308.781C96.3265 308.749 96.1896 308.735 96.0517 308.743C94.8301 308.966 93.6614 309.417 92.6081 310.075ZM91.9294 310.384C91.8414 310.369 91.7719 310.303 91.7514 310.217C91.7318 310.129 91.77 310.039 91.8463 309.991C91.9812 309.907 95.0502 308.005 96.5641 308.364C96.8468 308.426 97.0932 308.596 97.2526 308.838C97.4639 309.105 97.4835 309.475 97.3015 309.763C96.9495 310.256 95.8023 310.502 94.6864 310.541C93.7641 310.57 92.8419 310.517 91.9294 310.384Z" fill="#D268CC"/>
<path d="M94.0284 306.665C93.7594 306.672 93.5012 306.776 93.3027 306.959C92.6611 307.757 92.2787 308.733 92.2083 309.755C93.2978 309.057 94.6592 307.483 94.5819 306.876C94.5643 306.822 94.534 306.668 94.1506 306.65L94.0284 306.665ZM91.8161 310.377C91.7496 310.337 91.7105 310.264 91.7134 310.188C91.7222 310.074 91.8748 307.643 92.9848 306.662C93.3037 306.373 93.7271 306.226 94.1565 306.257C94.7443 306.294 94.9379 306.584 94.9682 306.827C95.1961 307.829 93.1071 309.855 92.0509 310.369C92.0235 310.384 91.9922 310.389 91.9619 310.381C91.9149 310.397 91.8631 310.395 91.8161 310.377Z" fill="#D268CC"/>
<path d="M90.9668 309.16L81.1634 309.51C80.7937 309.524 80.4827 309.792 80.4142 310.156L78.9277 318.194C78.7898 318.907 79.2563 319.594 79.9683 319.732C80.0602 319.749 80.1531 319.758 80.246 319.756C83.7776 319.568 86.913 319.261 91.314 319.11C96.5072 318.926 95.2114 319.594 101.319 319.463C104.999 319.38 105.522 315.175 103.956 315.025C96.7859 314.381 95.9674 312.253 93.1224 309.797C92.5062 309.327 91.7395 309.1 90.9668 309.16Z" fill="#1A2E35"/>
<g opacity="0.199997">
<g opacity="0.199997">
<path opacity="0.199997" d="M82.2513 303.813L91.5638 303.62L92.2602 295.877H82.2249L82.2513 303.813Z" fill="#1A2E35"/>
</g>
</g>
<path d="M77.8316 153.736C77.8316 153.736 67.3426 167.632 75.1118 194.844L83.8835 234.534C83.8835 234.534 75.5353 252.592 79.9431 300.219C79.9431 300.219 86.571 301.281 92.8967 299.93C92.8967 299.93 102.664 249.628 104.15 232.636C105.786 213.922 104.806 157.5 104.806 157.5L77.8316 153.736Z" fill="#D268CC"/>
<path d="M84.1734 108.72C84.1734 108.72 82.5479 101.772 92.9705 104.812C103.392 107.851 102.524 113.786 102.524 113.786L84.1734 108.72Z" fill="#1A2E35"/>
<g opacity="0.399994">
<g opacity="0.399994">
<path opacity="0.399994" d="M84.1734 108.72C84.1734 108.72 82.5479 101.772 92.9705 104.812C103.392 107.851 102.524 113.786 102.524 113.786L84.1734 108.72Z" fill="black"/>
</g>
</g>
<path d="M110.032 126.087C110.032 128.522 109.005 132.043 108.085 135.984C107.635 137.852 107.225 139.798 106.951 141.774C105.474 152.542 104.995 163.867 104.995 163.867C104.995 163.867 87.9581 168.649 71.4104 157.206C71.4104 157.206 75.5082 153.735 74.6671 129.686C74.2857 118.85 70.3737 105.969 88.2809 107.994C103.401 109.705 108.486 114.4 109.709 121.744C109.719 121.832 109.738 121.93 109.758 122.028C109.787 122.253 109.816 122.478 109.846 122.713C109.973 123.779 110.032 124.913 110.032 126.087Z" fill="#1A2E35"/>
<g opacity="0.399994">
<g opacity="0.399994">
<path opacity="0.399994" d="M110.032 126.087C110.032 128.522 109.005 132.043 108.085 135.984C103.997 131.065 99.8995 121.852 99.8995 121.852L103.274 116.884L109.22 119.652C109.425 120.326 109.582 121.021 109.709 121.744C109.719 121.832 109.738 121.93 109.758 122.028C109.787 122.253 109.816 122.478 109.846 122.713C109.973 123.779 110.032 124.913 110.032 126.087Z" fill="black"/>
</g>
</g>
<path d="M116.209 121.838C116.209 121.838 122.028 127.628 124.397 129.962L144.685 123.878C144.957 121.722 146.521 119.95 148.627 119.413L150.061 119.048L153.11 118.207C154.265 117.889 155.502 118.211 156.355 119.052C157.364 120.046 157.639 121.568 157.041 122.853C155.812 125.496 153.289 127.3 150.393 127.611L147.52 127.92C147.52 127.92 129.412 137.804 123.583 137.255C117.754 136.708 110.096 129.697 110.096 129.697L116.209 121.838Z" fill="#CD7A63"/>
<path d="M101.689 111.311C106.693 112.043 111.807 116.023 119.748 123.05C119.748 123.05 117.142 129.057 111.353 132.748C111.353 132.748 106.721 130.721 101.208 123.706C94.5379 115.219 98.6201 110.862 101.689 111.311Z" fill="#1A2E35"/>
</svg>
